<?xml version="1.0" encoding="UTF-8" standalone="no"?>
<!DOCTYPE svg PUBLIC "-//W3C//DTD SVG 1.1//EN"
 "http://www.w3.org/Graphics/SVG/1.1/DTD/svg11.dtd">
<!-- Generated by graphviz version 2.44.0 (0)
 -->
<!-- Title: git Pages: 1 -->
<svg width="623pt" height="125pt"
 viewBox="0.00 0.00 623.00 125.00" xmlns="http://www.w3.org/2000/svg" xmlns:xlink="http://www.w3.org/1999/xlink">
<g id="graph0" class="graph" transform="scale(1 1) rotate(0) translate(4 121)">
<title>git</title>
<polygon fill="white" stroke="transparent" points="-4,4 -4,-121 619,-121 619,4 -4,4"/>
<!-- 28f7b382a5 -->
<g id="node1" class="node">
<title>28f7b382a5</title>
<g id="a_node1"><a xlink:title="28f7b382a52ac53f86314e5d608ebafd66de6c44">
<ellipse fill="none" stroke="black" cx="234" cy="-18" rx="18" ry="18"/>
<text text-anchor="middle" x="234" y="-14.3" font-family="Times-Roman" font-size="14.00">H</text>
</a>
</g>
</g>
<!-- cabdedff95 -->
<g id="node2" class="node">
<title>cabdedff95</title>
<g id="a_node2"><a xlink:title="cabdedff957f7dec15f365e7c29eaead9930d618">
<ellipse fill="none" stroke="black" cx="162" cy="-18" rx="18" ry="18"/>
<text text-anchor="middle" x="162" y="-14.3" font-family="Times-Roman" font-size="14.00">C</text>
</a>
</g>
</g>
<!-- 28f7b382a5&#45;&gt;cabdedff95 -->
<g id="edge8" class="edge">
<title>28f7b382a5&#45;&gt;cabdedff95</title>
<path fill="none" stroke="black" d="M215.7,-18C207.98,-18 198.71,-18 190.11,-18"/>
<polygon fill="black" stroke="black" points="190.1,-14.5 180.1,-18 190.1,-21.5 190.1,-14.5"/>
</g>
<!-- a5cbd99954 -->
<g id="node3" class="node">
<title>a5cbd99954</title>
<g id="a_node3"><a xlink:title="a5cbd999545aeabc2e102a845aeb0466f01454a2">
<ellipse fill="none" stroke="black" cx="90" cy="-18" rx="18" ry="18"/>
<text text-anchor="middle" x="90" y="-14.3" font-family="Times-Roman" font-size="14.00">B</text>
</a>
</g>
</g>
<!-- cabdedff95&#45;&gt;a5cbd99954 -->
<g id="edge7" class="edge">
<title>cabdedff95&#45;&gt;a5cbd99954</title>
<path fill="none" stroke="black" d="M143.7,-18C135.98,-18 126.71,-18 118.11,-18"/>
<polygon fill="black" stroke="black" points="118.1,-14.5 108.1,-18 118.1,-21.5 118.1,-14.5"/>
</g>
<!-- d98f949840 -->
<g id="node4" class="node">
<title>d98f949840</title>
<g id="a_node4"><a xlink:title="d98f94984057d760066ba0b300ab4930497bcba6">
<ellipse fill="none" stroke="black" cx="18" cy="-18" rx="18" ry="18"/>
<text text-anchor="middle" x="18" y="-14.3" font-family="Times-Roman" font-size="14.00">A</text>
</a>
</g>
</g>
<!-- a5cbd99954&#45;&gt;d98f949840 -->
<g id="edge4" class="edge">
<title>a5cbd99954&#45;&gt;d98f949840</title>
<path fill="none" stroke="black" d="M71.7,-18C63.98,-18 54.71,-18 46.11,-18"/>
<polygon fill="black" stroke="black" points="46.1,-14.5 36.1,-18 46.1,-21.5 46.1,-14.5"/>
</g>
<!-- 973437cb00 -->
<g id="node5" class="node">
<title>973437cb00</title>
<g id="a_node5"><a xlink:title="973437cb007d2a69d6564fd7b30f3e8c347073c2">
<ellipse fill="none" stroke="black" cx="320.5" cy="-72" rx="18" ry="18"/>
<text text-anchor="middle" x="320.5" y="-68.3" font-family="Times-Roman" font-size="14.00">E</text>
</a>
</g>
</g>
<!-- 2c0bd1c1df -->
<g id="node6" class="node">
<title>2c0bd1c1df</title>
<g id="a_node6"><a xlink:title="2c0bd1c1dfe9f76cd18b37bb0bc995e449e0094b">
<ellipse fill="none" stroke="black" cx="234" cy="-72" rx="18" ry="18"/>
<text text-anchor="middle" x="234" y="-68.3" font-family="Times-Roman" font-size="14.00">D</text>
</a>
</g>
</g>
<!-- 973437cb00&#45;&gt;2c0bd1c1df -->
<g id="edge6" class="edge">
<title>973437cb00&#45;&gt;2c0bd1c1df</title>
<path fill="none" stroke="black" d="M302.4,-72C290.83,-72 275.31,-72 262.08,-72"/>
<polygon fill="black" stroke="black" points="262.07,-68.5 252.07,-72 262.07,-75.5 262.07,-68.5"/>
</g>
<!-- 2c0bd1c1df&#45;&gt;cabdedff95 -->
<g id="edge9" class="edge">
<title>2c0bd1c1df&#45;&gt;cabdedff95</title>
<path fill="none" stroke="black" d="M219.17,-61.33C209.39,-53.79 196.08,-43.52 184.87,-34.87"/>
<polygon fill="black" stroke="black" points="186.86,-31.98 176.8,-28.65 182.58,-37.53 186.86,-31.98"/>
</g>
<!-- 93e1d18862 -->
<g id="node7" class="node">
<title>93e1d18862</title>
<g id="a_node7"><a xlink:title="93e1d18862102e044a4ec46bb189f5bca9ba0e05">
<ellipse fill="none" stroke="black" cx="502" cy="-99" rx="18" ry="18"/>
<text text-anchor="middle" x="502" y="-95.3" font-family="Times-Roman" font-size="14.00">G</text>
</a>
</g>
</g>
<!-- 3ef811d426 -->
<g id="node8" class="node">
<title>3ef811d426</title>
<g id="a_node8"><a xlink:title="3ef811d426c09be792a0ff6564eca82a7bd105a9">
<ellipse fill="none" stroke="black" cx="418.5" cy="-99" rx="18" ry="18"/>
<text text-anchor="middle" x="418.5" y="-95.3" font-family="Times-Roman" font-size="14.00">F</text>
</a>
</g>
</g>
<!-- 93e1d18862&#45;&gt;3ef811d426 -->
<g id="edge10" class="edge">
<title>93e1d18862&#45;&gt;3ef811d426</title>
<path fill="none" stroke="black" d="M483.72,-99C473.02,-99 459.05,-99 446.87,-99"/>
<polygon fill="black" stroke="black" points="446.76,-95.5 436.76,-99 446.76,-102.5 446.76,-95.5"/>
</g>
<!-- 3ef811d426&#45;&gt;973437cb00 -->
<g id="edge5" class="edge">
<title>3ef811d426&#45;&gt;973437cb00</title>
<path fill="none" stroke="black" d="M400.78,-94.3C386.19,-90.19 364.76,-84.17 347.87,-79.42"/>
<polygon fill="black" stroke="black" points="348.6,-75.99 338.03,-76.65 346.71,-82.73 348.6,-75.99"/>
</g>
<!-- master -->
<g id="node9" class="node">
<title>master</title>
<polygon fill="black" stroke="black" points="353,-36 288,-36 288,0 353,0 353,-36"/>
<text text-anchor="middle" x="320.5" y="-14.3" font-family="Times-Roman" font-size="14.00" fill="white">master</text>
</g>
<!-- master&#45;&gt;28f7b382a5 -->
<g id="edge3" class="edge">
<title>master&#45;&gt;28f7b382a5</title>
<path fill="none" stroke="black" stroke-dasharray="5,2" d="M287.55,-18C279.33,-18 270.55,-18 262.57,-18"/>
<polygon fill="black" stroke="black" points="262.3,-14.5 252.3,-18 262.3,-21.5 262.3,-14.5"/>
</g>
<!-- topic1 -->
<g id="node10" class="node">
<title>topic1</title>
<polygon fill="black" stroke="black" points="448,-63 389,-63 389,-27 448,-27 448,-63"/>
<text text-anchor="middle" x="418.5" y="-41.3" font-family="Times-Roman" font-size="14.00" fill="white">topic1</text>
</g>
<!-- topic1&#45;&gt;973437cb00 -->
<g id="edge2" class="edge">
<title>topic1&#45;&gt;973437cb00</title>
<path fill="none" stroke="black" stroke-dasharray="5,2" d="M388.96,-53.03C376,-56.67 360.77,-60.95 348.07,-64.53"/>
<polygon fill="black" stroke="black" points="346.77,-61.26 338.09,-67.33 348.66,-68 346.77,-61.26"/>
</g>
<!-- topic2 -->
<g id="node11" class="node">
<title>topic2</title>
<polygon fill="black" stroke="black" points="615,-117 556,-117 556,-81 615,-81 615,-117"/>
<text text-anchor="middle" x="585.5" y="-95.3" font-family="Times-Roman" font-size="14.00" fill="white">topic2</text>
</g>
<!-- topic2&#45;&gt;93e1d18862 -->
<g id="edge1" class="edge">
<title>topic2&#45;&gt;93e1d18862</title>
<path fill="none" stroke="black" stroke-dasharray="5,2" d="M556,-99C547.7,-99 538.65,-99 530.42,-99"/>
<polygon fill="black" stroke="black" points="530.2,-95.5 520.2,-99 530.2,-102.5 530.2,-95.5"/>
</g>
</g>
</svg>
