<?xml version="1.0" standalone="yes"?>

<svg version="1.1" viewBox="0.0 0.0 1292.0 716.0" fill="none" stroke="none" stroke-linecap="square" stroke-miterlimit="10" xmlns="http://www.w3.org/2000/svg" xmlns:xlink="http://www.w3.org/1999/xlink"><clipPath id="p.0"><path d="m0 0l1292.0 0l0 716.0l-1292.0 0l0 -716.0z" clip-rule="nonzero"></path></clipPath><g clip-path="url(#p.0)"><path fill="#000000" fill-opacity="0.0" d="m0 0l1292.5459 0l0 716.2362l-1292.5459 0z" fill-rule="nonzero"></path><path fill="#f3f3f3" d="m9.249344 12.112861l436.12598 0l0 662.04724l-436.12598 0z" fill-rule="nonzero"></path><path stroke="#000000" stroke-width="2.0" stroke-linejoin="round" stroke-linecap="butt" d="m9.249344 12.112861l436.12598 0l0 662.04724l-436.12598 0z" fill-rule="nonzero"></path><path fill="#f3f3f3" d="m498.56168 168.29921l714.2677 0l0 510.5197l-714.2677 0z" fill-rule="nonzero"></path><path stroke="#000000" stroke-width="2.0" stroke-linejoin="round" stroke-linecap="butt" d="m498.56168 168.29921l714.2677 0l0 510.5197l-714.2677 0z" fill-rule="nonzero"></path><path fill="#b6d7a8" d="m55.92915 129.87773l0 0c0 -34.476486 28.449306 -62.425194 63.54331 -62.425194l0 0c16.852722 0 33.015213 6.5769196 44.9319 18.283913c11.916687 11.707001 18.611404 27.58509 18.611404 44.14128l0 0c0 34.476486 -28.44931 62.4252 -63.543304 62.4252l0 0c-35.094 0 -63.54331 -27.948715 -63.54331 -62.4252z" fill-rule="nonzero"></path><path stroke="#000000" stroke-width="2.0" stroke-linejoin="round" stroke-linecap="butt" d="m55.92915 129.87773l0 0c0 -34.476486 28.449306 -62.425194 63.54331 -62.425194l0 0c16.852722 0 33.015213 6.5769196 44.9319 18.283913c11.916687 11.707001 18.611404 27.58509 18.611404 44.14128l0 0c0 34.476486 -28.44931 62.4252 -63.543304 62.4252l0 0c-35.094 0 -63.54331 -27.948715 -63.54331 -62.4252z" fill-rule="nonzero"></path><path fill="#000000" d="m104.155624 135.29773l0.234375 1.484375q-0.703125 0.140625 -1.265625 0.140625q-0.90625 0 -1.40625 -0.28125q-0.5 -0.296875 -0.703125 -0.75q-0.203125 -0.46875 -0.203125 -1.984375l0 -5.65625l-1.234375 0l0 -1.3125l1.234375 0l0 -2.4375l1.65625 -1.0l0 3.4375l1.6875 0l0 1.3125l-1.6875 0l0 5.75q0 0.71875 0.078125 0.921875q0.09375 0.203125 0.296875 0.328125q0.203125 0.125 0.578125 0.125q0.265625 0 0.734375 -0.078125zm8.277054 -1.671875l1.71875 0.21875q-0.40625 1.5 -1.515625 2.34375q-1.09375 0.828125 -2.8125 0.828125q-2.15625 0 -3.421875 -1.328125q-1.265625 -1.328125 -1.265625 -3.734375q0 -2.484375 1.265625 -3.859375q1.28125 -1.375 3.328125 -1.375q1.984375 0 3.234375 1.34375q1.25 1.34375 1.25 3.796875q0 0.140625 -0.015625 0.4375l-7.34375 0q0.09375 1.625 0.921875 2.484375q0.828125 0.859375 2.0625 0.859375q0.90625 0 1.546875 -0.46875q0.65625 -0.484375 1.046875 -1.546875zm-5.484375 -2.703125l5.5 0q-0.109375 -1.234375 -0.625 -1.859375q-0.796875 -0.96875 -2.078125 -0.96875q-1.140625 0 -1.9375 0.78125q-0.78125 0.765625 -0.859375 2.046875zm8.438217 2.9375l1.65625 -0.265625q0.140625 1.0 0.765625 1.53125q0.640625 0.515625 1.78125 0.515625q1.15625 0 1.703125 -0.46875q0.5625 -0.46875 0.5625 -1.09375q0 -0.5625 -0.484375 -0.890625q-0.34375 -0.21875 -1.703125 -0.5625q-1.84375 -0.46875 -2.5625 -0.796875q-0.703125 -0.34375 -1.078125 -0.9375q-0.359375 -0.609375 -0.359375 -1.328125q0 -0.65625 0.296875 -1.21875q0.3125 -0.5625 0.828125 -0.9375q0.390625 -0.28125 1.0625 -0.484375q0.671875 -0.203125 1.4375 -0.203125q1.171875 0 2.046875 0.34375q0.875 0.328125 1.28125 0.90625q0.421875 0.5625 0.578125 1.515625l-1.625 0.21875q-0.109375 -0.75 -0.65625 -1.171875q-0.53125 -0.4375 -1.5 -0.4375q-1.15625 0 -1.640625 0.390625q-0.484375 0.375 -0.484375 0.875q0 0.328125 0.203125 0.59375q0.203125 0.265625 0.640625 0.4375q0.25 0.09375 1.46875 0.4375q1.765625 0.46875 2.46875 0.765625q0.703125 0.296875 1.09375 0.875q0.40625 0.578125 0.40625 1.4375q0 0.828125 -0.484375 1.578125q-0.484375 0.734375 -1.40625 1.140625q-0.921875 0.390625 -2.078125 0.390625q-1.921875 0 -2.9375 -0.796875q-1.0 -0.796875 -1.28125 -2.359375zm13.65625 1.4375l0.234375 1.484375q-0.703125 0.140625 -1.265625 0.140625q-0.90625 0 -1.40625 -0.28125q-0.5 -0.296875 -0.703125 -0.75q-0.203125 -0.46875 -0.203125 -1.984375l0 -5.65625l-1.234375 0l0 -1.3125l1.234375 0l0 -2.4375l1.65625 -1.0l0 3.4375l1.6875 0l0 1.3125l-1.6875 0l0 5.75q0 0.71875 0.078125 0.921875q0.09375 0.203125 0.296875 0.328125q0.203125 0.125 0.578125 0.125q0.265625 0 0.734375 -0.078125zm1.0583038 -5.203125q0 -2.421875 0.5 -3.890625q0.5 -1.46875 1.46875 -2.265625q0.984375 -0.796875 2.46875 -0.796875q1.09375 0 1.921875 0.4375q0.828125 0.4375 1.359375 1.28125q0.546875 0.828125 0.84375 2.015625q0.3125 1.1875 0.3125 3.21875q0 2.390625 -0.5 3.859375q-0.484375 1.46875 -1.46875 2.28125q-0.96875 0.796875 -2.46875 0.796875q-1.96875 0 -3.078125 -1.40625q-1.359375 -1.703125 -1.359375 -5.53125zm1.71875 0q0 3.34375 0.78125 4.453125q0.796875 1.109375 1.9375 1.109375q1.15625 0 1.9375 -1.109375q0.78125 -1.125 0.78125 -4.453125q0 -3.359375 -0.78125 -4.46875q-0.78125 -1.109375 -1.953125 -1.109375q-1.15625 0 -1.828125 0.984375q-0.875 1.234375 -0.875 4.59375z" fill-rule="nonzero"></path><path fill="#b6d7a8" d="m239.98688 129.22575l0 0c0 -34.47648 28.44931 -62.425194 63.543304 -62.425194l0 0c16.852722 0 33.01523 6.5769196 44.931915 18.28392c11.9166565 11.706993 18.61139 27.585083 18.61139 44.141273l0 0c0 34.476486 -28.44931 62.4252 -63.543304 62.4252l0 0c-35.093994 0 -63.543304 -27.948715 -63.543304 -62.4252z" fill-rule="nonzero"></path><path stroke="#000000" stroke-width="2.0" stroke-linejoin="round" stroke-linecap="butt" d="m239.98688 129.22575l0 0c0 -34.47648 28.44931 -62.425194 63.543304 -62.425194l0 0c16.852722 0 33.01523 6.5769196 44.931915 18.28392c11.9166565 11.706993 18.61139 27.585083 18.61139 44.141273l0 0c0 34.476486 -28.44931 62.4252 -63.543304 62.4252l0 0c-35.093994 0 -63.543304 -27.948715 -63.543304 -62.4252z" fill-rule="nonzero"></path><path fill="#000000" d="m288.21335 134.64575l0.234375 1.484375q-0.703125 0.140625 -1.265625 0.140625q-0.90625 0 -1.40625 -0.28125q-0.5 -0.296875 -0.703125 -0.75q-0.203125 -0.46875 -0.203125 -1.984375l0 -5.6562424l-1.234375 0l0 -1.3125l1.234375 0l0 -2.4375l1.65625 -1.0l0 3.4375l1.6875 0l0 1.3125l-1.6875 0l0 5.7499924q0 0.71875 0.078125 0.921875q0.09375 0.203125 0.296875 0.328125q0.203125 0.125 0.578125 0.125q0.265625 0 0.734375 -0.078125zm8.277069 -1.671875l1.71875 0.21875q-0.40625 1.5 -1.515625 2.34375q-1.09375 0.828125 -2.8125 0.828125q-2.15625 0 -3.421875 -1.328125q-1.265625 -1.328125 -1.265625 -3.734375q0 -2.484375 1.265625 -3.8593674q1.28125 -1.375 3.328125 -1.375q1.984375 0 3.234375 1.34375q1.25 1.3437424 1.25 3.7968674q0 0.140625 -0.015625 0.4375l-7.34375 0q0.09375 1.625 0.921875 2.484375q0.828125 0.859375 2.0625 0.859375q0.90625 0 1.546875 -0.46875q0.65625 -0.484375 1.046875 -1.546875zm-5.484375 -2.703125l5.5 0q-0.109375 -1.234375 -0.625 -1.859375q-0.796875 -0.9687424 -2.078125 -0.9687424q-1.140625 0 -1.9375 0.7812424q-0.78125 0.765625 -0.859375 2.046875zm8.438202 2.9375l1.65625 -0.265625q0.140625 1.0 0.765625 1.53125q0.640625 0.515625 1.78125 0.515625q1.15625 0 1.703125 -0.46875q0.5625 -0.46875 0.5625 -1.09375q0 -0.5625 -0.484375 -0.890625q-0.34375 -0.21875 -1.703125 -0.5625q-1.84375 -0.46875 -2.5625 -0.796875q-0.703125 -0.34375 -1.078125 -0.9375q-0.359375 -0.609375 -0.359375 -1.328125q0 -0.65625 0.296875 -1.2187424q0.3125 -0.5625 0.828125 -0.9375q0.390625 -0.28125 1.0625 -0.484375q0.671875 -0.203125 1.4375 -0.203125q1.171875 0 2.046875 0.34375q0.875 0.328125 1.28125 0.90625q0.421875 0.5625 0.578125 1.5156174l-1.625 0.21875q-0.109375 -0.75 -0.65625 -1.1718674q-0.53125 -0.4375 -1.5 -0.4375q-1.15625 0 -1.640625 0.390625q-0.484375 0.37499237 -0.484375 0.8749924q0 0.328125 0.203125 0.59375q0.203125 0.265625 0.640625 0.4375q0.25 0.09375 1.46875 0.4375q1.765625 0.46875 2.46875 0.765625q0.703125 0.296875 1.09375 0.875q0.40625 0.578125 0.40625 1.4375q0 0.828125 -0.484375 1.578125q-0.484375 0.734375 -1.40625 1.140625q-0.921875 0.390625 -2.078125 0.390625q-1.921875 0 -2.9375 -0.796875q-1.0 -0.796875 -1.28125 -2.359375zm13.65625 1.4375l0.234375 1.484375q-0.703125 0.140625 -1.265625 0.140625q-0.90625 0 -1.40625 -0.28125q-0.5 -0.296875 -0.703125 -0.75q-0.203125 -0.46875 -0.203125 -1.984375l0 -5.6562424l-1.234375 0l0 -1.3125l1.234375 0l0 -2.4375l1.65625 -1.0l0 3.4375l1.6875 0l0 1.3125l-1.6875 0l0 5.7499924q0 0.71875 0.078125 0.921875q0.09375 0.203125 0.296875 0.328125q0.203125 0.125 0.578125 0.125q0.265625 0 0.734375 -0.078125zm7.355194 1.5l-1.671875 0l0 -10.640617q-0.59375 0.578125 -1.578125 1.15625q-0.984375 0.5625 -1.765625 0.859375l0 -1.625q1.40625 -0.65625 2.453125 -1.59375q1.046875 -0.9375 1.484375 -1.8125l1.078125 0l0 13.656242z" fill-rule="nonzero"></path><path fill="#fff2cc" d="m84.24573 246.74637l71.02362 0l0 69.13385l-71.02362 0z" fill-rule="nonzero"></path><path stroke="#000000" stroke-width="2.0" stroke-linejoin="round" stroke-linecap="butt" d="m84.24573 246.74637l71.02362 0l0 69.13385l-71.02362 0z" fill-rule="nonzero"></path><path fill="#000000" d="m98.88635 280.08206l0.046875 0l0.171875 -0.9375l0.9375 0l0 10.09375l-1.15625 0l0 -2.984375q0 -0.25 0.078125 -1.078125l-0.078125 0q-0.71875 1.0625 -2.046875 1.0625q-1.265625 0 -2.0 -0.9375q-0.71875 -0.953125 -0.71875 -2.65625q0 -1.71875 0.71875 -2.671875q0.734375 -0.953125 2.0 -0.953125q1.3125 0 2.046875 1.0625zm0 2.8125l0 -0.25q0 -1.4375 -0.4375 -2.046875q-0.4375 -0.625 -1.40625 -0.625q-1.734375 0 -1.734375 2.6875q0 2.625 1.75 2.625q0.96875 0 1.390625 -0.5625q0.421875 -0.5625 0.4375 -1.828125zm4.513809 2.34375l-0.078125 0l-0.234375 0.875l-0.84375 0l0 -9.875l1.15625 0l0 2.390625q0 0.515625 -0.046875 1.421875l0.046875 0q0.6875 -1.03125 2.046875 -1.03125q1.28125 0 2.0 0.953125q0.734375 0.9375 0.734375 2.640625q0 1.71875 -0.734375 2.671875q-0.734375 0.953125 -2.0 0.953125q-1.3125 0 -2.046875 -1.0zm0 -2.625q0 1.4375 0.4375 2.0625q0.453125 0.609375 1.40625 0.609375q1.734375 0 1.734375 -2.6875q0 -2.625 -1.734375 -2.625q-0.984375 0 -1.421875 0.609375q-0.421875 0.59375 -0.421875 2.03125zm12.560684 -3.3125l-0.3125 1.0625q-0.78125 -0.296875 -1.421875 -0.296875q-1.03125 0 -1.59375 0.59375q-0.5625 0.578125 -0.5625 1.6875l0 3.765625l-1.15625 0l0 -6.96875l0.9375 0l0.140625 1.28125l0.0625 0q0.46875 -0.765625 1.015625 -1.078125q0.5625 -0.328125 1.375 -0.328125q0.75 0 1.515625 0.28125zm5.170059 4.90625q0.96875 0 0.96875 1.046875q0 1.0625 -0.96875 1.0625q-0.953125 0 -0.953125 -1.0625q0 -1.046875 0.953125 -1.046875zm7.998184 0q0.96875 0 0.96875 1.046875q0 1.0625 -0.96875 1.0625q-0.953125 0 -0.953125 -1.0625q0 -1.046875 0.953125 -1.046875zm7.998184 0q0.96875 0 0.96875 1.046875q0 1.0625 -0.96875 1.0625q-0.953125 0 -0.953125 -1.0625q0 -1.046875 0.953125 -1.046875z" fill-rule="nonzero"></path><path fill="#fff2cc" d="m268.08047 246.85503l71.02362 0l0 69.133865l-71.02362 0z" fill-rule="nonzero"></path><path stroke="#000000" stroke-width="2.0" stroke-linejoin="round" stroke-linecap="butt" d="m268.08047 246.85503l71.02362 0l0 69.133865l-71.02362 0z" fill-rule="nonzero"></path><path fill="#000000" d="m282.7211 280.1907l0.046875 0l0.171875 -0.9375l0.9375 0l0 10.09375l-1.15625 0l0 -2.984375q0 -0.25 0.078125 -1.078125l-0.078125 0q-0.71875 1.0625 -2.046875 1.0625q-1.265625 0 -2.0 -0.9375q-0.71875 -0.953125 -0.71875 -2.65625q0 -1.71875 0.71875 -2.671875q0.734375 -0.953125 2.0 -0.953125q1.3125 0 2.046875 1.0625zm0 2.8125l0 -0.25q0 -1.4375 -0.4375 -2.046875q-0.4375 -0.625 -1.40625 -0.625q-1.734375 0 -1.734375 2.6875q0 2.625 1.75 2.625q0.96875 0 1.390625 -0.5625q0.421875 -0.5625 0.4375 -1.828125zm4.5138245 2.34375l-0.078125 0l-0.234375 0.875l-0.84375 0l0 -9.875l1.15625 0l0 2.390625q0 0.515625 -0.046875 1.421875l0.046875 0q0.6875 -1.03125 2.046875 -1.03125q1.28125 0 2.0 0.953125q0.734375 0.9375 0.734375 2.640625q0 1.71875 -0.734375 2.671875q-0.734375 0.953125 -2.0 0.953125q-1.3125 0 -2.046875 -1.0zm0 -2.625q0 1.4375 0.4375 2.0625q0.453125 0.609375 1.40625 0.609375q1.734375 0 1.734375 -2.6875q0 -2.625 -1.734375 -2.625q-0.984375 0 -1.421875 0.609375q-0.421875 0.59375 -0.421875 2.03125zm12.560669 -3.3125l-0.3125 1.0625q-0.78125 -0.296875 -1.421875 -0.296875q-1.03125 0 -1.59375 0.59375q-0.5625 0.578125 -0.5625 1.6875l0 3.765625l-1.15625 0l0 -6.96875l0.9375 0l0.140625 1.28125l0.0625 0q0.46875 -0.765625 1.015625 -1.078125q0.5625 -0.328125 1.375 -0.328125q0.75 0 1.515625 0.28125zm5.1700745 4.90625q0.96875 0 0.96875 1.046875q0 1.0625 -0.96875 1.0625q-0.953125 0 -0.953125 -1.0625q0 -1.046875 0.953125 -1.046875zm7.998169 0q0.96875 0 0.96875 1.046875q0 1.0625 -0.96875 1.0625q-0.953125 0 -0.953125 -1.0625q0 -1.046875 0.953125 -1.046875zm7.9981995 0q0.96875 0 0.96875 1.046875q0 1.0625 -0.96875 1.0625q-0.953125 0 -0.953125 -1.0625q0 -1.046875 0.953125 -1.046875z" fill-rule="nonzero"></path><path fill="#cfe2f3" d="m56.36899 413.25656l311.2756 0l0 69.13385l-311.2756 0z" fill-rule="nonzero"></path><path stroke="#000000" stroke-width="2.0" stroke-linejoin="round" stroke-linecap="butt" d="m56.36899 413.25656l311.2756 0l0 69.13385l-311.2756 0z" fill-rule="nonzero"></path><path fill="#000000" d="m181.57632 453.44662l-0.109375 0l-0.34375 1.296875l-1.234375 0l0 -14.4375l1.6875 0l0 3.484375q0 0.75 -0.078125 2.109375l0.078125 0q0.984375 -1.53125 2.984375 -1.53125q1.859375 0 2.921875 1.390625q1.0625 1.390625 1.0625 3.875q0 2.5 -1.0625 3.90625q-1.0625 1.390625 -2.921875 1.390625q-1.921875 0 -2.984375 -1.484375zm0 -3.8125q0 2.109375 0.640625 3.0q0.640625 0.890625 2.0625 0.890625q2.515625 0 2.515625 -3.90625q0 -3.84375 -2.546875 -3.84375q-1.4375 0 -2.0625 0.875q-0.609375 0.859375 -0.609375 2.984375zm17.867447 -4.84375l-0.453125 1.53125q-1.140625 -0.40625 -2.078125 -0.40625q-1.515625 0 -2.34375 0.859375q-0.8125 0.859375 -0.8125 2.46875l0 5.5l-1.6875 0l0 -10.1875l1.375 0l0.203125 1.859375l0.0625 0q0.71875 -1.09375 1.515625 -1.5625q0.8125 -0.484375 1.984375 -0.484375q1.09375 0 2.234375 0.421875zm4.008072 5.640625l0 -1.5625l6.125 0l0 1.5625l-6.125 0zm14.429947 -10.0625q0.984375 0 0.984375 1.046875q0 0.546875 -0.296875 0.8125q-0.296875 0.265625 -0.6875 0.265625q-1.0 0 -1.0 -1.078125q0 -1.046875 1.0 -1.046875zm-0.859375 5.53125l-2.484375 -0.203125l0 -1.140625l4.171875 0l0 8.859375l3.265625 0.1875l0 1.140625l-8.140625 0l0 -1.140625l3.1875 -0.1875l0 -7.515625zm14.414322 8.84375l0 -6.5625q0 -2.40625 -2.21875 -2.40625q-2.84375 0 -2.84375 3.6875l0 5.28125l-1.6875 0l0 -10.1875l1.359375 0l0.25 1.375l0.09375 0q0.953125 -1.5625 3.125 -1.5625q3.609375 0 3.609375 3.71875l0 6.65625l-1.6875 0zm12.429947 -1.390625l0 1.28125q-1.21875 0.296875 -2.34375 0.296875q-3.359375 0 -3.359375 -3.1875l0 -5.921875l-2.46875 0l0 -0.859375l2.46875 -0.46875l0.71875 -2.65625l0.96875 0l0 2.71875l4.0625 0l0 1.265625l-4.0625 0l0 5.921875q0 1.796875 1.78125 1.796875q0.859375 0 2.234375 -0.1875z" fill-rule="nonzero"></path><path fill="#cfe2f3" d="m56.15212 564.95l311.27557 0l0 69.13385l-311.27557 0z" fill-rule="nonzero"></path><path stroke="#000000" stroke-width="2.0" stroke-linejoin="round" stroke-linecap="butt" d="m56.15212 564.95l311.27557 0l0 69.13385l-311.27557 0z" fill-rule="nonzero"></path><path fill="#000000" d="m181.35945 605.1401l-0.109375 0l-0.34375 1.296875l-1.234375 0l0 -14.4375l1.6875 0l0 3.484375q0 0.75 -0.078125 2.109375l0.078125 0q0.984375 -1.53125 2.984375 -1.53125q1.859375 0 2.921875 1.390625q1.0625 1.390625 1.0625 3.875q0 2.5 -1.0625 3.90625q-1.0625 1.390625 -2.921875 1.390625q-1.921875 0 -2.984375 -1.484375zm0 -3.8125q0 2.109375 0.640625 3.0q0.640625 0.890625 2.0625 0.890625q2.515625 0 2.515625 -3.90625q0 -3.84375 -2.546875 -3.84375q-1.4375 0 -2.0625 0.875q-0.609375 0.859375 -0.609375 2.984375zm17.867447 -4.84375l-0.453125 1.53125q-1.140625 -0.40625 -2.078125 -0.40625q-1.515625 0 -2.34375 0.859375q-0.8125 0.859375 -0.8125 2.46875l0 5.5l-1.6875 0l0 -10.1875l1.375 0l0.203125 1.859375l0.0625 0q0.71875 -1.09375 1.515625 -1.5625q0.8125 -0.484375 1.984375 -0.484375q1.09375 0 2.234375 0.421875zm4.008072 5.640625l0 -1.5625l6.125 0l0 1.5625l-6.125 0zm18.023697 2.921875l0 1.28125q-1.21875 0.296875 -2.34375 0.296875q-3.359375 0 -3.359375 -3.1875l0 -5.921875l-2.46875 0l0 -0.859375l2.46875 -0.46875l0.71875 -2.65625l0.96875 0l0 2.71875l4.0625 0l0 1.265625l-4.0625 0l0 5.921875q0 1.796875 1.78125 1.796875q0.859375 0 2.234375 -0.1875zm10.273697 1.390625l-0.25 -1.359375l-0.09375 0q-0.96875 1.546875 -3.09375 1.546875q-3.625 0 -3.625 -3.71875l0 -6.65625l1.6875 0l0 6.5625q0 2.40625 2.1875 2.40625q1.5 0 2.1875 -0.859375q0.6875 -0.859375 0.6875 -2.828125l0 -5.28125l1.6875 0l0 10.1875l-1.375 0zm10.883072 0l0 -6.5625q0 -2.40625 -2.21875 -2.40625q-2.84375 0 -2.84375 3.6875l0 5.28125l-1.6875 0l0 -10.1875l1.359375 0l0.25 1.375l0.09375 0q0.953125 -1.5625 3.125 -1.5625q3.609375 0 3.609375 3.71875l0 6.65625l-1.6875 0z" fill-rule="nonzero"></path><path fill="#000000" fill-opacity="0.0" d="m119.47246 192.30293l0.28507996 54.443436" fill-rule="nonzero"></path><path stroke="#000000" stroke-width="2.0" stroke-linejoin="round" stroke-linecap="butt" d="m119.47246 192.30293l0.28507996 54.443436" fill-rule="nonzero"></path><path fill="#000000" fill-opacity="0.0" d="m303.53018 191.65096l0.06210327 55.20407" fill-rule="nonzero"></path><path stroke="#000000" stroke-width="2.0" stroke-linejoin="round" stroke-linecap="butt" d="m303.53018 191.65096l0.06210327 55.20407" fill-rule="nonzero"></path><path fill="#000000" fill-opacity="0.0" d="m119.75754 315.88022l12.468185 78.16965" fill-rule="nonzero"></path><path stroke="#000000" stroke-width="2.0" stroke-linejoin="round" stroke-linecap="butt" d="m119.75754 315.88022l12.468185 78.16965" fill-rule="nonzero"></path><path fill="#000000" fill-opacity="0.0" d="m303.5923 315.9889l-3.3665771 78.060974" fill-rule="nonzero"></path><path stroke="#000000" stroke-width="2.0" stroke-linejoin="round" stroke-linecap="butt" d="m303.5923 315.9889l-3.3665771 78.060974" fill-rule="nonzero"></path><path fill="#000000" fill-opacity="0.0" d="m212.00679 482.3904l-0.21687317 82.5596" fill-rule="nonzero"></path><path stroke="#000000" stroke-width="2.0" stroke-linejoin="round" stroke-linecap="butt" d="m212.00679 482.3904l-0.21687317 82.5596" fill-rule="nonzero"></path><path fill="#cfe2f3" d="m569.94403 565.0587l311.27557 0l0 69.13385l-311.27557 0z" fill-rule="nonzero"></path><path stroke="#000000" stroke-width="2.0" stroke-linejoin="round" stroke-linecap="butt" d="m569.94403 565.0587l311.27557 0l0 69.13385l-311.27557 0z" fill-rule="nonzero"></path><path fill="#000000" d="m695.15137 605.2487l-0.109375 0l-0.34375 1.296875l-1.234375 0l0 -14.4375l1.6875 0l0 3.484375q0 0.75 -0.078125 2.109375l0.078125 0q0.984375 -1.53125 2.984375 -1.53125q1.859375 0 2.921875 1.390625q1.0625 1.390625 1.0625 3.875q0 2.5 -1.0625 3.90625q-1.0625 1.390625 -2.921875 1.390625q-1.921875 0 -2.984375 -1.484375zm0 -3.8125q0 2.109375 0.640625 3.0q0.640625 0.890625 2.0625 0.890625q2.515625 0 2.515625 -3.90625q0 -3.84375 -2.546875 -3.84375q-1.4375 0 -2.0625 0.875q-0.609375 0.859375 -0.609375 2.984375zm17.867432 -4.84375l-0.453125 1.53125q-1.140625 -0.40625 -2.078125 -0.40625q-1.515625 0 -2.34375 0.859375q-0.8125 0.859375 -0.8125 2.46875l0 5.5l-1.6875 0l0 -10.1875l1.375 0l0.203125 1.859375l0.0625 0q0.71875 -1.09375 1.515625 -1.5625q0.8125 -0.484375 1.984375 -0.484375q1.09375 0 2.234375 0.421875zm4.0080566 5.640625l0 -1.5625l6.125 0l0 1.5625l-6.125 0zm18.023743 2.921875l0 1.28125q-1.21875 0.296875 -2.34375 0.296875q-3.359375 0 -3.359375 -3.1875l0 -5.921875l-2.46875 0l0 -0.859375l2.46875 -0.46875l0.71875 -2.65625l0.96875 0l0 2.71875l4.0625 0l0 1.265625l-4.0625 0l0 5.921875q0 1.796875 1.78125 1.796875q0.859375 0 2.234375 -0.1875zm10.273682 1.390625l-0.25 -1.359375l-0.09375 0q-0.96875 1.546875 -3.09375 1.546875q-3.625 0 -3.625 -3.71875l0 -6.65625l1.6875 0l0 6.5625q0 2.40625 2.1875 2.40625q1.5 0 2.1875 -0.859375q0.6875 -0.859375 0.6875 -2.828125l0 -5.28125l1.6875 0l0 10.1875l-1.375 0zm10.883057 0l0 -6.5625q0 -2.40625 -2.21875 -2.40625q-2.84375 0 -2.84375 3.6875l0 5.28125l-1.6875 0l0 -10.1875l1.359375 0l0.25 1.375l0.09375 0q0.953125 -1.5625 3.125 -1.5625q3.609375 0 3.609375 3.71875l0 6.65625l-1.6875 0z" fill-rule="nonzero"></path><path fill="#000000" fill-opacity="0.0" d="m388.16272 601.9869l181.78131 -2.361267" fill-rule="nonzero"></path><path stroke="#000000" stroke-width="2.0" stroke-linejoin="round" stroke-linecap="butt" stroke-dasharray="8.0,6.0" d="m388.16272 601.9869l181.78131 -2.361267" fill-rule="nonzero"></path><path fill="#cfe2f3" d="m569.9456 413.25723l588.12604 0l0 69.13385l-588.12604 0z" fill-rule="nonzero"></path><path stroke="#000000" stroke-width="2.0" stroke-linejoin="round" stroke-linecap="butt" d="m569.9456 413.25723l588.12604 0l0 69.13385l-588.12604 0z" fill-rule="nonzero"></path><path fill="#000000" d="m833.5781 453.44727l-0.109375 0l-0.34375 1.296875l-1.234375 0l0 -14.4375l1.6875 0l0 3.484375q0 0.75 -0.078125 2.109375l0.078125 0q0.984375 -1.53125 2.984375 -1.53125q1.859375 0 2.921875 1.390625q1.0625 1.390625 1.0625 3.875q0 2.5 -1.0625 3.90625q-1.0625 1.390625 -2.921875 1.390625q-1.921875 0 -2.984375 -1.484375zm0 -3.8125q0 2.109375 0.640625 3.0q0.640625 0.890625 2.0625 0.890625q2.515625 0 2.515625 -3.90625q0 -3.84375 -2.546875 -3.84375q-1.4375 0 -2.0625 0.875q-0.609375 0.859375 -0.609375 2.984375zm17.867432 -4.84375l-0.453125 1.53125q-1.140625 -0.40625 -2.078125 -0.40625q-1.515625 0 -2.34375 0.859375q-0.8125 0.859375 -0.8125 2.46875l0 5.5l-1.6875 0l0 -10.1875l1.375 0l0.203125 1.859375l0.0625 0q0.71875 -1.09375 1.515625 -1.5625q0.8125 -0.484375 1.984375 -0.484375q1.09375 0 2.234375 0.421875zm4.0081177 5.640625l0 -1.5625l6.125 0l0 1.5625l-6.125 0zm14.429932 -10.0625q0.984375 0 0.984375 1.046875q0 0.546875 -0.296875 0.8125q-0.296875 0.265625 -0.6875 0.265625q-1.0 0 -1.0 -1.078125q0 -1.046875 1.0 -1.046875zm-0.859375 5.53125l-2.484375 -0.203125l0 -1.140625l4.171875 0l0 8.859375l3.265625 0.1875l0 1.140625l-8.140625 0l0 -1.140625l3.1875 -0.1875l0 -7.515625zm14.414307 8.84375l0 -6.5625q0 -2.40625 -2.21875 -2.40625q-2.84375 0 -2.84375 3.6875l0 5.28125l-1.6875 0l0 -10.1875l1.359375 0l0.25 1.375l0.09375 0q0.953125 -1.5625 3.125 -1.5625q3.609375 0 3.609375 3.71875l0 6.65625l-1.6875 0zm12.429932 -1.390625l0 1.28125q-1.21875 0.296875 -2.34375 0.296875q-3.359375 0 -3.359375 -3.1875l0 -5.921875l-2.46875 0l0 -0.859375l2.46875 -0.46875l0.71875 -2.65625l0.96875 0l0 2.71875l4.0625 0l0 1.265625l-4.0625 0l0 5.921875q0 1.796875 1.78125 1.796875q0.859375 0 2.234375 -0.1875z" fill-rule="nonzero"></path><path fill="#cfe2f3" d="m633.911 233.73877l168.47241 0l0 69.13385l-168.47241 0z" fill-rule="nonzero"></path><path stroke="#000000" stroke-width="2.0" stroke-linejoin="round" stroke-linecap="butt" d="m633.911 233.73877l168.47241 0l0 69.13385l-168.47241 0z" fill-rule="nonzero"></path><path fill="#000000" d="m693.3146 273.9288l-0.109375 0l-0.34375 1.296875l-1.234375 0l0 -14.4375l1.6875 0l0 3.484375q0 0.75 -0.078125 2.109375l0.078125 0q0.984375 -1.53125 2.984375 -1.53125q1.859375 0 2.921875 1.390625q1.0625 1.390625 1.0625 3.875q0 2.5 -1.0625 3.90625q-1.0625 1.390625 -2.921875 1.390625q-1.921875 0 -2.984375 -1.484375zm0 -3.8125q0 2.109375 0.640625 3.0q0.640625 0.890625 2.0625 0.890625q2.515625 0 2.515625 -3.90625q0 -3.84375 -2.546875 -3.84375q-1.4375 0 -2.0625 0.875q-0.609375 0.859375 -0.609375 2.984375zm17.867432 -4.84375l-0.453125 1.53125q-1.140625 -0.40625 -2.078125 -0.40625q-1.515625 0 -2.34375 0.859375q-0.8125 0.859375 -0.8125 2.46875l0 5.5l-1.6875 0l0 -10.1875l1.375 0l0.203125 1.859375l0.0625 0q0.71875 -1.09375 1.515625 -1.5625q0.8125 -0.484375 1.984375 -0.484375q1.09375 0 2.234375 0.421875zm4.0080566 5.640625l0 -1.5625l6.125 0l0 1.5625l-6.125 0zm18.726807 -0.453125l-7.1875 0q0.078125 3.46875 3.1875 3.46875q1.8125 0 3.4375 -0.703125l0 1.484375q-1.53125 0.703125 -3.375 0.703125q-2.265625 0 -3.640625 -1.390625q-1.359375 -1.390625 -1.359375 -3.8125q0 -2.46875 1.25 -3.90625q1.265625 -1.453125 3.375 -1.453125q1.96875 0 3.140625 1.25q1.171875 1.234375 1.171875 3.3125l0 1.046875zm-7.140625 -1.375l5.3125 0q0 -2.828125 -2.53125 -2.828125q-2.546875 0 -2.78125 2.828125zm12.898743 0.921875l-3.65625 -4.96875l1.921875 0l2.703125 3.796875l2.6875 -3.796875l1.921875 0l-3.65625 4.96875l3.828125 5.21875l-1.90625 0l-2.875 -4.046875l-2.890625 4.046875l-1.921875 0l3.84375 -5.21875z" fill-rule="nonzero"></path><path fill="#f3f3f3" d="m594.1365 73.11602l0 0c-2.4174194 -8.6734085 5.51947 -17.259556 20.44281 -22.115025c14.92334 -4.8554688 34.21588 -5.1287155 49.69104 -0.70378876l0 0c5.4818115 -5.0430794 15.515076 -8.524979 27.064941 -9.392487c11.549866 -0.86751175 23.259766 0.9812584 31.587708 4.987091l0 0c4.6698 -4.57238 13.838928 -7.644436 24.253845 -8.126041c10.414917 -0.48160553 20.601501 1.6953964 26.94513 5.7584953l0 0c8.4366455 -4.84671 21.859558 -6.8873787 34.46051 -5.238991c12.601013 1.6483841 22.116821 6.6897583 24.429993 12.942688l0 0c10.336304 1.3764839 18.946228 4.8756943 23.605225 9.593548c4.6589966 4.7178497 4.910095 10.191536 0.6883545 15.006821l0 0c10.178223 6.467453 12.559143 15.085266 6.2542725 22.637413c-6.3048706 7.552147 -20.348328 12.904007 -36.889587 14.058357c-0.11657715 7.0879593 -8.078674 13.591789 -20.817383 17.004616c-12.7387085 3.4128418 -28.26477 3.2017517 -40.59381 -0.5518799c-5.251465 8.489059 -20.032715 14.735214 -37.957703 16.039917c-17.924927 1.3047028 -35.78015 -2.5659485 -45.851562 -9.939697c-12.345459 3.634552 -27.158936 4.681549 -41.098877 2.9048157c-13.939941 -1.7767334 -25.832092 -6.227539 -32.993835 -12.348389l0 0c-12.6154785 0.7207489 -24.812927 -2.470314 -30.538757 -7.989464c-5.72583 -5.5191574 -3.7611694 -12.191513 4.9189453 -16.705605l0 0c-11.253357 -3.233673 -16.995483 -9.650368 -14.232117 -15.904015c2.7633667 -6.253647 13.406067 -10.927162 26.378296 -11.583473z" fill-rule="nonzero"></path><path stroke="#000000" stroke-width="2.0" stroke-linejoin="round" stroke-linecap="butt" d="m594.1365 73.11602l0 0c-2.4174194 -8.6734085 5.51947 -17.259556 20.44281 -22.115025c14.92334 -4.8554688 34.21588 -5.1287155 49.69104 -0.70378876l0 0c5.4818115 -5.0430794 15.515076 -8.524979 27.064941 -9.392487c11.549866 -0.86751175 23.259766 0.9812584 31.587708 4.987091l0 0c4.6698 -4.57238 13.838928 -7.644436 24.253845 -8.126041c10.414917 -0.48160553 20.601501 1.6953964 26.94513 5.7584953l0 0c8.4366455 -4.84671 21.859558 -6.8873787 34.46051 -5.238991c12.601013 1.6483841 22.116821 6.6897583 24.429993 12.942688l0 0c10.336304 1.3764839 18.946228 4.8756943 23.605225 9.593548c4.6589966 4.7178497 4.910095 10.191536 0.6883545 15.006821l0 0c10.178223 6.467453 12.559143 15.085266 6.2542725 22.637413c-6.3048706 7.552147 -20.348328 12.904007 -36.889587 14.058357c-0.11657715 7.0879593 -8.078674 13.591789 -20.817383 17.004616c-12.7387085 3.4128418 -28.26477 3.2017517 -40.59381 -0.5518799c-5.251465 8.489059 -20.032715 14.735214 -37.957703 16.039917c-17.924927 1.3047028 -35.78015 -2.5659485 -45.851562 -9.939697c-12.345459 3.634552 -27.158936 4.681549 -41.098877 2.9048157c-13.939941 -1.7767334 -25.832092 -6.227539 -32.993835 -12.348389l0 0c-12.6154785 0.7207489 -24.812927 -2.470314 -30.538757 -7.989464c-5.72583 -5.5191574 -3.7611694 -12.191513 4.9189453 -16.705605l0 0c-11.253357 -3.233673 -16.995483 -9.650368 -14.232117 -15.904015c2.7633667 -6.253647 13.406067 -10.927162 26.378296 -11.583473z" fill-rule="nonzero"></path><path fill="#000000" fill-opacity="0.0" d="m581.7409 100.9378l0 0c5.310486 1.5259857 11.445374 2.2182007 17.580872 1.9837265m8.036194 22.711899c2.6385498 -0.15074158 5.2247314 -0.46995544 7.6920166 -0.9494171m66.39697 10.392593c-1.8557129 -1.3586884 -3.4094849 -2.8105469 -4.6347046 -4.3308716m88.447205 -1.7696075l0 0c0.9574585 -1.5476837 1.5777588 -3.1405869 1.850647 -4.7521286m59.558228 -11.700005c0.12414551 -7.5462265 -8.654907 -14.455635 -22.566223 -17.760422m53.201233 -18.934563c-2.2529297 2.5696335 -5.6921997 4.849121 -10.048218 6.659729m-14.243286 -31.260769l0 0c0.38391113 1.037674 0.56152344 2.0909462 0.5305176 3.145214m-59.419983 -10.848595l0 0c-2.1044922 1.2090111 -3.8383179 2.56007 -5.147522 4.011101m-46.05194 -1.6440849l0 0c-1.121521 1.0981369 -1.9589844 2.2601547 -2.493164 3.4592857m-56.16034 0.9462013l0 0c3.2745972 0.9363098 6.303955 2.063263 9.0216675 3.3560982m-79.1546 19.462837l0 0c0.33319092 1.1954193 0.8596802 2.3761063 1.5744629 3.5309982" fill-rule="nonzero"></path><path stroke="#000000" stroke-width="2.0" stroke-linejoin="round" stroke-linecap="butt" d="m581.7409 100.9378l0 0c5.310486 1.5259857 11.445374 2.2182007 17.580872 1.9837265m8.036194 22.711899c2.6385498 -0.15074158 5.2247314 -0.46995544 7.6920166 -0.9494171m66.39697 10.392593c-1.8557129 -1.3586884 -3.4094849 -2.8105469 -4.6347046 -4.3308716m88.447205 -1.7696075l0 0c0.9574585 -1.5476837 1.5777588 -3.1405869 1.850647 -4.7521286m59.558228 -11.700005c0.12414551 -7.5462265 -8.654907 -14.455635 -22.566223 -17.760422m53.201233 -18.934563c-2.2529297 2.5696335 -5.6921997 4.849121 -10.048218 6.659729m-14.243286 -31.260769l0 0c0.38391113 1.037674 0.56152344 2.0909462 0.5305176 3.145214m-59.419983 -10.848595l0 0c-2.1044922 1.2090111 -3.8383179 2.56007 -5.147522 4.011101m-46.05194 -1.6440849l0 0c-1.121521 1.0981369 -1.9589844 2.2601547 -2.493164 3.4592857m-56.16034 0.9462013l0 0c3.2745972 0.9363098 6.303955 2.063263 9.0216675 3.3560982m-79.1546 19.462837l0 0c0.33319092 1.1954193 0.8596802 2.3761063 1.5744629 3.5309982" fill-rule="nonzero"></path><path fill="#000000" fill-opacity="0.0" d="m718.1472 233.73877l-1.1652832 -88.98006" fill-rule="nonzero"></path><path stroke="#000000" stroke-width="2.0" stroke-linejoin="round" stroke-linecap="butt" d="m718.1472 233.73877l-1.1652832 -88.98006" fill-rule="nonzero"></path><path fill="#000000" fill-opacity="0.0" d="m864.0086 482.39108l-138.42682 82.66763" fill-rule="nonzero"></path><path stroke="#000000" stroke-width="2.0" stroke-linejoin="round" stroke-linecap="butt" d="m864.0086 482.39108l-138.42682 82.66763" fill-rule="nonzero"></path><path fill="#d9d2e9" d="m801.7034 236.03467l0 0c0 -14.962723 12.129639 -27.092407 27.092407 -27.092407l108.36633 0l0 0c7.185364 0 14.076416 2.85437 19.157227 7.9351807c5.0808105 5.0808105 7.9351807 11.971863 7.9351807 19.157227l0 150.13016c0 14.9627075 -12.129639 27.092407 -27.092407 27.092407l-108.36633 0c-14.962769 0 -27.092407 -12.1297 -27.092407 -27.092407z" fill-rule="nonzero"></path><path stroke="#000000" stroke-width="2.0" stroke-linejoin="round" stroke-linecap="butt" d="m801.7034 236.03467l0 0c0 -14.962723 12.129639 -27.092407 27.092407 -27.092407l108.36633 0l0 0c7.185364 0 14.076416 2.85437 19.157227 7.9351807c5.0808105 5.0808105 7.9351807 11.971863 7.9351807 19.157227l0 150.13016c0 14.9627075 -12.129639 27.092407 -27.092407 27.092407l-108.36633 0c-14.962769 0 -27.092407 -12.1297 -27.092407 -27.092407z" fill-rule="nonzero"></path><path fill="#000000" d="m835.25116 309.20724l0.078125 0l0.25 -1.375l1.359375 0l0 14.75l-1.6875 0l0 -4.34375q0 -0.390625 0.109375 -1.578125l-0.109375 0q-1.046875 1.546875 -2.984375 1.546875q-1.875 0 -2.9375 -1.390625q-1.0625 -1.390625 -1.0625 -3.875q0 -2.5 1.0625 -3.890625q1.078125 -1.40625 2.9375 -1.40625q1.921875 0 2.984375 1.5625zm0 4.125l0 -0.390625q0 -2.109375 -0.65625 -3.0q-0.640625 -0.890625 -2.046875 -0.890625q-2.515625 0 -2.515625 3.90625q0 3.84375 2.53125 3.84375q1.421875 0 2.03125 -0.8125q0.609375 -0.828125 0.65625 -2.65625zm12.773682 -5.265625l-0.453125 1.53125q-1.140625 -0.40625 -2.078125 -0.40625q-1.515625 0 -2.34375 0.859375q-0.8125 0.859375 -0.8125 2.46875l0 5.5l-1.6875 0l0 -10.1875l1.375 0l0.203125 1.859375l0.0625 0q0.71875 -1.09375 1.515625 -1.5625q0.8125 -0.484375 1.984375 -0.484375q1.09375 0 2.234375 0.421875zm7.0236816 10.140625q-2.0 0 -3.296875 -1.4375q-1.296875 -1.453125 -1.296875 -3.859375q0 -2.4375 1.25 -3.84375q1.265625 -1.421875 3.40625 -1.421875q2.015625 0 3.296875 1.4375q1.296875 1.4375 1.296875 3.828125q0 2.453125 -1.265625 3.875q-1.265625 1.421875 -3.390625 1.421875zm0.046875 -1.40625q2.875 0 2.875 -3.890625q0 -3.859375 -2.90625 -3.859375q-2.859375 0 -2.859375 3.859375q0 3.890625 2.890625 3.890625zm14.039307 1.21875l-0.25 -1.359375l-0.09375 0q-0.96875 1.546875 -3.09375 1.546875q-3.625 0 -3.625 -3.71875l0 -6.65625l1.6875 0l0 6.5625q0 2.40625 2.1875 2.40625q1.5 0 2.1875 -0.859375q0.6875 -0.859375 0.6875 -2.828125l0 -5.28125l1.6875 0l0 10.1875l-1.375 0zm12.117493 -1.390625l0 1.28125q-1.21875 0.296875 -2.34375 0.296875q-3.359375 0 -3.359375 -3.1875l0 -5.921875l-2.46875 0l0 -0.859375l2.46875 -0.46875l0.71875 -2.65625l0.96875 0l0 2.71875l4.0625 0l0 1.265625l-4.0625 0l0 5.921875q0 1.796875 1.78125 1.796875q0.859375 0 2.234375 -0.1875zm11.898682 -3.375l-7.1875 0q0.078125 3.46875 3.1875 3.46875q1.8125 0 3.4375 -0.703125l0 1.484375q-1.53125 0.703125 -3.375 0.703125q-2.265625 0 -3.640625 -1.390625q-1.359375 -1.390625 -1.359375 -3.8125q0 -2.46875 1.25 -3.90625q1.265625 -1.453125 3.375 -1.453125q1.96875 0 3.140625 1.25q1.171875 1.234375 1.171875 3.3125l0 1.046875zm-7.140625 -1.375l5.3125 0q0 -2.828125 -2.53125 -2.828125q-2.546875 0 -2.78125 2.828125zm17.992432 -3.8125l-0.453125 1.53125q-1.140625 -0.40625 -2.078125 -0.40625q-1.515625 0 -2.34375 0.859375q-0.8125 0.859375 -0.8125 2.46875l0 5.5l-1.6875 0l0 -10.1875l1.375 0l0.203125 1.859375l0.0625 0q0.71875 -1.09375 1.515625 -1.5625q0.8125 -0.484375 1.984375 -0.484375q1.09375 0 2.234375 0.421875zm7.0705566 7.15625q1.40625 0 1.40625 1.546875q0 1.53125 -1.40625 1.53125q-1.40625 0 -1.40625 -1.53125q0 -1.546875 1.40625 -1.546875zm11.195618 0q1.40625 0 1.40625 1.546875q0 1.53125 -1.40625 1.53125q-1.40625 0 -1.40625 -1.53125q0 -1.546875 1.40625 -1.546875zm11.195557 0q1.40625 0 1.40625 1.546875q0 1.53125 -1.40625 1.53125q-1.40625 0 -1.40625 -1.53125q0 -1.546875 1.40625 -1.546875z" fill-rule="nonzero"></path><path fill="#d9d2e9" d="m993.7034 236.03467l0 0c0 -14.962723 12.129639 -27.092407 27.092407 -27.092407l108.366394 0l0 0c7.1853027 0 14.076416 2.85437 19.157227 7.9351807c5.0808105 5.0808105 7.9351807 11.971863 7.9351807 19.157227l0 150.13016c0 14.9627075 -12.129761 27.092407 -27.092407 27.092407l-108.366394 0c-14.962769 0 -27.092407 -12.1297 -27.092407 -27.092407z" fill-rule="nonzero"></path><path stroke="#000000" stroke-width="2.0" stroke-linejoin="round" stroke-linecap="butt" d="m993.7034 236.03467l0 0c0 -14.962723 12.129639 -27.092407 27.092407 -27.092407l108.366394 0l0 0c7.1853027 0 14.076416 2.85437 19.157227 7.9351807c5.0808105 5.0808105 7.9351807 11.971863 7.9351807 19.157227l0 150.13016c0 14.9627075 -12.129761 27.092407 -27.092407 27.092407l-108.366394 0c-14.962769 0 -27.092407 -12.1297 -27.092407 -27.092407z" fill-rule="nonzero"></path><path fill="#000000" d="m1038.4467 309.20724l0.078125 0l0.25 -1.375l1.359375 0l0 14.75l-1.6875 0l0 -4.34375q0 -0.390625 0.109375 -1.578125l-0.109375 0q-1.046875 1.546875 -2.984375 1.546875q-1.875 0 -2.9375 -1.390625q-1.0625 -1.390625 -1.0625 -3.875q0 -2.5 1.0625 -3.890625q1.078125 -1.40625 2.9375 -1.40625q1.921875 0 2.984375 1.5625zm0 4.125l0 -0.390625q0 -2.109375 -0.65625 -3.0q-0.640625 -0.890625 -2.046875 -0.890625q-2.515625 0 -2.515625 3.90625q0 3.84375 2.53125 3.84375q1.421875 0 2.03125 -0.8125q0.609375 -0.828125 0.65625 -2.65625zm11.273804 3.328125l-0.078125 0q-1.046875 1.546875 -2.984375 1.546875q-1.875 0 -2.9375 -1.390625q-1.0625 -1.390625 -1.0625 -3.875q0 -2.5 1.0625 -3.890625q1.078125 -1.40625 2.9375 -1.40625q1.90625 0 2.984375 1.484375l0.109375 0q-0.109375 -1.1875 -0.109375 -1.5l0 -4.046875l1.6875 0l0 14.4375l-1.359375 0l-0.25 -1.359375zm-0.078125 -3.328125l0 -0.390625q0 -2.109375 -0.65625 -3.0q-0.640625 -0.890625 -2.046875 -0.890625q-2.515625 0 -2.515625 3.90625q0 3.84375 2.53125 3.84375q1.421875 0 2.03125 -0.8125q0.609375 -0.828125 0.65625 -2.65625zm11.179932 4.6875l0 -6.5625q0 -2.40625 -2.21875 -2.40625q-2.84375 0 -2.84375 3.6875l0 5.28125l-1.6875 0l0 -14.4375l1.6875 0l0 4.28125l-0.078125 1.34375l0.09375 0q0.953125 -1.5625 3.125 -1.5625q3.609375 0 3.609375 3.71875l0 6.65625l-1.6875 0zm12.804932 -9.828125l-0.578125 1.46875q-1.390625 -0.53125 -2.484375 -0.53125q-3.4375 0 -3.4375 3.828125q0 3.765625 3.34375 3.765625q1.453125 0 2.984375 -0.5625l0 1.484375q-1.25 0.5625 -3.0625 0.5625q-2.375 0 -3.703125 -1.34375q-1.3125 -1.359375 -1.3125 -3.875q0 -2.609375 1.34375 -3.96875q1.34375 -1.375 3.78125 -1.375q1.65625 0 3.125 0.546875zm4.5080566 8.53125l-0.109375 0q0.109375 1.203125 0.109375 1.515625l0 4.34375l-1.6875 0l0 -14.75l1.359375 0l0.25 1.375l0.078125 0q1.015625 -1.5625 2.984375 -1.5625q1.859375 0 2.921875 1.390625q1.0625 1.390625 1.0625 3.875q0 2.5 -1.0625 3.90625q-1.0625 1.390625 -2.921875 1.390625q-1.921875 0 -2.984375 -1.484375zm0 -4.203125l0 0.390625q0 2.109375 0.640625 3.0q0.640625 0.890625 2.0625 0.890625q2.515625 0 2.515625 -3.90625q0 -3.84375 -2.546875 -3.84375q-1.40625 0 -2.03125 0.8125q-0.609375 0.8125 -0.640625 2.65625zm13.742432 2.703125q1.40625 0 1.40625 1.546875q0 1.53125 -1.40625 1.53125q-1.40625 0 -1.40625 -1.53125q0 -1.546875 1.40625 -1.546875zm11.195557 0q1.40625 0 1.40625 1.546875q0 1.53125 -1.40625 1.53125q-1.40625 0 -1.40625 -1.53125q0 -1.546875 1.40625 -1.546875zm11.195557 0q1.40625 0 1.40625 1.546875q0 1.53125 -1.40625 1.53125q-1.40625 0 -1.40625 -1.53125q0 -1.546875 1.40625 -1.546875z" fill-rule="nonzero"></path><path fill="#f6b26b" d="m108.28871 178.04987l31.874023 0l0 31.874023l-31.874023 0z" fill-rule="nonzero"></path><path stroke="#000000" stroke-width="2.0" stroke-linejoin="round" stroke-linecap="butt" d="m108.28871 178.04987l31.874023 0l0 31.874023l-31.874023 0z" fill-rule="nonzero"></path><path fill="#000000" d="m117.25746 200.90688l5.234375 -13.59375l1.9375 0l5.5625 13.59375l-2.046875 0l-1.59375 -4.125l-5.6875 0l-1.484375 4.125l-1.921875 0zm3.921875 -5.578125l4.609375 0l-1.40625 -3.78125q-0.65625 -1.703125 -0.96875 -2.8125q-0.265625 1.3125 -0.734375 2.59375l-1.5 4.0z" fill-rule="nonzero"></path><path fill="#f6b26b" d="m108.28871 234.04987l31.874023 0l0 31.874023l-31.874023 0z" fill-rule="nonzero"></path><path stroke="#000000" stroke-width="2.0" stroke-linejoin="round" stroke-linecap="butt" d="m108.28871 234.04987l31.874023 0l0 31.874023l-31.874023 0z" fill-rule="nonzero"></path><path fill="#000000" d="m118.67934 256.90686l0 -13.593735l5.109375 0q1.546875 0 2.484375 0.40625q0.953125 0.40625 1.484375 1.265625q0.53125 0.859375 0.53125 1.796875q0 0.875 -0.46875 1.65625q-0.46875 0.765625 -1.4375 1.234375q1.234375 0.359375 1.890625 1.234375q0.671875 0.875 0.671875 2.0625q0 0.953125 -0.40625 1.78125q-0.390625 0.8125 -0.984375 1.2656097q-0.59375 0.4375 -1.5 0.671875q-0.890625 0.21875 -2.1875 0.21875l-5.1875 0zm1.796875 -7.8906097l2.9375 0q1.203125 0 1.71875 -0.15625q0.6875 -0.203125 1.03125 -0.671875q0.359375 -0.46875 0.359375 -1.1875q0 -0.671875 -0.328125 -1.1875q-0.328125 -0.515625 -0.9375 -0.703125q-0.59375 -0.203125 -2.0625 -0.203125l-2.71875 0l0 4.109375zm0 6.28125l3.390625 0q0.875 0 1.21875 -0.0625q0.625 -0.109375 1.046875 -0.359375q0.421875 -0.265625 0.6875 -0.765625q0.265625 -0.5 0.265625 -1.140625q0 -0.765625 -0.390625 -1.328125q-0.390625 -0.5625 -1.078125 -0.78125q-0.6875 -0.234375 -1.984375 -0.234375l-3.15625 0l0 4.671875z" fill-rule="nonzero"></path><path fill="#f6b26b" d="m108.28871 306.04987l31.874023 0l0 31.874023l-31.874023 0z" fill-rule="nonzero"></path><path stroke="#000000" stroke-width="2.0" stroke-linejoin="round" stroke-linecap="butt" d="m108.28871 306.04987l31.874023 0l0 31.874023l-31.874023 0z" fill-rule="nonzero"></path><path fill="#000000" d="m128.46059 324.14124l1.796875 0.453125q-0.5625 2.21875 -2.03125 3.390625q-1.46875 1.15625 -3.59375 1.15625q-2.203125 0 -3.578125 -0.890625q-1.375 -0.90625 -2.09375 -2.59375q-0.71875 -1.703125 -0.71875 -3.65625q0 -2.125 0.796875 -3.703125q0.8125 -1.578125 2.3125 -2.390625q1.5 -0.828125 3.296875 -0.828125q2.046875 0 3.4375 1.046875q1.390625 1.03125 1.9375 2.90625l-1.765625 0.421875q-0.46875 -1.484375 -1.375 -2.15625q-0.90625 -0.6875 -2.265625 -0.6875q-1.5625 0 -2.625 0.75q-1.046875 0.75 -1.484375 2.03125q-0.421875 1.265625 -0.421875 2.609375q0 1.734375 0.5 3.03125q0.515625 1.28125 1.578125 1.921875q1.078125 0.640625 2.3125 0.640625q1.515625 0 2.5625 -0.859375q1.046875 -0.875 1.421875 -2.59375z" fill-rule="nonzero"></path><path fill="#f6b26b" d="m116.28871 394.04987l31.874023 0l0 31.874023l-31.874023 0z" fill-rule="nonzero"></path><path stroke="#000000" stroke-width="2.0" stroke-linejoin="round" stroke-linecap="butt" d="m116.28871 394.04987l31.874023 0l0 31.874023l-31.874023 0z" fill-rule="nonzero"></path><path fill="#000000" d="m126.75746 416.90686l0 -13.59375l4.6875 0q1.578125 0 2.421875 0.1875q1.15625 0.265625 1.984375 0.96875q1.078125 0.921875 1.609375 2.34375q0.53125 1.40625 0.53125 3.21875q0 1.546875 -0.359375 2.75q-0.359375 1.1875 -0.921875 1.984375q-0.5625 0.78125 -1.234375 1.234375q-0.671875 0.4375 -1.625 0.671875q-0.953125 0.234375 -2.1875 0.234375l-4.90625 0zm1.796875 -1.609375l2.90625 0q1.34375 0 2.109375 -0.25q0.765625 -0.25 1.21875 -0.703125q0.640625 -0.640625 1.0 -1.71875q0.359375 -1.078125 0.359375 -2.625q0 -2.125 -0.703125 -3.265625q-0.703125 -1.15625 -1.703125 -1.546875q-0.71875 -0.28125 -2.328125 -0.28125l-2.859375 0l0 10.390625z" fill-rule="nonzero"></path><path fill="#f6b26b" d="m196.28871 466.04987l31.874023 0l0 31.874023l-31.874023 0z" fill-rule="nonzero"></path><path stroke="#ff0000" stroke-width="3.0" stroke-linejoin="round" stroke-linecap="butt" d="m196.28871 466.04987l31.874023 0l0 31.874023l-31.874023 0z" fill-rule="nonzero"></path><path fill="#000000" d="m206.78871 488.90686l0 -13.59375l9.84375 0l0 1.59375l-8.046875 0l0 4.171875l7.53125 0l0 1.59375l-7.53125 0l0 4.625l8.359375 0l0 1.609375l-10.15625 0z" fill-rule="nonzero"></path><path fill="#f6b26b" d="m196.28871 554.04987l31.874023 0l0 31.874023l-31.874023 0z" fill-rule="nonzero"></path><path stroke="#ff0000" stroke-width="3.0" stroke-linejoin="round" stroke-linecap="butt" d="m196.28871 554.04987l31.874023 0l0 31.874023l-31.874023 0z" fill-rule="nonzero"></path><path fill="#000000" d="m206.85121 576.90686l0 -13.59375l9.171875 0l0 1.59375l-7.375 0l0 4.21875l6.375 0l0 1.609375l-6.375 0l0 6.171875l-1.796875 0z" fill-rule="nonzero"></path><path fill="#f6b26b" d="m356.28873 586.04987l31.873993 0l0 31.874023l-31.873993 0z" fill-rule="nonzero"></path><path stroke="#ff0000" stroke-width="3.0" stroke-linejoin="round" stroke-linecap="butt" d="m356.28873 586.04987l31.873993 0l0 31.874023l-31.873993 0z" fill-rule="nonzero"></path><path fill="#000000" d="m373.11685 603.57874l0 -1.609375l5.765625 0l0 5.046875q-1.328125 1.0625 -2.75 1.59375q-1.40625 0.53125 -2.890625 0.53125q-2.0 0 -3.640625 -0.859375q-1.625 -0.859375 -2.46875 -2.484375q-0.828125 -1.625 -0.828125 -3.625q0 -1.984375 0.828125 -3.703125q0.828125 -1.71875 2.390625 -2.546875q1.5625 -0.84375 3.59375 -0.84375q1.46875 0 2.65625 0.484375q1.203125 0.46875 1.875 1.328125q0.671875 0.84375 1.03125 2.21875l-1.625 0.4375q-0.3125 -1.03125 -0.765625 -1.625q-0.453125 -0.59375 -1.296875 -0.953125q-0.84375 -0.359375 -1.875 -0.359375q-1.234375 0 -2.140625 0.375q-0.890625 0.375 -1.453125 1.0q-0.546875 0.609375 -0.84375 1.34375q-0.53125 1.25 -0.53125 2.734375q0 1.8125 0.625 3.046875q0.640625 1.21875 1.828125 1.8125q1.203125 0.59375 2.546875 0.59375q1.171875 0 2.28125 -0.453125q1.109375 -0.453125 1.6875 -0.953125l0 -2.53125l-4.0 0z" fill-rule="nonzero"></path><path fill="#f6b26b" d="m548.2887 586.04987l31.874023 0l0 31.874023l-31.874023 0z" fill-rule="nonzero"></path><path stroke="#ff0000" stroke-width="3.0" stroke-linejoin="round" stroke-linecap="butt" d="m548.2887 586.04987l31.874023 0l0 31.874023l-31.874023 0z" fill-rule="nonzero"></path><path fill="#000000" d="m558.8043 608.90686l0 -13.59375l1.8125 0l0 5.578125l7.0625 0l0 -5.578125l1.796875 0l0 13.59375l-1.796875 0l0 -6.40625l-7.0625 0l0 6.40625l-1.8125 0z" fill-rule="nonzero"></path><path fill="#f6b26b" d="m716.2887 554.04987l31.874023 0l0 31.874023l-31.874023 0z" fill-rule="nonzero"></path><path stroke="#ff0000" stroke-width="3.0" stroke-linejoin="round" stroke-linecap="butt" d="m716.2887 554.04987l31.874023 0l0 31.874023l-31.874023 0z" fill-rule="nonzero"></path><path fill="#000000" d="m727.0543 576.90686l0 -13.59375l1.8125 0l0 13.59375l-1.8125 0z" fill-rule="nonzero"></path><path fill="#f6b26b" d="m844.2887 466.04987l31.874023 0l0 31.874023l-31.874023 0z" fill-rule="nonzero"></path><path stroke="#ff0000" stroke-width="3.0" stroke-linejoin="round" stroke-linecap="butt" d="m844.2887 466.04987l31.874023 0l0 31.874023l-31.874023 0z" fill-rule="nonzero"></path><path fill="#000000" d="m853.8356 485.0475l1.625 -0.21875q0.0625 1.546875 0.578125 2.125q0.53125 0.578125 1.4375 0.578125q0.6875 0 1.171875 -0.3125q0.5 -0.3125 0.671875 -0.84375q0.1875 -0.53125 0.1875 -1.703125l0 -9.359375l1.8125 0l0 9.265625q0 1.703125 -0.421875 2.640625q-0.40625 0.9375 -1.3125 1.4375q-0.890625 0.484375 -2.09375 0.484375q-1.796875 0 -2.75 -1.03125q-0.9375 -1.03125 -0.90625 -3.0625z" fill-rule="nonzero"></path><path fill="#f6b26b" d="m788.2887 250.04987l31.874023 0l0 31.874023l-31.874023 0z" fill-rule="nonzero"></path><path stroke="#000000" stroke-width="2.0" stroke-linejoin="round" stroke-linecap="butt" d="m788.2887 250.04987l31.874023 0l0 31.874023l-31.874023 0z" fill-rule="nonzero"></path><path fill="#000000" d="m798.6793 272.90686l0 -13.59375l1.796875 0l0 11.984375l6.703125 0l0 1.609375l-8.5 0z" fill-rule="nonzero"></path><path fill="#f6b26b" d="m868.2887 394.04987l31.874023 0l0 31.874023l-31.874023 0z" fill-rule="nonzero"></path><path stroke="#000000" stroke-width="2.0" stroke-linejoin="round" stroke-linecap="butt" d="m868.2887 394.04987l31.874023 0l0 31.874023l-31.874023 0z" fill-rule="nonzero"></path><path fill="#000000" d="m878.6793 416.90686l0 -13.59375l1.796875 0l0 6.734375l6.765625 -6.734375l2.4375 0l-5.703125 5.5l5.953125 8.09375l-2.375 0l-4.84375 -6.890625l-2.234375 2.171875l0 4.71875l-1.796875 0z" fill-rule="nonzero"></path><path fill="#f6b26b" d="m1060.2887 394.04987l31.874023 0l0 31.874023l-31.874023 0z" fill-rule="nonzero"></path><path stroke="#000000" stroke-width="2.0" stroke-linejoin="round" stroke-linecap="butt" d="m1060.2887 394.04987l31.874023 0l0 31.874023l-31.874023 0z" fill-rule="nonzero"></path><path fill="#000000" d="m1070.695 416.90686l0 -13.59375l2.71875 0l3.21875 9.625q0.4375 1.34375 0.640625 2.015625q0.234375 -0.75 0.734375 -2.1875l3.25 -9.453125l2.421875 0l0 13.59375l-1.734375 0l0 -11.390625l-3.953125 11.390625l-1.625 0l-3.9375 -11.578125l0 11.578125l-1.734375 0z" fill-rule="nonzero"></path><path fill="#f6b26b" d="m284.28873 394.04987l31.873993 0l0 31.874023l-31.873993 0z" fill-rule="nonzero"></path><path stroke="#000000" stroke-width="2.0" stroke-linejoin="round" stroke-linecap="butt" d="m284.28873 394.04987l31.873993 0l0 31.874023l-31.873993 0z" fill-rule="nonzero"></path><path fill="#f6b26b" d="m292.28873 306.04987l31.873993 0l0 31.874023l-31.873993 0z" fill-rule="nonzero"></path><path stroke="#000000" stroke-width="2.0" stroke-linejoin="round" stroke-linecap="butt" d="m292.28873 306.04987l31.873993 0l0 31.874023l-31.873993 0z" fill-rule="nonzero"></path><path fill="#f6b26b" d="m284.28873 234.04987l31.873993 0l0 31.874023l-31.873993 0z" fill-rule="nonzero"></path><path stroke="#000000" stroke-width="2.0" stroke-linejoin="round" stroke-linecap="butt" d="m284.28873 234.04987l31.873993 0l0 31.874023l-31.873993 0z" fill-rule="nonzero"></path><path fill="#f6b26b" d="m284.28873 178.04987l31.873993 0l0 31.874023l-31.873993 0z" fill-rule="nonzero"></path><path stroke="#000000" stroke-width="2.0" stroke-linejoin="round" stroke-linecap="butt" d="m284.28873 178.04987l31.873993 0l0 31.874023l-31.873993 0z" fill-rule="nonzero"></path><path fill="#000000" fill-opacity="0.0" d="m136.18373 25.115486l162.55116 0l0 48.0l-162.55116 0z" fill-rule="nonzero"></path><path fill="#000000" d="m163.7983 47.035484l2.671875 0.84375q-0.609375 2.21875 -2.046875 3.3125q-1.421875 1.078125 -3.609375 1.078125q-2.703125 0 -4.453125 -1.84375q-1.734375 -1.859375 -1.734375 -5.078125q0 -3.390625 1.75 -5.265625q1.75 -1.875 4.609375 -1.875q2.5 0 4.046875 1.46875q0.9375 0.875 1.390625 2.5l-2.71875 0.65625q-0.234375 -1.0625 -1.0 -1.671875q-0.765625 -0.609375 -1.859375 -0.609375q-1.515625 0 -2.453125 1.09375q-0.9375 1.078125 -0.9375 3.5q0 2.578125 0.921875 3.6875q0.921875 1.09375 2.40625 1.09375q1.109375 0 1.890625 -0.6875q0.78125 -0.703125 1.125 -2.203125zm4.160446 -0.0625q0 -1.296875 0.640625 -2.515625q0.640625 -1.21875 1.8125 -1.859375q1.171875 -0.640625 2.609375 -0.640625q2.25 0 3.671875 1.453125q1.421875 1.453125 1.421875 3.671875q0 2.234375 -1.4375 3.703125q-1.4375 1.46875 -3.625 1.46875q-1.359375 0 -2.59375 -0.609375q-1.21875 -0.609375 -1.859375 -1.796875q-0.640625 -1.1875 -0.640625 -2.875zm2.671875 0.140625q0 1.46875 0.6875 2.25q0.703125 0.765625 1.71875 0.765625q1.015625 0 1.703125 -0.765625q0.703125 -0.78125 0.703125 -2.265625q0 -1.453125 -0.703125 -2.234375q-0.6875 -0.78125 -1.703125 -0.78125q-1.015625 0 -1.71875 0.78125q-0.6875 0.78125 -0.6875 2.25zm9.130356 -4.9375l2.40625 0l0 1.359375q1.28125 -1.578125 3.0625 -1.578125q0.953125 0 1.640625 0.390625q0.703125 0.390625 1.140625 1.1875q0.65625 -0.796875 1.40625 -1.1875q0.75 -0.390625 1.609375 -0.390625q1.078125 0 1.828125 0.453125q0.75 0.4375 1.125 1.28125q0.265625 0.640625 0.265625 2.046875l0 6.296875l-2.609375 0l0 -5.625q0 -1.46875 -0.265625 -1.90625q-0.359375 -0.546875 -1.109375 -0.546875q-0.546875 0 -1.03125 0.34375q-0.484375 0.328125 -0.703125 0.96875q-0.203125 0.640625 -0.203125 2.03125l0 4.734375l-2.609375 0l0 -5.40625q0 -1.4375 -0.140625 -1.84375q-0.140625 -0.421875 -0.4375 -0.625q-0.28125 -0.203125 -0.78125 -0.203125q-0.609375 0 -1.09375 0.328125q-0.484375 0.3125 -0.6875 0.9375q-0.203125 0.609375 -0.203125 2.03125l0 4.78125l-2.609375 0l0 -9.859375zm16.713394 0l2.421875 0l0 1.453125q0.46875 -0.734375 1.28125 -1.203125q0.8125 -0.46875 1.796875 -0.46875q1.703125 0 2.90625 1.34375q1.203125 1.34375 1.203125 3.75q0 2.46875 -1.21875 3.84375q-1.203125 1.359375 -2.921875 1.359375q-0.8125 0 -1.484375 -0.3125q-0.65625 -0.328125 -1.390625 -1.125l0 4.96875l-2.59375 0l0 -13.609375zm2.578125 4.765625q0 1.65625 0.65625 2.453125q0.65625 0.796875 1.59375 0.796875q0.921875 0 1.515625 -0.71875q0.609375 -0.734375 0.609375 -2.40625q0 -1.546875 -0.625 -2.296875q-0.625 -0.75 -1.53125 -0.75q-0.96875 0 -1.59375 0.734375q-0.625 0.734375 -0.625 2.1875zm15.364731 5.09375l0 -1.46875q-0.53125 0.78125 -1.40625 1.234375q-0.875 0.453125 -1.859375 0.453125q-0.984375 0 -1.78125 -0.4375q-0.78125 -0.4375 -1.140625 -1.21875q-0.34375 -0.796875 -0.34375 -2.1875l0 -6.234375l2.609375 0l0 4.53125q0 2.078125 0.140625 2.546875q0.140625 0.46875 0.515625 0.75q0.390625 0.265625 0.96875 0.265625q0.671875 0 1.203125 -0.359375q0.53125 -0.375 0.71875 -0.90625q0.1875 -0.546875 0.1875 -2.671875l0 -4.15625l2.609375 0l0 9.859375l-2.421875 0zm9.427231 -9.859375l0 2.078125l-1.78125 0l0 3.984375q0 1.203125 0.046875 1.40625q0.0625 0.1875 0.234375 0.328125q0.1875 0.125 0.453125 0.125q0.359375 0 1.046875 -0.25l0.21875 2.015625q-0.90625 0.390625 -2.0625 0.390625q-0.703125 0 -1.265625 -0.234375q-0.5625 -0.234375 -0.828125 -0.609375q-0.265625 -0.375 -0.375 -1.015625q-0.078125 -0.453125 -0.078125 -1.84375l0 -4.296875l-1.203125 0l0 -2.078125l1.203125 0l0 -1.953125l2.609375 -1.515625l0 3.46875l1.78125 0zm7.400177 6.71875l2.609375 0.4375q-0.5 1.4375 -1.59375 2.1875q-1.078125 0.734375 -2.703125 0.734375q-2.5625 0 -3.796875 -1.671875q-0.96875 -1.34375 -0.96875 -3.40625q0 -2.4375 1.265625 -3.828125q1.28125 -1.390625 3.25 -1.390625q2.1875 0 3.453125 1.453125q1.28125 1.453125 1.234375 4.453125l-6.53125 0q0.015625 1.15625 0.625 1.8125q0.609375 0.640625 1.5 0.640625q0.609375 0 1.03125 -0.328125q0.421875 -0.34375 0.625 -1.09375zm0.15625 -2.625q-0.03125 -1.140625 -0.59375 -1.71875q-0.546875 -0.59375 -1.34375 -0.59375q-0.859375 0 -1.40625 0.625q-0.5625 0.609375 -0.546875 1.6875l3.890625 0zm9.730896 5.765625l0 -13.59375l2.75 0l0 5.34375l5.375 0l0 -5.34375l2.75 0l0 13.59375l-2.75 0l0 -5.953125l-5.375 0l0 5.953125l-2.75 0zm12.847946 -5.0625q0 -1.296875 0.640625 -2.515625q0.640625 -1.21875 1.8124847 -1.859375q1.171875 -0.640625 2.609375 -0.640625q2.25 0 3.671875 1.453125q1.421875 1.453125 1.421875 3.671875q0 2.234375 -1.4375 3.703125q-1.4375 1.46875 -3.625 1.46875q-1.359375 0 -2.59375 -0.609375q-1.2187347 -0.609375 -1.8593597 -1.796875q-0.640625 -1.1875 -0.640625 -2.875zm2.6718597 0.140625q0 1.46875 0.6875 2.25q0.703125 0.765625 1.71875 0.765625q1.015625 0 1.703125 -0.765625q0.703125 -0.78125 0.703125 -2.265625q0 -1.453125 -0.703125 -2.234375q-0.6875 -0.78125 -1.703125 -0.78125q-1.015625 0 -1.71875 0.78125q-0.6875 0.78125 -0.6875 2.25zm8.411621 2.109375l2.609375 -0.390625q0.171875 0.75 0.671875 1.15625q0.515625 0.390625 1.4375 0.390625q1.0 0 1.515625 -0.375q0.34375 -0.265625 0.34375 -0.703125q0 -0.296875 -0.1875 -0.484375q-0.1875 -0.1875 -0.875 -0.34375q-3.140625 -0.703125 -4.0 -1.265625q-1.15625 -0.796875 -1.15625 -2.21875q0 -1.28125 1.0 -2.15625q1.015625 -0.875 3.140625 -0.875q2.03125 0 3.0 0.65625q0.984375 0.65625 1.359375 1.953125l-2.453125 0.453125q-0.15625 -0.578125 -0.609375 -0.875q-0.4375 -0.3125 -1.25 -0.3125q-1.03125 0 -1.46875 0.296875q-0.296875 0.203125 -0.296875 0.515625q0 0.28125 0.25 0.484375q0.359375 0.25 2.4375 0.734375q2.078125 0.46875 2.90625 1.15625q0.828125 0.6875 0.828125 1.9375q0 1.359375 -1.140625 2.328125q-1.125 0.96875 -3.34375 0.96875q-2.015625 0 -3.1875 -0.8125q-1.171875 -0.8125 -1.53125 -2.21875zm15.797577 -7.046875l0 2.078125l-1.78125 0l0 3.984375q0 1.203125 0.046875 1.40625q0.0625 0.1875 0.234375 0.328125q0.1875 0.125 0.453125 0.125q0.359375 0 1.046875 -0.25l0.21875 2.015625q-0.90625 0.390625 -2.0625 0.390625q-0.703125 0 -1.265625 -0.234375q-0.5625 -0.234375 -0.828125 -0.609375q-0.265625 -0.375 -0.375 -1.015625q-0.078125 -0.453125 -0.078125 -1.84375l0 -4.296875l-1.203125 0l0 -2.078125l1.203125 0l0 -1.953125l2.609375 -1.515625l0 3.46875l1.78125 0z" fill-rule="nonzero"></path><path fill="#000000" fill-opacity="0.0" d="m974.105 586.04987l168.72437 0l0 48.0l-168.72437 0z" fill-rule="nonzero"></path><path fill="#000000" d="m1000.79834 612.96985l0 -13.59375l2.671875 0l5.578125 9.078125l0 -9.078125l2.546875 0l0 13.59375l-2.765625 0l-5.46875 -8.875l0 8.875l-2.5625 0zm19.129211 -3.140625l2.609375 0.4375q-0.5 1.4375 -1.59375 2.1875q-1.078125 0.734375 -2.703125 0.734375q-2.5625 0 -3.796875 -1.671875q-0.96875 -1.34375 -0.96875 -3.40625q0 -2.4375 1.265625 -3.828125q1.28125 -1.390625 3.25 -1.390625q2.1875 0 3.453125 1.453125q1.28125 1.453125 1.234375 4.453125l-6.53125 0q0.015625 1.15625 0.625 1.8125q0.609375 0.640625 1.5 0.640625q0.609375 0 1.03125 -0.328125q0.421875 -0.34375 0.625 -1.09375zm0.15625 -2.625q-0.03125 -1.140625 -0.59375 -1.71875q-0.546875 -0.59375 -1.34375 -0.59375q-0.859375 0 -1.40625 0.625q-0.5625 0.609375 -0.546875 1.6875l3.890625 0zm11.000671 5.765625l0 -1.46875q-0.53125 0.78125 -1.40625 1.234375q-0.875 0.453125 -1.859375 0.453125q-0.984375 0 -1.78125 -0.4375q-0.78125 -0.4375 -1.140625 -1.21875q-0.34375 -0.796875 -0.34375 -2.1875l0 -6.234375l2.609375 0l0 4.53125q0 2.078125 0.140625 2.546875q0.140625 0.46875 0.515625 0.75q0.390625 0.265625 0.96875 0.265625q0.671875 0 1.203125 -0.359375q0.53125 -0.375 0.71875 -0.90625q0.1875 -0.546875 0.1875 -2.671875l0 -4.15625l2.609375 0l0 9.859375l-2.421875 0zm9.427246 -9.859375l0 2.078125l-1.78125 0l0 3.984375q0 1.203125 0.046875 1.40625q0.0625 0.1875 0.234375 0.328125q0.1875 0.125 0.453125 0.125q0.359375 0 1.046875 -0.25l0.21875 2.015625q-0.90625 0.390625 -2.0625 0.390625q-0.703125 0 -1.265625 -0.234375q-0.5625 -0.234375 -0.828125 -0.609375q-0.265625 -0.375 -0.375 -1.015625q-0.078125 -0.453125 -0.078125 -1.84375l0 -4.296875l-1.203125 0l0 -2.078125l1.203125 0l0 -1.953125l2.609375 -1.515625l0 3.46875l1.78125 0zm4.1970215 9.859375l-2.609375 0l0 -9.859375l2.421875 0l0 1.40625q0.625 -0.984375 1.109375 -1.296875q0.5 -0.328125 1.140625 -0.328125q0.890625 0 1.71875 0.5l-0.8125 2.265625q-0.65625 -0.421875 -1.21875 -0.421875q-0.546875 0 -0.9375 0.296875q-0.375 0.296875 -0.59375 1.09375q-0.21875 0.78125 -0.21875 3.296875l0 3.046875zm4.166626 -5.0625q0 -1.296875 0.640625 -2.515625q0.640625 -1.21875 1.8125 -1.859375q1.171875 -0.640625 2.609375 -0.640625q2.25 0 3.671875 1.453125q1.421875 1.453125 1.421875 3.671875q0 2.234375 -1.4375 3.703125q-1.4375 1.46875 -3.625 1.46875q-1.359375 0 -2.59375 -0.609375q-1.21875 -0.609375 -1.859375 -1.796875q-0.640625 -1.1875 -0.640625 -2.875zm2.671875 0.140625q0 1.46875 0.6875 2.25q0.703125 0.765625 1.71875 0.765625q1.015625 0 1.703125 -0.765625q0.703125 -0.78125 0.703125 -2.265625q0 -1.453125 -0.703125 -2.234375q-0.6875 -0.78125 -1.703125 -0.78125q-1.015625 0 -1.71875 0.78125q-0.6875 0.78125 -0.6875 2.25zm18.286499 4.921875l-2.609375 0l0 -5.03125q0 -1.59375 -0.171875 -2.0625q-0.15625 -0.46875 -0.53125 -0.71875q-0.375 -0.265625 -0.90625 -0.265625q-0.6875 0 -1.234375 0.375q-0.53125 0.359375 -0.734375 0.984375q-0.1875 0.609375 -0.1875 2.25l0 4.46875l-2.609375 0l0 -9.859375l2.421875 0l0 1.453125q1.296875 -1.671875 3.25 -1.671875q0.859375 0 1.578125 0.3125q0.71875 0.3125 1.078125 0.796875q0.359375 0.484375 0.5 1.09375q0.15625 0.609375 0.15625 1.75l0 6.125zm7.6418457 0l0 -13.59375l2.75 0l0 5.34375l5.375 0l0 -5.34375l2.75 0l0 13.59375l-2.75 0l0 -5.953125l-5.375 0l0 5.953125l-2.75 0zm12.8479 -5.0625q0 -1.296875 0.640625 -2.515625q0.640625 -1.21875 1.8125 -1.859375q1.171875 -0.640625 2.609375 -0.640625q2.25 0 3.671875 1.453125q1.421875 1.453125 1.421875 3.671875q0 2.234375 -1.4375 3.703125q-1.4375 1.46875 -3.625 1.46875q-1.359375 0 -2.59375 -0.609375q-1.21875 -0.609375 -1.859375 -1.796875q-0.640625 -1.1875 -0.640625 -2.875zm2.671875 0.140625q0 1.46875 0.6875 2.25q0.703125 0.765625 1.71875 0.765625q1.015625 0 1.703125 -0.765625q0.703125 -0.78125 0.703125 -2.265625q0 -1.453125 -0.703125 -2.234375q-0.6875 -0.78125 -1.703125 -0.78125q-1.015625 0 -1.71875 0.78125q-0.6875 0.78125 -0.6875 2.25zm8.411621 2.109375l2.609375 -0.390625q0.171875 0.75 0.671875 1.15625q0.515625 0.390625 1.4375 0.390625q1.0 0 1.515625 -0.375q0.34375 -0.265625 0.34375 -0.703125q0 -0.296875 -0.1875 -0.484375q-0.1875 -0.1875 -0.875 -0.34375q-3.140625 -0.703125 -4.0 -1.265625q-1.15625 -0.796875 -1.15625 -2.21875q0 -1.28125 1.0 -2.15625q1.015625 -0.875 3.140625 -0.875q2.03125 0 3.0 0.65625q0.984375 0.65625 1.359375 1.953125l-2.453125 0.453125q-0.15625 -0.578125 -0.609375 -0.875q-0.4375 -0.3125 -1.25 -0.3125q-1.03125 0 -1.46875 0.296875q-0.296875 0.203125 -0.296875 0.515625q0 0.28125 0.25 0.484375q0.359375 0.25 2.4375 0.734375q2.078125 0.46875 2.90625 1.15625q0.828125 0.6875 0.828125 1.9375q0 1.359375 -1.140625 2.328125q-1.125 0.96875 -3.34375 0.96875q-2.015625 0 -3.1875 -0.8125q-1.171875 -0.8125 -1.53125 -2.21875zm15.797607 -7.046875l0 2.078125l-1.78125 0l0 3.984375q0 1.203125 0.046875 1.40625q0.0625 0.1875 0.234375 0.328125q0.1875 0.125 0.453125 0.125q0.359375 0 1.046875 -0.25l0.21875 2.015625q-0.90625 0.390625 -2.0625 0.390625q-0.703125 0 -1.265625 -0.234375q-0.5625 -0.234375 -0.828125 -0.609375q-0.265625 -0.375 -0.375 -1.015625q-0.078125 -0.453125 -0.078125 -1.84375l0 -4.296875l-1.203125 0l0 -2.078125l1.203125 0l0 -1.953125l2.609375 -1.515625l0 3.46875l1.78125 0z" fill-rule="nonzero"></path><path fill="#000000" fill-opacity="0.0" d="m133.021 210.97113l75.244095 0l0 31.874008l-75.244095 0z" fill-rule="nonzero"></path><path fill="#000000" d="m148.48975 231.81801l0 0.875q-0.8125 0.203125 -1.59375 0.203125q-2.296875 0 -2.296875 -2.1875l0 -4.03125l-1.703125 0l0 -0.609375l1.703125 -0.3125l0.484375 -1.8125l0.671875 0l0 1.859375l2.78125 0l0 0.875l-2.78125 0l0 4.03125q0 1.25 1.21875 1.25q0.59375 0 1.515625 -0.140625zm7.216934 0.953125l-0.234375 -0.96875l-0.0625 0q-0.484375 0.625 -1.0 0.859375q-0.515625 0.234375 -1.328125 0.234375q-1.03125 0 -1.625 -0.546875q-0.578125 -0.546875 -0.578125 -1.53125q0 -2.109375 3.234375 -2.203125l1.296875 -0.046875l0 -0.4375q0 -1.5 -1.5625 -1.5q-0.921875 0 -2.078125 0.515625l-0.390625 -0.859375q1.234375 -0.609375 2.421875 -0.609375q1.4375 0 2.078125 0.546875q0.65625 0.546875 0.65625 1.765625l0 4.78125l-0.828125 0zm-0.3125 -3.40625l-1.03125 0.046875q-1.25 0.046875 -1.765625 0.390625q-0.515625 0.328125 -0.515625 1.03125q0 1.125 1.265625 1.125q0.9375 0 1.484375 -0.515625q0.5625 -0.515625 0.5625 -1.453125l0 -0.625zm4.779434 2.53125l-0.078125 0q0.078125 0.8125 0.078125 1.015625l0 2.984375l-1.15625 0l0 -10.09375l0.9375 0l0.171875 0.9375l0.046875 0q0.703125 -1.0625 2.046875 -1.0625q1.28125 0 2.0 0.953125q0.734375 0.9375 0.734375 2.640625q0 1.71875 -0.734375 2.671875q-0.734375 0.953125 -2.0 0.953125q-1.3125 0 -2.046875 -1.0zm0 -2.890625l0 0.265625q0 1.4375 0.4375 2.0625q0.453125 0.609375 1.40625 0.609375q1.734375 0 1.734375 -2.6875q0 -2.625 -1.734375 -2.625q-0.96875 0 -1.390625 0.5625q-0.421875 0.5625 -0.453125 1.8125zm9.732559 1.859375q0.96875 0 0.96875 1.046875q0 1.0625 -0.96875 1.0625q-0.953125 0 -0.953125 -1.0625q0 -1.046875 0.953125 -1.046875zm7.998184 0q0.96875 0 0.96875 1.046875q0 1.0625 -0.96875 1.0625q-0.953125 0 -0.953125 -1.0625q0 -1.046875 0.953125 -1.046875zm7.998184 0q0.96875 0 0.96875 1.046875q0 1.0625 -0.96875 1.0625q-0.953125 0 -0.953125 -1.0625q0 -1.046875 0.953125 -1.046875z" fill-rule="nonzero"></path><path fill="#000000" fill-opacity="0.0" d="m136.36482 316.39764l75.244095 0l0 31.874023l-75.244095 0z" fill-rule="nonzero"></path><path fill="#000000" d="m151.00545 332.16638l0.046875 0l0.171875 -0.9375l0.9375 0l0 10.09375l-1.15625 0l0 -2.984375q0 -0.25 0.078125 -1.078125l-0.078125 0q-0.71875 1.0625 -2.046875 1.0625q-1.265625 0 -2.0 -0.9375q-0.71875 -0.953125 -0.71875 -2.65625q0 -1.71875 0.71875 -2.671875q0.734375 -0.953125 2.0 -0.953125q1.3125 0 2.046875 1.0625zm0 2.8125l0 -0.25q0 -1.4375 -0.4375 -2.046875q-0.4375 -0.625 -1.40625 -0.625q-1.734375 0 -1.734375 2.6875q0 2.625 1.75 2.625q0.96875 0 1.390625 -0.5625q0.421875 -0.5625 0.4375 -1.828125zm5.513809 3.21875l-2.640625 -6.96875l1.203125 0l1.515625 4.140625q0.546875 1.46875 0.640625 2.0625l0.03125 0q0.046875 -0.28125 0.640625 -2.0625l1.515625 -4.140625l1.203125 0l-2.640625 6.96875l-1.46875 0zm6.998184 -0.875l-0.078125 0l-0.234375 0.875l-0.84375 0l0 -9.875l1.15625 0l0 2.390625q0 0.515625 -0.046875 1.421875l0.046875 0q0.6875 -1.03125 2.046875 -1.03125q1.28125 0 2.0 0.953125q0.734375 0.9375 0.734375 2.640625q0 1.71875 -0.734375 2.671875q-0.734375 0.953125 -2.0 0.953125q-1.3125 0 -2.046875 -1.0zm0 -2.625q0 1.4375 0.4375 2.0625q0.453125 0.609375 1.40625 0.609375q1.734375 0 1.734375 -2.6875q0 -2.625 -1.734375 -2.625q-0.984375 0 -1.421875 0.609375q-0.421875 0.59375 -0.421875 2.03125zm9.732559 1.59375q0.96875 0 0.96875 1.046875q0 1.0625 -0.96875 1.0625q-0.953125 0 -0.953125 -1.0625q0 -1.046875 0.953125 -1.046875zm7.998184 0q0.96875 0 0.96875 1.046875q0 1.0625 -0.96875 1.0625q-0.953125 0 -0.953125 -1.0625q0 -1.046875 0.953125 -1.046875zm7.998184 0q0.96875 0 0.96875 1.046875q0 1.0625 -0.96875 1.0625q-0.953125 0 -0.953125 -1.0625q0 -1.046875 0.953125 -1.046875z" fill-rule="nonzero"></path><path fill="#000000" fill-opacity="0.0" d="m133.021 186.97113l75.244095 0l0 31.874008l-75.244095 0z" fill-rule="nonzero"></path><path fill="#000000" d="m148.97412 205.50551l-4.90625 0q0.046875 2.390625 2.1875 2.390625q1.234375 0 2.34375 -0.484375l0 1.015625q-1.0625 0.46875 -2.3125 0.46875q-1.5625 0 -2.5 -0.9375q-0.921875 -0.953125 -0.921875 -2.625q0 -1.6875 0.859375 -2.671875q0.859375 -0.984375 2.296875 -0.984375q1.34375 0 2.140625 0.859375q0.8125 0.84375 0.8125 2.25l0 0.71875zm-4.890625 -0.9375l3.640625 0q0 -1.9375 -1.71875 -1.9375q-1.75 0 -1.921875 1.9375zm12.404434 3.25l0 0.875q-0.8125 0.203125 -1.59375 0.203125q-2.296875 0 -2.296875 -2.1875l0 -4.03125l-1.703125 0l0 -0.609375l1.703125 -0.3125l0.484375 -1.8125l0.671875 0l0 1.859375l2.78125 0l0 0.875l-2.78125 0l0 4.03125q0 1.25 1.21875 1.25q0.59375 0 1.515625 -0.140625zm7.154434 0.953125l0 -4.484375q0 -1.65625 -1.5 -1.65625q-1.953125 0 -1.953125 2.53125l0 3.609375l-1.15625 0l0 -9.875l1.15625 0l0 2.9375l-0.046875 0.90625l0.0625 0q0.65625 -1.0625 2.125 -1.0625q2.46875 0 2.46875 2.546875l0 4.546875l-1.15625 0zm6.263809 0.125q-1.453125 0 -2.203125 -1.21875q-0.75 -1.234375 -0.75 -3.5625q0 -4.765625 2.953125 -4.765625q1.46875 0 2.21875 1.234375q0.75 1.21875 0.75 3.53125q0 4.78125 -2.96875 4.78125zm0 -0.984375q0.921875 0 1.359375 -0.890625q0.4375 -0.890625 0.4375 -2.90625q0 -2.0 -0.4375 -2.890625q-0.4375 -0.890625 -1.359375 -0.890625q-0.921875 0 -1.359375 0.890625q-0.421875 0.875 -0.421875 2.890625q0 2.015625 0.421875 2.90625q0.4375 0.890625 1.359375 0.890625z" fill-rule="nonzero"></path><path fill="#000000" fill-opacity="0.0" d="m144.36482 372.39764l75.244095 0l0 31.874023l-75.244095 0z" fill-rule="nonzero"></path><path fill="#000000" d="m159.00545 388.16638l0.046875 0l0.171875 -0.9375l0.9375 0l0 10.09375l-1.15625 0l0 -2.984375q0 -0.25 0.078125 -1.078125l-0.078125 0q-0.71875 1.0625 -2.046875 1.0625q-1.265625 0 -2.0 -0.9375q-0.71875 -0.953125 -0.71875 -2.65625q0 -1.71875 0.71875 -2.671875q0.734375 -0.953125 2.0 -0.953125q1.3125 0 2.046875 1.0625zm0 2.8125l0 -0.25q0 -1.4375 -0.4375 -2.046875q-0.4375 -0.625 -1.40625 -0.625q-1.734375 0 -1.734375 2.6875q0 2.625 1.75 2.625q0.96875 0 1.390625 -0.5625q0.421875 -0.5625 0.4375 -1.828125zm5.513809 3.21875l-2.640625 -6.96875l1.203125 0l1.515625 4.140625q0.546875 1.46875 0.640625 2.0625l0.03125 0q0.046875 -0.28125 0.640625 -2.0625l1.515625 -4.140625l1.203125 0l-2.640625 6.96875l-1.46875 0zm8.716934 0.125q-1.375 0 -2.265625 -0.984375q-0.875 -0.984375 -0.875 -2.640625q0 -1.671875 0.859375 -2.625q0.859375 -0.96875 2.3125 -0.96875q1.390625 0 2.265625 0.984375q0.890625 0.984375 0.890625 2.609375q0 1.6875 -0.875 2.65625q-0.875 0.96875 -2.3125 0.96875zm0.015625 -0.953125q1.96875 0 1.96875 -2.671875q0 -2.640625 -1.96875 -2.640625q-1.96875 0 -1.96875 2.640625q0 2.671875 1.96875 2.671875zm7.998184 -1.078125q0.96875 0 0.96875 1.046875q0 1.0625 -0.96875 1.0625q-0.953125 0 -0.953125 -1.0625q0 -1.046875 0.953125 -1.046875zm7.998184 0q0.96875 0 0.96875 1.046875q0 1.0625 -0.96875 1.0625q-0.953125 0 -0.953125 -1.0625q0 -1.046875 0.953125 -1.046875zm7.998184 0q0.96875 0 0.96875 1.046875q0 1.0625 -0.96875 1.0625q-0.953125 0 -0.953125 -1.0625q0 -1.046875 0.953125 -1.046875z" fill-rule="nonzero"></path><path fill="#000000" fill-opacity="0.0" d="m224.36482 484.39896l91.81102 0l0 31.873993l-91.81102 0z" fill-rule="nonzero"></path><path fill="#000000" d="m235.52107 505.32394l-0.078125 0q0.078125 0.8125 0.078125 1.015625l0 2.984375l-1.15625 0l0 -10.09375l0.9375 0l0.171875 0.9375l0.046875 0q0.703125 -1.0625 2.046875 -1.0625q1.28125 0 2.0 0.953125q0.734375 0.9375 0.734375 2.640625q0 1.71875 -0.734375 2.671875q-0.734375 0.953125 -2.0 0.953125q-1.3125 0 -2.046875 -1.0zm0 -2.890625l0 0.265625q0 1.4375 0.4375 2.0625q0.453125 0.609375 1.40625 0.609375q1.734375 0 1.734375 -2.6875q0 -2.625 -1.734375 -2.625q-0.96875 0 -1.390625 0.5625q-0.421875 0.5625 -0.453125 1.8125zm11.529434 3.765625l-0.234375 -0.96875l-0.0625 0q-0.484375 0.625 -1.0 0.859375q-0.515625 0.234375 -1.328125 0.234375q-1.03125 0 -1.625 -0.546875q-0.578125 -0.546875 -0.578125 -1.53125q0 -2.109375 3.234375 -2.203125l1.296875 -0.046875l0 -0.4375q0 -1.5 -1.5625 -1.5q-0.921875 0 -2.078125 0.515625l-0.390625 -0.859375q1.234375 -0.609375 2.421875 -0.609375q1.4375 0 2.078125 0.546875q0.65625 0.546875 0.65625 1.765625l0 4.78125l-0.828125 0zm-0.3125 -3.40625l-1.03125 0.046875q-1.25 0.046875 -1.765625 0.390625q-0.515625 0.328125 -0.515625 1.03125q0 1.125 1.265625 1.125q0.9375 0 1.484375 -0.515625q0.5625 -0.515625 0.5625 -1.453125l0 -0.625zm9.091934 2.453125l0 0.875q-0.8125 0.203125 -1.59375 0.203125q-2.296875 0 -2.296875 -2.1875l0 -4.03125l-1.703125 0l0 -0.609375l1.703125 -0.3125l0.484375 -1.8125l0.671875 0l0 1.859375l2.78125 0l0 0.875l-2.78125 0l0 4.03125q0 1.25 1.21875 1.25q0.59375 0 1.515625 -0.140625zm8.263809 -5.765625l-0.390625 1.0q-0.953125 -0.359375 -1.703125 -0.359375q-2.359375 0 -2.359375 2.625q0 2.578125 2.296875 2.578125q1.0 0 2.03125 -0.40625l0 1.015625q-0.84375 0.390625 -2.078125 0.390625q-1.640625 0 -2.546875 -0.921875q-0.890625 -0.921875 -0.890625 -2.65625q0 -1.78125 0.921875 -2.703125q0.921875 -0.9375 2.59375 -0.9375q1.125 0 2.125 0.375zm6.8888245 6.71875l0 -4.484375q0 -1.65625 -1.5 -1.65625q-1.953125 0 -1.953125 2.53125l0 3.609375l-1.15625 0l0 -9.875l1.15625 0l0 2.9375l-0.046875 0.90625l0.0625 0q0.65625 -1.0625 2.125 -1.0625q2.46875 0 2.46875 2.546875l0 4.546875l-1.15625 0zm4.185669 -2.953125l0 -1.0625l4.1875 0l0 1.0625l-4.1875 0zm12.654449 2.0l0 0.875q-0.8125 0.203125 -1.59375 0.203125q-2.296875 0 -2.296875 -2.1875l0 -4.03125l-1.703125 0l0 -0.609375l1.703125 -0.3125l0.484375 -1.8125l0.671875 0l0 1.859375l2.78125 0l0 0.875l-2.78125 0l0 4.03125q0 1.25 1.21875 1.25q0.59375 0 1.515625 -0.140625zm7.388794 0.953125l-0.171875 -0.9375l-0.0625 0q-0.671875 1.0625 -2.125 1.0625q-2.484375 0 -2.484375 -2.546875l0 -4.546875l1.15625 0l0 4.484375q0 1.65625 1.5 1.65625q1.015625 0 1.484375 -0.578125q0.46875 -0.59375 0.46875 -1.953125l0 -3.609375l1.15625 0l0 6.96875l-0.921875 0zm7.7638245 0l0 -4.484375q0 -1.65625 -1.5 -1.65625q-1.953125 0 -1.953125 2.53125l0 3.609375l-1.15625 0l0 -6.96875l0.9375 0l0.171875 0.9375l0.0625 0q0.65625 -1.0625 2.125 -1.0625q2.46875 0 2.46875 2.546875l0 4.546875l-1.15625 0z" fill-rule="nonzero"></path><path fill="#000000" fill-opacity="0.0" d="m224.36482 532.3989l91.81102 0l0 31.874023l-91.81102 0z" fill-rule="nonzero"></path><path fill="#000000" d="m235.52107 553.324l-0.078125 0q0.078125 0.8125 0.078125 1.015625l0 2.984375l-1.15625 0l0 -10.09375l0.9375 0l0.171875 0.9375l0.046875 0q0.703125 -1.0625 2.046875 -1.0625q1.28125 0 2.0 0.953125q0.734375 0.9375 0.734375 2.640625q0 1.71875 -0.734375 2.671875q-0.734375 0.953125 -2.0 0.953125q-1.3125 0 -2.046875 -1.0zm0 -2.890625l0 0.265625q0 1.4375 0.4375 2.0625q0.453125 0.609375 1.40625 0.609375q1.734375 0 1.734375 -2.6875q0 -2.625 -1.734375 -2.625q-0.96875 0 -1.390625 0.5625q-0.421875 0.5625 -0.453125 1.8125zm11.529434 3.765625l-0.234375 -0.96875l-0.0625 0q-0.484375 0.625 -1.0 0.859375q-0.515625 0.234375 -1.328125 0.234375q-1.03125 0 -1.625 -0.546875q-0.578125 -0.546875 -0.578125 -1.53125q0 -2.109375 3.234375 -2.203125l1.296875 -0.046875l0 -0.4375q0 -1.5 -1.5625 -1.5q-0.921875 0 -2.078125 0.515625l-0.390625 -0.859375q1.234375 -0.609375 2.421875 -0.609375q1.4375 0 2.078125 0.546875q0.65625 0.546875 0.65625 1.765625l0 4.78125l-0.828125 0zm-0.3125 -3.40625l-1.03125 0.046875q-1.25 0.046875 -1.765625 0.390625q-0.515625 0.328125 -0.515625 1.03125q0 1.125 1.265625 1.125q0.9375 0 1.484375 -0.515625q0.5625 -0.515625 0.5625 -1.453125l0 -0.625zm9.091934 2.453125l0 0.875q-0.8125 0.203125 -1.59375 0.203125q-2.296875 0 -2.296875 -2.1875l0 -4.03125l-1.703125 0l0 -0.609375l1.703125 -0.3125l0.484375 -1.8125l0.671875 0l0 1.859375l2.78125 0l0 0.875l-2.78125 0l0 4.03125q0 1.25 1.21875 1.25q0.59375 0 1.515625 -0.140625zm8.263809 -5.765625l-0.390625 1.0q-0.953125 -0.359375 -1.703125 -0.359375q-2.359375 0 -2.359375 2.625q0 2.578125 2.296875 2.578125q1.0 0 2.03125 -0.40625l0 1.015625q-0.84375 0.390625 -2.078125 0.390625q-1.640625 0 -2.546875 -0.921875q-0.890625 -0.921875 -0.890625 -2.65625q0 -1.78125 0.921875 -2.703125q0.921875 -0.9375 2.59375 -0.9375q1.125 0 2.125 0.375zm6.8888245 6.71875l0 -4.484375q0 -1.65625 -1.5 -1.65625q-1.953125 0 -1.953125 2.53125l0 3.609375l-1.15625 0l0 -9.875l1.15625 0l0 2.9375l-0.046875 0.90625l0.0625 0q0.65625 -1.0625 2.125 -1.0625q2.46875 0 2.46875 2.546875l0 4.546875l-1.15625 0zm4.185669 -2.953125l0 -1.0625l4.1875 0l0 1.0625l-4.1875 0zm10.201324 -6.890625q0.671875 0 0.671875 0.734375q0 0.359375 -0.203125 0.546875q-0.1875 0.171875 -0.46875 0.171875q-0.671875 0 -0.671875 -0.71875q0 -0.734375 0.671875 -0.734375zm-0.578125 3.78125l-1.703125 -0.125l0 -0.78125l2.859375 0l0 6.0625l2.234375 0.125l0 0.78125l-5.578125 0l0 -0.78125l2.1875 -0.125l0 -5.15625zm10.185669 6.0625l0 -4.484375q0 -1.65625 -1.5 -1.65625q-1.953125 0 -1.953125 2.53125l0 3.609375l-1.15625 0l0 -6.96875l0.9375 0l0.171875 0.9375l0.0625 0q0.65625 -1.0625 2.125 -1.0625q2.46875 0 2.46875 2.546875l0 4.546875l-1.15625 0zm8.841949 -0.953125l0 0.875q-0.8125 0.203125 -1.59375 0.203125q-2.296875 0 -2.296875 -2.1875l0 -4.03125l-1.703125 0l0 -0.609375l1.703125 -0.3125l0.484375 -1.8125l0.671875 0l0 1.859375l2.78125 0l0 0.875l-2.78125 0l0 4.03125q0 1.25 1.21875 1.25q0.59375 0 1.515625 -0.140625z" fill-rule="nonzero"></path><path fill="#000000" fill-opacity="0.0" d="m871.6772 483.7874l91.810974 0l0 31.874023l-91.810974 0z" fill-rule="nonzero"></path><path fill="#000000" d="m882.83344 504.7124l-0.078125 0q0.078125 0.8125 0.078125 1.015625l0 2.984375l-1.15625 0l0 -10.09375l0.9375 0l0.171875 0.9375l0.046875 0q0.703125 -1.0625 2.046875 -1.0625q1.28125 0 2.0 0.953125q0.734375 0.9375 0.734375 2.640625q0 1.71875 -0.734375 2.671875q-0.734375 0.953125 -2.0 0.953125q-1.3125 0 -2.046875 -1.0zm0 -2.890625l0 0.265625q0 1.4375 0.4375 2.0625q0.453125 0.609375 1.40625 0.609375q1.734375 0 1.734375 -2.6875q0 -2.625 -1.734375 -2.625q-0.96875 0 -1.390625 0.5625q-0.421875 0.5625 -0.453125 1.8125zm11.529419 3.765625l-0.234375 -0.96875l-0.0625 0q-0.484375 0.625 -1.0 0.859375q-0.515625 0.234375 -1.328125 0.234375q-1.03125 0 -1.625 -0.546875q-0.578125 -0.546875 -0.578125 -1.53125q0 -2.109375 3.234375 -2.203125l1.296875 -0.046875l0 -0.4375q0 -1.5 -1.5625 -1.5q-0.921875 0 -2.078125 0.515625l-0.390625 -0.859375q1.234375 -0.609375 2.421875 -0.609375q1.4375 0 2.078125 0.546875q0.65625 0.546875 0.65625 1.765625l0 4.78125l-0.828125 0zm-0.3125 -3.40625l-1.03125 0.046875q-1.25 0.046875 -1.765625 0.390625q-0.515625 0.328125 -0.515625 1.03125q0 1.125 1.265625 1.125q0.9375 0 1.484375 -0.515625q0.5625 -0.515625 0.5625 -1.453125l0 -0.625zm9.091919 2.453125l0 0.875q-0.8125 0.203125 -1.59375 0.203125q-2.296875 0 -2.296875 -2.1875l0 -4.03125l-1.703125 0l0 -0.609375l1.703125 -0.3125l0.484375 -1.8125l0.671875 0l0 1.859375l2.78125 0l0 0.875l-2.78125 0l0 4.03125q0 1.25 1.21875 1.25q0.59375 0 1.515625 -0.140625zm8.263794 -5.765625l-0.390625 1.0q-0.953125 -0.359375 -1.703125 -0.359375q-2.359375 0 -2.359375 2.625q0 2.578125 2.296875 2.578125q1.0 0 2.03125 -0.40625l0 1.015625q-0.84375 0.390625 -2.078125 0.390625q-1.640625 0 -2.546875 -0.921875q-0.890625 -0.921875 -0.890625 -2.65625q0 -1.78125 0.921875 -2.703125q0.921875 -0.9375 2.59375 -0.9375q1.125 0 2.125 0.375zm6.888855 6.71875l0 -4.484375q0 -1.65625 -1.5 -1.65625q-1.953125 0 -1.953125 2.53125l0 3.609375l-1.15625 0l0 -9.875l1.15625 0l0 2.9375l-0.046875 0.90625l0.0625 0q0.65625 -1.0625 2.125 -1.0625q2.46875 0 2.46875 2.546875l0 4.546875l-1.15625 0zm4.185669 -2.953125l0 -1.0625l4.1875 0l0 1.0625l-4.1875 0zm12.654419 2.0l0 0.875q-0.8125 0.203125 -1.59375 0.203125q-2.296875 0 -2.296875 -2.1875l0 -4.03125l-1.703125 0l0 -0.609375l1.703125 -0.3125l0.484375 -1.8125l0.671875 0l0 1.859375l2.78125 0l0 0.875l-2.78125 0l0 4.03125q0 1.25 1.21875 1.25q0.59375 0 1.515625 -0.140625zm7.388794 0.953125l-0.171875 -0.9375l-0.0625 0q-0.671875 1.0625 -2.125 1.0625q-2.484375 0 -2.484375 -2.546875l0 -4.546875l1.15625 0l0 4.484375q0 1.65625 1.5 1.65625q1.015625 0 1.484375 -0.578125q0.46875 -0.59375 0.46875 -1.953125l0 -3.609375l1.15625 0l0 6.96875l-0.921875 0zm7.763855 0l0 -4.484375q0 -1.65625 -1.5 -1.65625q-1.953125 0 -1.953125 2.53125l0 3.609375l-1.15625 0l0 -6.96875l0.9375 0l0.171875 0.9375l0.0625 0q0.65625 -1.0625 2.125 -1.0625q2.46875 0 2.46875 2.546875l0 4.546875l-1.15625 0z" fill-rule="nonzero"></path><path fill="#000000" fill-opacity="0.0" d="m631.6772 531.7874l91.810974 0l0 31.874023l-91.810974 0z" fill-rule="nonzero"></path><path fill="#000000" d="m642.83344 552.7124l-0.078125 0q0.078125 0.8125 0.078125 1.015625l0 2.984375l-1.15625 0l0 -10.09375l0.9375 0l0.171875 0.9375l0.046875 0q0.703125 -1.0625 2.046875 -1.0625q1.28125 0 2.0 0.953125q0.734375 0.9375 0.734375 2.640625q0 1.71875 -0.734375 2.671875q-0.734375 0.953125 -2.0 0.953125q-1.3125 0 -2.046875 -1.0zm0 -2.890625l0 0.265625q0 1.4375 0.4375 2.0625q0.453125 0.609375 1.40625 0.609375q1.734375 0 1.734375 -2.6875q0 -2.625 -1.734375 -2.625q-0.96875 0 -1.390625 0.5625q-0.421875 0.5625 -0.453125 1.8125zm11.529419 3.765625l-0.234375 -0.96875l-0.0625 0q-0.484375 0.625 -1.0 0.859375q-0.515625 0.234375 -1.328125 0.234375q-1.03125 0 -1.625 -0.546875q-0.578125 -0.546875 -0.578125 -1.53125q0 -2.109375 3.234375 -2.203125l1.296875 -0.046875l0 -0.4375q0 -1.5 -1.5625 -1.5q-0.921875 0 -2.078125 0.515625l-0.390625 -0.859375q1.234375 -0.609375 2.421875 -0.609375q1.4375 0 2.078125 0.546875q0.65625 0.546875 0.65625 1.765625l0 4.78125l-0.828125 0zm-0.3125 -3.40625l-1.03125 0.046875q-1.25 0.046875 -1.765625 0.390625q-0.515625 0.328125 -0.515625 1.03125q0 1.125 1.265625 1.125q0.9375 0 1.484375 -0.515625q0.5625 -0.515625 0.5625 -1.453125l0 -0.625zm9.091919 2.453125l0 0.875q-0.8125 0.203125 -1.59375 0.203125q-2.296875 0 -2.296875 -2.1875l0 -4.03125l-1.703125 0l0 -0.609375l1.703125 -0.3125l0.484375 -1.8125l0.671875 0l0 1.859375l2.78125 0l0 0.875l-2.78125 0l0 4.03125q0 1.25 1.21875 1.25q0.59375 0 1.515625 -0.140625zm8.263794 -5.765625l-0.390625 1.0q-0.953125 -0.359375 -1.703125 -0.359375q-2.359375 0 -2.359375 2.625q0 2.578125 2.296875 2.578125q1.0 0 2.03125 -0.40625l0 1.015625q-0.84375 0.390625 -2.078125 0.390625q-1.640625 0 -2.546875 -0.921875q-0.890625 -0.921875 -0.890625 -2.65625q0 -1.78125 0.921875 -2.703125q0.921875 -0.9375 2.59375 -0.9375q1.125 0 2.125 0.375zm6.888855 6.71875l0 -4.484375q0 -1.65625 -1.5 -1.65625q-1.953125 0 -1.953125 2.53125l0 3.609375l-1.15625 0l0 -9.875l1.15625 0l0 2.9375l-0.046875 0.90625l0.0625 0q0.65625 -1.0625 2.125 -1.0625q2.46875 0 2.46875 2.546875l0 4.546875l-1.15625 0zm4.185669 -2.953125l0 -1.0625l4.1875 0l0 1.0625l-4.1875 0zm10.201294 -6.890625q0.671875 0 0.671875 0.734375q0 0.359375 -0.203125 0.546875q-0.1875 0.171875 -0.46875 0.171875q-0.671875 0 -0.671875 -0.71875q0 -0.734375 0.671875 -0.734375zm-0.578125 3.78125l-1.703125 -0.125l0 -0.78125l2.859375 0l0 6.0625l2.234375 0.125l0 0.78125l-5.578125 0l0 -0.78125l2.1875 -0.125l0 -5.15625zm10.185669 6.0625l0 -4.484375q0 -1.65625 -1.5 -1.65625q-1.953125 0 -1.953125 2.53125l0 3.609375l-1.15625 0l0 -6.96875l0.9375 0l0.171875 0.9375l0.0625 0q0.65625 -1.0625 2.125 -1.0625q2.46875 0 2.46875 2.546875l0 4.546875l-1.15625 0zm8.84198 -0.953125l0 0.875q-0.8125 0.203125 -1.59375 0.203125q-2.296875 0 -2.296875 -2.1875l0 -4.03125l-1.703125 0l0 -0.609375l1.703125 -0.3125l0.484375 -1.8125l0.671875 0l0 1.859375l2.78125 0l0 0.875l-2.78125 0l0 4.03125q0 1.25 1.21875 1.25q0.59375 0 1.515625 -0.140625z" fill-rule="nonzero"></path><path fill="#000000" fill-opacity="0.0" d="m895.6772 363.7874l91.810974 0l0 31.873993l-91.810974 0z" fill-rule="nonzero"></path><path fill="#000000" d="m910.3178 379.55615l0.046875 0l0.171875 -0.9375l0.9375 0l0 10.09375l-1.15625 0l0 -2.984375q0 -0.25 0.078125 -1.078125l-0.078125 0q-0.71875 1.0625 -2.046875 1.0625q-1.265625 0 -2.0 -0.9375q-0.71875 -0.953125 -0.71875 -2.65625q0 -1.71875 0.71875 -2.671875q0.734375 -0.953125 2.0 -0.953125q1.3125 0 2.046875 1.0625zm0 2.8125l0 -0.25q0 -1.4375 -0.4375 -2.046875q-0.4375 -0.625 -1.40625 -0.625q-1.734375 0 -1.734375 2.6875q0 2.625 1.75 2.625q0.96875 0 1.390625 -0.5625q0.421875 -0.5625 0.4375 -1.828125zm9.076294 -3.59375l-0.3125 1.0625q-0.78125 -0.296875 -1.421875 -0.296875q-1.03125 0 -1.59375 0.59375q-0.5625 0.578125 -0.5625 1.6875l0 3.765625l-1.15625 0l0 -6.96875l0.9375 0l0.140625 1.28125l0.0625 0q0.46875 -0.765625 1.015625 -1.078125q0.5625 -0.328125 1.375 -0.328125q0.75 0 1.515625 0.28125zm5.170044 4.90625q0.96875 0 0.96875 1.046875q0 1.0625 -0.96875 1.0625q-0.953125 0 -0.953125 -1.0625q0 -1.046875 0.953125 -1.046875zm7.998169 0q0.96875 0 0.96875 1.046875q0 1.0625 -0.96875 1.0625q-0.953125 0 -0.953125 -1.0625q0 -1.046875 0.953125 -1.046875zm7.99823 0q0.96875 0 0.96875 1.046875q0 1.0625 -0.96875 1.0625q-0.953125 0 -0.953125 -1.0625q0 -1.046875 0.953125 -1.046875z" fill-rule="nonzero"></path><path fill="#000000" fill-opacity="0.0" d="m1087.6771 363.7874l91.811035 0l0 31.873993l-91.811035 0z" fill-rule="nonzero"></path><path fill="#000000" d="m1103.1459 384.63428l0 0.875q-0.8125 0.203125 -1.59375 0.203125q-2.296875 0 -2.296875 -2.1875l0 -4.03125l-1.703125 0l0 -0.609375l1.703125 -0.3125l0.484375 -1.8125l0.671875 0l0 1.859375l2.78125 0l0 0.875l-2.78125 0l0 4.03125q0 1.25 1.21875 1.25q0.59375 0 1.515625 -0.140625zm7.216919 0.953125l-0.234375 -0.96875l-0.0625 0q-0.484375 0.625 -1.0 0.859375q-0.515625 0.234375 -1.328125 0.234375q-1.03125 0 -1.625 -0.546875q-0.578125 -0.546875 -0.578125 -1.53125q0 -2.109375 3.234375 -2.203125l1.296875 -0.046875l0 -0.4375q0 -1.5 -1.5625 -1.5q-0.921875 0 -2.078125 0.515625l-0.390625 -0.859375q1.234375 -0.609375 2.421875 -0.609375q1.4375 0 2.078125 0.546875q0.65625 0.546875 0.65625 1.765625l0 4.78125l-0.828125 0zm-0.3125 -3.40625l-1.03125 0.046875q-1.25 0.046875 -1.765625 0.390625q-0.515625 0.328125 -0.515625 1.03125q0 1.125 1.265625 1.125q0.9375 0 1.484375 -0.515625q0.5625 -0.515625 0.5625 -1.453125l0 -0.625zm4.779541 2.53125l-0.078125 0q0.078125 0.8125 0.078125 1.015625l0 2.984375l-1.15625 0l0 -10.09375l0.9375 0l0.171875 0.9375l0.046875 0q0.703125 -1.0625 2.046875 -1.0625q1.28125 0 2.0 0.953125q0.734375 0.9375 0.734375 2.640625q0 1.71875 -0.734375 2.671875q-0.734375 0.953125 -2.0 0.953125q-1.3125 0 -2.046875 -1.0zm0 -2.890625l0 0.265625q0 1.4375 0.4375 2.0625q0.453125 0.609375 1.40625 0.609375q1.734375 0 1.734375 -2.6875q0 -2.625 -1.734375 -2.625q-0.96875 0 -1.390625 0.5625q-0.421875 0.5625 -0.453125 1.8125zm9.732544 1.859375q0.96875 0 0.96875 1.046875q0 1.0625 -0.96875 1.0625q-0.953125 0 -0.953125 -1.0625q0 -1.046875 0.953125 -1.046875zm7.998169 0q0.96875 0 0.96875 1.046875q0 1.0625 -0.96875 1.0625q-0.953125 0 -0.953125 -1.0625q0 -1.046875 0.953125 -1.046875zm7.998169 0q0.96875 0 0.96875 1.046875q0 1.0625 -0.96875 1.0625q-0.953125 0 -0.953125 -1.0625q0 -1.046875 0.953125 -1.046875z" fill-rule="nonzero"></path><path fill="#000000" fill-opacity="0.0" d="m815.6772 267.7874l91.810974 0l0 31.873993l-91.810974 0z" fill-rule="nonzero"></path><path fill="#000000" d="m830.3178 283.55615l0.046875 0l0.171875 -0.9375l0.9375 0l0 10.09375l-1.15625 0l0 -2.984375q0 -0.25 0.078125 -1.078125l-0.078125 0q-0.71875 1.0625 -2.046875 1.0625q-1.265625 0 -2.0 -0.9375q-0.71875 -0.953125 -0.71875 -2.65625q0 -1.71875 0.71875 -2.671875q0.734375 -0.953125 2.0 -0.953125q1.3125 0 2.046875 1.0625zm0 2.8125l0 -0.25q0 -1.4375 -0.4375 -2.046875q-0.4375 -0.625 -1.40625 -0.625q-1.734375 0 -1.734375 2.6875q0 2.625 1.75 2.625q0.96875 0 1.390625 -0.5625q0.421875 -0.5625 0.4375 -1.828125zm9.498169 -3.75l0 0.71875l-1.234375 0.171875q0.40625 0.53125 0.40625 1.34375q0 1.03125 -0.671875 1.640625q-0.671875 0.59375 -1.875 0.59375q-0.359375 0 -0.546875 -0.03125q-0.640625 0.359375 -0.640625 0.84375q0 0.53125 1.015625 0.53125l1.1875 0q1.109375 0 1.6875 0.5q0.59375 0.484375 0.59375 1.390625q0 2.390625 -3.59375 2.390625q-1.375 0 -2.109375 -0.515625q-0.71875 -0.515625 -0.71875 -1.421875q0 -1.359375 1.53125 -1.71875q-0.609375 -0.296875 -0.609375 -0.984375q0 -0.703125 0.84375 -1.21875q-0.5625 -0.234375 -0.890625 -0.765625q-0.328125 -0.546875 -0.328125 -1.1875q0 -1.15625 0.671875 -1.78125q0.6875 -0.625 1.9375 -0.625q0.546875 0 0.953125 0.125l2.390625 0zm-3.375 3.6875q1.421875 0 1.421875 -1.46875q0 -1.515625 -1.421875 -1.515625q-1.4375 0 -1.4375 1.53125q0 1.453125 1.4375 1.453125zm0.625 3.171875l-1.1875 0q-1.46875 0 -1.46875 1.25q0 1.109375 1.71875 1.109375q2.515625 0 2.515625 -1.421875q0 -0.5625 -0.328125 -0.75q-0.3125 -0.1875 -1.25 -0.1875zm7.498169 -1.796875q0.96875 0 0.96875 1.046875q0 1.0625 -0.96875 1.0625q-0.953125 0 -0.953125 -1.0625q0 -1.046875 0.953125 -1.046875zm7.998169 0q0.96875 0 0.96875 1.046875q0 1.0625 -0.96875 1.0625q-0.953125 0 -0.953125 -1.0625q0 -1.046875 0.953125 -1.046875zm7.99823 0q0.96875 0 0.96875 1.046875q0 1.0625 -0.96875 1.0625q-0.953125 0 -0.953125 -1.0625q0 -1.046875 0.953125 -1.046875z" fill-rule="nonzero"></path><path fill="#000000" fill-opacity="0.0" d="m309.021 210.97113l75.24411 0l0 31.874008l-75.24411 0z" fill-rule="nonzero"></path><path fill="#000000" d="m324.48975 231.81801l0 0.875q-0.8125 0.203125 -1.59375 0.203125q-2.296875 0 -2.296875 -2.1875l0 -4.03125l-1.703125 0l0 -0.609375l1.703125 -0.3125l0.484375 -1.8125l0.671875 0l0 1.859375l2.78125 0l0 0.875l-2.78125 0l0 4.03125q0 1.25 1.21875 1.25q0.59375 0 1.515625 -0.140625zm7.2169495 0.953125l-0.234375 -0.96875l-0.0625 0q-0.484375 0.625 -1.0 0.859375q-0.515625 0.234375 -1.328125 0.234375q-1.03125 0 -1.625 -0.546875q-0.578125 -0.546875 -0.578125 -1.53125q0 -2.109375 3.234375 -2.203125l1.296875 -0.046875l0 -0.4375q0 -1.5 -1.5625 -1.5q-0.921875 0 -2.078125 0.515625l-0.390625 -0.859375q1.234375 -0.609375 2.421875 -0.609375q1.4375 0 2.078125 0.546875q0.65625 0.546875 0.65625 1.765625l0 4.78125l-0.828125 0zm-0.3125 -3.40625l-1.03125 0.046875q-1.25 0.046875 -1.765625 0.390625q-0.515625 0.328125 -0.515625 1.03125q0 1.125 1.265625 1.125q0.9375 0 1.484375 -0.515625q0.5625 -0.515625 0.5625 -1.453125l0 -0.625zm4.779419 2.53125l-0.078125 0q0.078125 0.8125 0.078125 1.015625l0 2.984375l-1.15625 0l0 -10.09375l0.9375 0l0.171875 0.9375l0.046875 0q0.703125 -1.0625 2.046875 -1.0625q1.28125 0 2.0 0.953125q0.734375 0.9375 0.734375 2.640625q0 1.71875 -0.734375 2.671875q-0.734375 0.953125 -2.0 0.953125q-1.3125 0 -2.046875 -1.0zm0 -2.890625l0 0.265625q0 1.4375 0.4375 2.0625q0.453125 0.609375 1.40625 0.609375q1.734375 0 1.734375 -2.6875q0 -2.625 -1.734375 -2.625q-0.96875 0 -1.390625 0.5625q-0.421875 0.5625 -0.453125 1.8125zm9.732574 1.859375q0.96875 0 0.96875 1.046875q0 1.0625 -0.96875 1.0625q-0.953125 0 -0.953125 -1.0625q0 -1.046875 0.953125 -1.046875zm7.998169 0q0.96875 0 0.96875 1.046875q0 1.0625 -0.96875 1.0625q-0.953125 0 -0.953125 -1.0625q0 -1.046875 0.953125 -1.046875zm7.9981995 0q0.96875 0 0.96875 1.046875q0 1.0625 -0.96875 1.0625q-0.953125 0 -0.953125 -1.0625q0 -1.046875 0.953125 -1.046875z" fill-rule="nonzero"></path><path fill="#000000" fill-opacity="0.0" d="m320.36484 316.39764l75.24408 0l0 31.874023l-75.24408 0z" fill-rule="nonzero"></path><path fill="#000000" d="m335.00546 332.16638l0.046875 0l0.171875 -0.9375l0.9375 0l0 10.09375l-1.15625 0l0 -2.984375q0 -0.25 0.078125 -1.078125l-0.078125 0q-0.71875 1.0625 -2.046875 1.0625q-1.265625 0 -2.0 -0.9375q-0.71875 -0.953125 -0.71875 -2.65625q0 -1.71875 0.71875 -2.671875q0.734375 -0.953125 2.0 -0.953125q1.3125 0 2.046875 1.0625zm0 2.8125l0 -0.25q0 -1.4375 -0.4375 -2.046875q-0.4375 -0.625 -1.40625 -0.625q-1.734375 0 -1.734375 2.6875q0 2.625 1.75 2.625q0.96875 0 1.390625 -0.5625q0.421875 -0.5625 0.4375 -1.828125zm5.513794 3.21875l-2.640625 -6.96875l1.203125 0l1.515625 4.140625q0.546875 1.46875 0.640625 2.0625l0.03125 0q0.046875 -0.28125 0.640625 -2.0625l1.515625 -4.140625l1.203125 0l-2.640625 6.96875l-1.46875 0zm6.9981995 -0.875l-0.078125 0l-0.234375 0.875l-0.84375 0l0 -9.875l1.15625 0l0 2.390625q0 0.515625 -0.046875 1.421875l0.046875 0q0.6875 -1.03125 2.046875 -1.03125q1.28125 0 2.0 0.953125q0.734375 0.9375 0.734375 2.640625q0 1.71875 -0.734375 2.671875q-0.734375 0.953125 -2.0 0.953125q-1.3125 0 -2.046875 -1.0zm0 -2.625q0 1.4375 0.4375 2.0625q0.453125 0.609375 1.40625 0.609375q1.734375 0 1.734375 -2.6875q0 -2.625 -1.734375 -2.625q-0.984375 0 -1.421875 0.609375q-0.421875 0.59375 -0.421875 2.03125zm9.732544 1.59375q0.96875 0 0.96875 1.046875q0 1.0625 -0.96875 1.0625q-0.953125 0 -0.953125 -1.0625q0 -1.046875 0.953125 -1.046875zm7.9981995 0q0.96875 0 0.96875 1.046875q0 1.0625 -0.96875 1.0625q-0.953125 0 -0.953125 -1.0625q0 -1.046875 0.953125 -1.046875zm7.998169 0q0.96875 0 0.96875 1.046875q0 1.0625 -0.96875 1.0625q-0.953125 0 -0.953125 -1.0625q0 -1.046875 0.953125 -1.046875z" fill-rule="nonzero"></path><path fill="#000000" fill-opacity="0.0" d="m309.021 186.97113l75.24411 0l0 31.874008l-75.24411 0z" fill-rule="nonzero"></path><path fill="#000000" d="m324.97412 205.50551l-4.90625 0q0.046875 2.390625 2.1875 2.390625q1.234375 0 2.34375 -0.484375l0 1.015625q-1.0625 0.46875 -2.3125 0.46875q-1.5625 0 -2.5 -0.9375q-0.921875 -0.953125 -0.921875 -2.625q0 -1.6875 0.859375 -2.671875q0.859375 -0.984375 2.296875 -0.984375q1.34375 0 2.140625 0.859375q0.8125 0.84375 0.8125 2.25l0 0.71875zm-4.890625 -0.9375l3.640625 0q0 -1.9375 -1.71875 -1.9375q-1.75 0 -1.921875 1.9375zm12.404449 3.25l0 0.875q-0.8125 0.203125 -1.59375 0.203125q-2.296875 0 -2.296875 -2.1875l0 -4.03125l-1.703125 0l0 -0.609375l1.703125 -0.3125l0.484375 -1.8125l0.671875 0l0 1.859375l2.78125 0l0 0.875l-2.78125 0l0 4.03125q0 1.25 1.21875 1.25q0.59375 0 1.515625 -0.140625zm7.154419 0.953125l0 -4.484375q0 -1.65625 -1.5 -1.65625q-1.953125 0 -1.953125 2.53125l0 3.609375l-1.15625 0l0 -9.875l1.15625 0l0 2.9375l-0.046875 0.90625l0.0625 0q0.65625 -1.0625 2.125 -1.0625q2.46875 0 2.46875 2.546875l0 4.546875l-1.15625 0zm6.2638245 0.125q-1.453125 0 -2.203125 -1.21875q-0.75 -1.234375 -0.75 -3.5625q0 -4.765625 2.953125 -4.765625q1.46875 0 2.21875 1.234375q0.75 1.21875 0.75 3.53125q0 4.78125 -2.96875 4.78125zm0 -0.984375q0.921875 0 1.359375 -0.890625q0.4375 -0.890625 0.4375 -2.90625q0 -2.0 -0.4375 -2.890625q-0.4375 -0.890625 -1.359375 -0.890625q-0.921875 0 -1.359375 0.890625q-0.421875 0.875 -0.421875 2.890625q0 2.015625 0.421875 2.90625q0.4375 0.890625 1.359375 0.890625z" fill-rule="nonzero"></path><path fill="#000000" fill-opacity="0.0" d="m312.36484 372.39764l75.24408 0l0 31.874023l-75.24408 0z" fill-rule="nonzero"></path><path fill="#000000" d="m327.00546 388.16638l0.046875 0l0.171875 -0.9375l0.9375 0l0 10.09375l-1.15625 0l0 -2.984375q0 -0.25 0.078125 -1.078125l-0.078125 0q-0.71875 1.0625 -2.046875 1.0625q-1.265625 0 -2.0 -0.9375q-0.71875 -0.953125 -0.71875 -2.65625q0 -1.71875 0.71875 -2.671875q0.734375 -0.953125 2.0 -0.953125q1.3125 0 2.046875 1.0625zm0 2.8125l0 -0.25q0 -1.4375 -0.4375 -2.046875q-0.4375 -0.625 -1.40625 -0.625q-1.734375 0 -1.734375 2.6875q0 2.625 1.75 2.625q0.96875 0 1.390625 -0.5625q0.421875 -0.5625 0.4375 -1.828125zm5.513794 3.21875l-2.640625 -6.96875l1.203125 0l1.515625 4.140625q0.546875 1.46875 0.640625 2.0625l0.03125 0q0.046875 -0.28125 0.640625 -2.0625l1.515625 -4.140625l1.203125 0l-2.640625 6.96875l-1.46875 0zm8.716949 0.125q-1.375 0 -2.265625 -0.984375q-0.875 -0.984375 -0.875 -2.640625q0 -1.671875 0.859375 -2.625q0.859375 -0.96875 2.3125 -0.96875q1.390625 0 2.265625 0.984375q0.890625 0.984375 0.890625 2.609375q0 1.6875 -0.875 2.65625q-0.875 0.96875 -2.3125 0.96875zm0.015625 -0.953125q1.96875 0 1.96875 -2.671875q0 -2.640625 -1.96875 -2.640625q-1.96875 0 -1.96875 2.640625q0 2.671875 1.96875 2.671875zm7.998169 -1.078125q0.96875 0 0.96875 1.046875q0 1.0625 -0.96875 1.0625q-0.953125 0 -0.953125 -1.0625q0 -1.046875 0.953125 -1.046875zm7.9981995 0q0.96875 0 0.96875 1.046875q0 1.0625 -0.96875 1.0625q-0.953125 0 -0.953125 -1.0625q0 -1.046875 0.953125 -1.046875zm7.998169 0q0.96875 0 0.96875 1.046875q0 1.0625 -0.96875 1.0625q-0.953125 0 -0.953125 -1.0625q0 -1.046875 0.953125 -1.046875z" fill-rule="nonzero"></path><path fill="#000000" fill-opacity="0.0" d="m575.6772 563.7874l91.810974 0l0 31.874023l-91.810974 0z" fill-rule="nonzero"></path><path fill="#000000" d="m591.8178 578.61865l0 0.71875l-1.234375 0.171875q0.40625 0.53125 0.40625 1.34375q0 1.03125 -0.671875 1.640625q-0.671875 0.59375 -1.875 0.59375q-0.359375 0 -0.546875 -0.03125q-0.640625 0.359375 -0.640625 0.84375q0 0.53125 1.015625 0.53125l1.1875 0q1.109375 0 1.6875 0.5q0.59375 0.484375 0.59375 1.390625q0 2.390625 -3.59375 2.390625q-1.375 0 -2.109375 -0.515625q-0.71875 -0.515625 -0.71875 -1.421875q0 -1.359375 1.53125 -1.71875q-0.609375 -0.296875 -0.609375 -0.984375q0 -0.703125 0.84375 -1.21875q-0.5625 -0.234375 -0.890625 -0.765625q-0.328125 -0.546875 -0.328125 -1.1875q0 -1.15625 0.671875 -1.78125q0.6875 -0.625 1.9375 -0.625q0.546875 0 0.953125 0.125l2.390625 0zm-3.375 3.6875q1.421875 0 1.421875 -1.46875q0 -1.515625 -1.421875 -1.515625q-1.4375 0 -1.4375 1.53125q0 1.453125 1.4375 1.453125zm0.625 3.171875l-1.1875 0q-1.46875 0 -1.46875 1.25q0 1.109375 1.71875 1.109375q2.515625 0 2.515625 -1.421875q0 -0.5625 -0.328125 -0.75q-0.3125 -0.1875 -1.25 -0.1875zm10.326294 -6.703125l-0.3125 1.0625q-0.78125 -0.296875 -1.421875 -0.296875q-1.03125 0 -1.59375 0.59375q-0.5625 0.578125 -0.5625 1.6875l0 3.765625l-1.15625 0l0 -6.96875l0.9375 0l0.140625 1.28125l0.0625 0q0.46875 -0.765625 1.015625 -1.078125q0.5625 -0.328125 1.375 -0.328125q0.75 0 1.515625 0.28125zm8.232544 3.546875l-4.90625 0q0.046875 2.390625 2.1875 2.390625q1.234375 0 2.34375 -0.484375l0 1.015625q-1.0625 0.46875 -2.3125 0.46875q-1.5625 0 -2.5 -0.9375q-0.921875 -0.953125 -0.921875 -2.625q0 -1.6875 0.859375 -2.671875q0.859375 -0.984375 2.296875 -0.984375q1.34375 0 2.140625 0.859375q0.8125 0.84375 0.8125 2.25l0 0.71875zm-4.890625 -0.9375l3.640625 0q0 -1.9375 -1.71875 -1.9375q-1.75 0 -1.921875 1.9375zm7.748169 1.25l0 -1.0625l4.1875 0l0 1.0625l-4.1875 0zm10.99823 2.953125l-1.125 0l0 -5.796875q0 -0.765625 0.0625 -2.296875q-0.25 0.28125 -0.765625 0.71875l-0.9375 0.765625l-0.625 -0.765625l2.4375 -1.90625l0.953125 0l0 9.28125z" fill-rule="nonzero"></path><path fill="#000000" fill-opacity="0.0" d="m303.67715 563.7874l91.811035 0l0 31.874023l-91.811035 0z" fill-rule="nonzero"></path><path fill="#000000" d="m319.81778 578.61865l0 0.71875l-1.234375 0.171875q0.40625 0.53125 0.40625 1.34375q0 1.03125 -0.671875 1.640625q-0.671875 0.59375 -1.875 0.59375q-0.359375 0 -0.546875 -0.03125q-0.640625 0.359375 -0.640625 0.84375q0 0.53125 1.015625 0.53125l1.1875 0q1.109375 0 1.6875 0.5q0.59375 0.484375 0.59375 1.390625q0 2.390625 -3.59375 2.390625q-1.375 0 -2.109375 -0.515625q-0.71875 -0.515625 -0.71875 -1.421875q0 -1.359375 1.53125 -1.71875q-0.609375 -0.296875 -0.609375 -0.984375q0 -0.703125 0.84375 -1.21875q-0.5625 -0.234375 -0.890625 -0.765625q-0.328125 -0.546875 -0.328125 -1.1875q0 -1.15625 0.671875 -1.78125q0.6875 -0.625 1.9375 -0.625q0.546875 0 0.953125 0.125l2.390625 0zm-3.375 3.6875q1.421875 0 1.421875 -1.46875q0 -1.515625 -1.421875 -1.515625q-1.4375 0 -1.4375 1.53125q0 1.453125 1.4375 1.453125zm0.625 3.171875l-1.1875 0q-1.46875 0 -1.46875 1.25q0 1.109375 1.71875 1.109375q2.515625 0 2.515625 -1.421875q0 -0.5625 -0.328125 -0.75q-0.3125 -0.1875 -1.25 -0.1875zm10.326324 -6.703125l-0.3125 1.0625q-0.78125 -0.296875 -1.421875 -0.296875q-1.03125 0 -1.59375 0.59375q-0.5625 0.578125 -0.5625 1.6875l0 3.765625l-1.15625 0l0 -6.96875l0.9375 0l0.140625 1.28125l0.0625 0q0.46875 -0.765625 1.015625 -1.078125q0.5625 -0.328125 1.375 -0.328125q0.75 0 1.515625 0.28125zm8.232544 3.546875l-4.90625 0q0.046875 2.390625 2.1875 2.390625q1.234375 0 2.34375 -0.484375l0 1.015625q-1.0625 0.46875 -2.3125 0.46875q-1.5625 0 -2.5 -0.9375q-0.921875 -0.953125 -0.921875 -2.625q0 -1.6875 0.859375 -2.671875q0.859375 -0.984375 2.296875 -0.984375q1.34375 0 2.140625 0.859375q0.8125 0.84375 0.8125 2.25l0 0.71875zm-4.890625 -0.9375l3.640625 0q0 -1.9375 -1.71875 -1.9375q-1.75 0 -1.921875 1.9375zm7.7481995 1.25l0 -1.0625l4.1875 0l0 1.0625l-4.1875 0zm12.966919 2.953125l-5.78125 0l0 -0.984375l2.21875 -2.421875q1.25 -1.359375 1.640625 -2.015625q0.390625 -0.671875 0.390625 -1.46875q0 -0.71875 -0.40625 -1.125q-0.40625 -0.421875 -1.078125 -0.421875q-1.015625 0 -2.03125 0.875l-0.640625 -0.765625q1.21875 -1.078125 2.671875 -1.078125q1.234375 0 1.9375 0.671875q0.71875 0.671875 0.71875 1.796875q0 0.765625 -0.375 1.5625q-0.375 0.78125 -1.84375 2.375l-1.78125 1.890625l0 0.0625l4.359375 0l0 1.046875z" fill-rule="nonzero"></path><path fill="#d9ead3" d="m1039.5355 242.84514l70.88696 0c1.321167 0 2.588379 0.5248718 3.522583 1.4591217c0.9343262 0.9342499 1.4591064 2.2013702 1.4591064 3.5226135l0 24.90802c0 3.9672852E-4 -2.4414062E-4 7.019043E-4 -6.1035156E-4 7.019043E-4l-80.84973 -7.019043E-4l0 0c-3.6621094E-4 0 -7.324219E-4 -2.746582E-4 -7.324219E-4 -6.713867E-4l7.324219E-4 -24.907349l0 0c0 -2.7513275 2.2303467 -4.981735 4.9816895 -4.981735z" fill-rule="nonzero"></path><path stroke="#000000" stroke-width="2.0" stroke-linejoin="round" stroke-linecap="butt" d="m1039.5355 242.84514l70.88696 0c1.321167 0 2.588379 0.5248718 3.522583 1.4591217c0.9343262 0.9342499 1.4591064 2.2013702 1.4591064 3.5226135l0 24.90802c0 3.9672852E-4 -2.4414062E-4 7.019043E-4 -6.1035156E-4 7.019043E-4l-80.84973 -7.019043E-4l0 0c-3.6621094E-4 0 -7.324219E-4 -2.746582E-4 -7.324219E-4 -6.713867E-4l7.324219E-4 -24.907349l0 0c0 -2.7513275 2.2303467 -4.981735 4.9816895 -4.981735z" fill-rule="nonzero"></path><path fill="#000000" d="m1052.6729 262.38208l-0.046875 0q-0.71875 1.0625 -2.046875 1.0625q-1.265625 0 -2.0 -0.9375q-0.71875 -0.953125 -0.71875 -2.65625q0 -1.71875 0.71875 -2.671875q0.734375 -0.953125 2.0 -0.953125q1.3125 0 2.046875 1.015625l0.078125 0q-0.078125 -0.828125 -0.078125 -1.03125l0 -2.765625l1.15625 0l0 9.875l-0.9375 0l-0.171875 -0.9375zm-0.046875 -2.28125l0 -0.25q0 -1.4375 -0.4375 -2.046875q-0.4375 -0.625 -1.40625 -0.625q-1.734375 0 -1.734375 2.6875q0 2.625 1.75 2.625q0.96875 0 1.390625 -0.5625q0.421875 -0.5625 0.4375 -1.828125zm7.982544 3.21875l0 -4.484375q0 -1.65625 -1.5 -1.65625q-1.953125 0 -1.953125 2.53125l0 3.609375l-1.15625 0l0 -6.96875l0.9375 0l0.171875 0.9375l0.0625 0q0.65625 -1.0625 2.125 -1.0625q2.46875 0 2.46875 2.546875l0 4.546875l-1.15625 0zm3.654419 -0.3125l0 -1.046875q1.234375 0.546875 2.359375 0.546875q1.75 0 1.75 -1.03125q0 -0.359375 -0.3125 -0.625q-0.3125 -0.28125 -1.4375 -0.6875q-1.484375 -0.546875 -1.875 -1.0q-0.375 -0.46875 -0.375 -1.09375q0 -0.859375 0.703125 -1.34375q0.71875 -0.5 1.96875 -0.5q1.25 0 2.34375 0.46875l-0.390625 0.9375q-1.15625 -0.453125 -2.015625 -0.453125q-1.5 0 -1.5 0.84375q0 0.390625 0.3125 0.625q0.328125 0.234375 1.484375 0.640625q1.328125 0.484375 1.765625 0.96875q0.453125 0.46875 0.453125 1.15625q0 0.953125 -0.75 1.5q-0.734375 0.53125 -2.09375 0.53125q-1.578125 0 -2.390625 -0.4375zm12.920044 0.3125l0 -4.484375q0 -0.9375 -0.171875 -1.296875q-0.171875 -0.359375 -0.5625 -0.359375q-0.546875 0 -0.796875 0.53125q-0.25 0.53125 -0.25 1.765625l0 3.84375l-1.03125 0l0 -4.484375q0 -1.65625 -0.78125 -1.65625q-0.546875 0 -0.78125 0.515625q-0.21875 0.5 -0.21875 2.015625l0 3.609375l-1.03125 0l0 -6.96875l0.8125 0l0.171875 0.9375l0.0625 0q0.421875 -1.0625 1.28125 -1.0625q1.03125 0 1.34375 1.15625l0.046875 0q0.484375 -1.15625 1.390625 -1.15625q0.8125 0 1.171875 0.59375q0.375 0.578125 0.375 1.953125l0 4.546875l-1.03125 0zm7.482666 0l-0.234375 -0.96875l-0.0625 0q-0.484375 0.625 -1.0 0.859375q-0.515625 0.234375 -1.328125 0.234375q-1.03125 0 -1.625 -0.546875q-0.578125 -0.546875 -0.578125 -1.53125q0 -2.109375 3.234375 -2.203125l1.296875 -0.046875l0 -0.4375q0 -1.5 -1.5625 -1.5q-0.921875 0 -2.078125 0.515625l-0.390625 -0.859375q1.234375 -0.609375 2.421875 -0.609375q1.4375 0 2.078125 0.546875q0.65625 0.546875 0.65625 1.765625l0 4.78125l-0.828125 0zm-0.3125 -3.40625l-1.03125 0.046875q-1.25 0.046875 -1.765625 0.390625q-0.515625 0.328125 -0.515625 1.03125q0 1.125 1.265625 1.125q0.9375 0 1.484375 -0.515625q0.5625 -0.515625 0.5625 -1.453125l0 -0.625zm3.904419 3.09375l0 -1.046875q1.234375 0.546875 2.359375 0.546875q1.75 0 1.75 -1.03125q0 -0.359375 -0.3125 -0.625q-0.3125 -0.28125 -1.4375 -0.6875q-1.484375 -0.546875 -1.875 -1.0q-0.375 -0.46875 -0.375 -1.09375q0 -0.859375 0.703125 -1.34375q0.71875 -0.5 1.96875 -0.5q1.25 0 2.34375 0.46875l-0.390625 0.9375q-1.15625 -0.453125 -2.015625 -0.453125q-1.5 0 -1.5 0.84375q0 0.390625 0.3125 0.625q0.328125 0.234375 1.484375 0.640625q1.328125 0.484375 1.765625 0.96875q0.453125 0.46875 0.453125 1.15625q0 0.953125 -0.75 1.5q-0.734375 0.53125 -2.09375 0.53125q-1.578125 0 -2.390625 -0.4375zm12.357544 -5.71875l0.046875 0l0.171875 -0.9375l0.9375 0l0 10.09375l-1.15625 0l0 -2.984375q0 -0.25 0.078125 -1.078125l-0.078125 0q-0.71875 1.0625 -2.046875 1.0625q-1.265625 0 -2.0 -0.9375q-0.71875 -0.953125 -0.71875 -2.65625q0 -1.71875 0.71875 -2.671875q0.734375 -0.953125 2.0 -0.953125q1.3125 0 2.046875 1.0625zm0 2.8125l0 -0.25q0 -1.4375 -0.4375 -2.046875q-0.4375 -0.625 -1.40625 -0.625q-1.734375 0 -1.734375 2.6875q0 2.625 1.75 2.625q0.96875 0 1.390625 -0.5625q0.421875 -0.5625 0.4375 -1.828125z" fill-rule="nonzero"></path></g></svg>

