<?xml version="1.0" encoding="UTF-8" standalone="no"?>
<!DOCTYPE svg PUBLIC "-//W3C//DTD SVG 1.1//EN"
 "http://www.w3.org/Graphics/SVG/1.1/DTD/svg11.dtd">
<!-- Generated by graphviz version 2.30.1 (20130712.1527)
 -->
<!-- Title: network Pages: 1 -->
<svg width="724pt" height="1024pt"
 viewBox="0.00 0.00 724.00 1024.00" xmlns="http://www.w3.org/2000/svg" xmlns:xlink="http://www.w3.org/1999/xlink">
<g id="graph0" class="graph" transform="scale(1 1) rotate(0) translate(4 1020)">
<title>network</title>
<polygon fill="white" stroke="white" points="-4,5 -4,-1020 721,-1020 721,5 -4,5"/>
<g id="clust1" class="cluster"><title>cluster_qdhcp&#45;3ff9b903&#45;e921&#45;4752&#45;a26f&#45;cba8f1433992</title>
<polygon fill="none" stroke="black" points="345,-411 345,-486 621,-486 621,-411 345,-411"/>
<text text-anchor="middle" x="483" y="-470.8" font-family="Times,serif" font-size="14.00">qdhcp&#45;3ff9b903&#45;e921&#45;4752&#45;a26f&#45;cba8f1433992</text>
</g>
<g id="clust2" class="cluster"><title>cluster_qdhcp&#45;4ce665dc&#45;c6ad&#45;4e4b&#45;887b&#45;ac4b93d92c88</title>
<polygon fill="none" stroke="black" points="343,-328 343,-403 624,-403 624,-328 343,-328"/>
<text text-anchor="middle" x="483.5" y="-387.8" font-family="Times,serif" font-size="14.00">qdhcp&#45;4ce665dc&#45;c6ad&#45;4e4b&#45;887b&#45;ac4b93d92c88</text>
</g>
<g id="clust3" class="cluster"><title>cluster_qrouter&#45;acc6b46f&#45;d040&#45;490f&#45;8d1f&#45;7d6f9a0df8d9</title>
<polygon fill="none" stroke="black" points="343,-145 343,-274 623,-274 623,-145 343,-145"/>
<text text-anchor="middle" x="483" y="-258.8" font-family="Times,serif" font-size="14.00">qrouter&#45;acc6b46f&#45;d040&#45;490f&#45;8d1f&#45;7d6f9a0df8d9</text>
</g>
<g id="clust4" class="cluster"><title>cluster_qrouter&#45;fc82e2ee&#45;f43b&#45;4917&#45;991a&#45;0f49d012212d</title>
<polygon fill="none" stroke="black" points="341,-8 341,-137 625,-137 625,-8 341,-8"/>
<text text-anchor="middle" x="483" y="-121.8" font-family="Times,serif" font-size="14.00">qrouter&#45;fc82e2ee&#45;f43b&#45;4917&#45;991a&#45;0f49d012212d</text>
</g>
<!-- qbr1589da68&#45;a5 -->
<g id="node1" class="node"><title>qbr1589da68&#45;a5</title>
<ellipse fill="olivedrab" stroke="olivedrab" cx="68" cy="-566" rx="68.4888" ry="18"/>
<text text-anchor="middle" x="68" y="-562.3" font-family="Times,serif" font-size="14.00">qbr1589da68&#45;a5</text>
</g>
<!-- qvb1589da68&#45;a5 -->
<g id="node22" class="node"><title>qvb1589da68&#45;a5</title>
<ellipse fill="lightgrey" stroke="lightgrey" cx="242" cy="-566" rx="69.5877" ry="18"/>
<text text-anchor="middle" x="242" y="-562.3" font-family="Times,serif" font-size="14.00">qvb1589da68&#45;a5</text>
</g>
<!-- qbr1589da68&#45;a5&#45;&gt;qvb1589da68&#45;a5 -->
<g id="edge17" class="edge"><title>qbr1589da68&#45;a5&#45;&gt;qvb1589da68&#45;a5</title>
<path fill="none" stroke="black" d="M146.506,-566C151.745,-566 157.028,-566 162.273,-566"/>
<polygon fill="black" stroke="black" points="146.485,-562.5 136.485,-566 146.485,-569.5 146.485,-562.5"/>
<polygon fill="black" stroke="black" points="162.296,-569.5 172.296,-566 162.296,-562.5 162.296,-569.5"/>
</g>
<!-- tap1589da68&#45;a5 -->
<g id="node17" class="node"><title>tap1589da68&#45;a5</title>
<ellipse fill="#7f7f7f" stroke="#7f7f7f" cx="242" cy="-512" rx="67.6881" ry="18"/>
<text text-anchor="middle" x="242" y="-508.3" font-family="Times,serif" font-size="14.00">tap1589da68&#45;a5</text>
</g>
<!-- qbr1589da68&#45;a5&#45;&gt;tap1589da68&#45;a5 -->
<g id="edge18" class="edge"><title>qbr1589da68&#45;a5&#45;&gt;tap1589da68&#45;a5</title>
<path fill="none" stroke="black" d="M122.561,-549.184C143.371,-542.651 167.151,-535.185 187.915,-528.666"/>
<polygon fill="black" stroke="black" points="121.34,-545.899 112.848,-552.234 123.437,-552.578 121.34,-545.899"/>
<polygon fill="black" stroke="black" points="189.038,-531.982 197.53,-525.647 186.941,-525.304 189.038,-531.982"/>
</g>
<!-- qbr299b54bf&#45;be -->
<g id="node2" class="node"><title>qbr299b54bf&#45;be</title>
<ellipse fill="olivedrab" stroke="olivedrab" cx="68" cy="-728" rx="67.6881" ry="18"/>
<text text-anchor="middle" x="68" y="-724.3" font-family="Times,serif" font-size="14.00">qbr299b54bf&#45;be</text>
</g>
<!-- qvb299b54bf&#45;be -->
<g id="node23" class="node"><title>qvb299b54bf&#45;be</title>
<ellipse fill="lightgrey" stroke="lightgrey" cx="242" cy="-728" rx="68.7879" ry="18"/>
<text text-anchor="middle" x="242" y="-724.3" font-family="Times,serif" font-size="14.00">qvb299b54bf&#45;be</text>
</g>
<!-- qbr299b54bf&#45;be&#45;&gt;qvb299b54bf&#45;be -->
<g id="edge19" class="edge"><title>qbr299b54bf&#45;be&#45;&gt;qvb299b54bf&#45;be</title>
<path fill="none" stroke="black" d="M146.072,-728C151.695,-728 157.37,-728 162.998,-728"/>
<polygon fill="black" stroke="black" points="145.992,-724.5 135.992,-728 145.992,-731.5 145.992,-724.5"/>
<polygon fill="black" stroke="black" points="163.058,-731.5 173.058,-728 163.058,-724.5 163.058,-731.5"/>
</g>
<!-- tap299b54bf&#45;be -->
<g id="node18" class="node"><title>tap299b54bf&#45;be</title>
<ellipse fill="#7f7f7f" stroke="#7f7f7f" cx="242" cy="-782" rx="66.0889" ry="18"/>
<text text-anchor="middle" x="242" y="-778.3" font-family="Times,serif" font-size="14.00">tap299b54bf&#45;be</text>
</g>
<!-- qbr299b54bf&#45;be&#45;&gt;tap299b54bf&#45;be -->
<g id="edge20" class="edge"><title>qbr299b54bf&#45;be&#45;&gt;tap299b54bf&#45;be</title>
<path fill="none" stroke="black" d="M122.196,-744.701C143.192,-751.293 167.256,-758.848 188.211,-765.427"/>
<polygon fill="black" stroke="black" points="122.992,-741.283 112.403,-741.626 120.895,-747.961 122.992,-741.283"/>
<polygon fill="black" stroke="black" points="187.32,-768.815 197.909,-768.472 189.417,-762.137 187.32,-768.815"/>
</g>
<!-- qbr3c7f572e&#45;78 -->
<g id="node3" class="node"><title>qbr3c7f572e&#45;78</title>
<ellipse fill="olivedrab" stroke="olivedrab" cx="68" cy="-620" rx="66.8882" ry="18"/>
<text text-anchor="middle" x="68" y="-616.3" font-family="Times,serif" font-size="14.00">qbr3c7f572e&#45;78</text>
</g>
<!-- qvb3c7f572e&#45;78 -->
<g id="node24" class="node"><title>qvb3c7f572e&#45;78</title>
<ellipse fill="lightgrey" stroke="lightgrey" cx="242" cy="-620" rx="68.4888" ry="18"/>
<text text-anchor="middle" x="242" y="-616.3" font-family="Times,serif" font-size="14.00">qvb3c7f572e&#45;78</text>
</g>
<!-- qbr3c7f572e&#45;78&#45;&gt;qvb3c7f572e&#45;78 -->
<g id="edge21" class="edge"><title>qbr3c7f572e&#45;78&#45;&gt;qvb3c7f572e&#45;78</title>
<path fill="none" stroke="black" d="M145.232,-620C151.318,-620 157.471,-620 163.566,-620"/>
<polygon fill="black" stroke="black" points="145.008,-616.5 135.008,-620 145.008,-623.5 145.008,-616.5"/>
<polygon fill="black" stroke="black" points="163.746,-623.5 173.746,-620 163.746,-616.5 163.746,-623.5"/>
</g>
<!-- tap3c7f572e&#45;78 -->
<g id="node19" class="node"><title>tap3c7f572e&#45;78</title>
<ellipse fill="#7f7f7f" stroke="#7f7f7f" cx="242" cy="-674" rx="65.7887" ry="18"/>
<text text-anchor="middle" x="242" y="-670.3" font-family="Times,serif" font-size="14.00">tap3c7f572e&#45;78</text>
</g>
<!-- qbr3c7f572e&#45;78&#45;&gt;tap3c7f572e&#45;78 -->
<g id="edge22" class="edge"><title>qbr3c7f572e&#45;78&#45;&gt;tap3c7f572e&#45;78</title>
<path fill="none" stroke="black" d="M122.234,-636.713C143.313,-643.331 167.481,-650.918 188.488,-657.514"/>
<polygon fill="black" stroke="black" points="122.992,-633.283 112.403,-633.626 120.895,-639.961 122.992,-633.283"/>
<polygon fill="black" stroke="black" points="187.618,-660.909 198.207,-660.565 189.714,-654.23 187.618,-660.909"/>
</g>
<!-- qbr73dbbdec&#45;c6 -->
<g id="node4" class="node"><title>qbr73dbbdec&#45;c6</title>
<ellipse fill="olivedrab" stroke="olivedrab" cx="68" cy="-296" rx="67.6881" ry="18"/>
<text text-anchor="middle" x="68" y="-292.3" font-family="Times,serif" font-size="14.00">qbr73dbbdec&#45;c6</text>
</g>
<!-- qvb73dbbdec&#45;c6 -->
<g id="node25" class="node"><title>qvb73dbbdec&#45;c6</title>
<ellipse fill="lightgrey" stroke="lightgrey" cx="242" cy="-296" rx="69.5877" ry="18"/>
<text text-anchor="middle" x="242" y="-292.3" font-family="Times,serif" font-size="14.00">qvb73dbbdec&#45;c6</text>
</g>
<!-- qbr73dbbdec&#45;c6&#45;&gt;qvb73dbbdec&#45;c6 -->
<g id="edge23" class="edge"><title>qbr73dbbdec&#45;c6&#45;&gt;qvb73dbbdec&#45;c6</title>
<path fill="none" stroke="black" d="M146.12,-296C151.417,-296 156.76,-296 162.067,-296"/>
<polygon fill="black" stroke="black" points="145.992,-292.5 135.992,-296 145.992,-299.5 145.992,-292.5"/>
<polygon fill="black" stroke="black" points="162.206,-299.5 172.206,-296 162.206,-292.5 162.206,-299.5"/>
</g>
<!-- tap73dbbdec&#45;c6 -->
<g id="node20" class="node"><title>tap73dbbdec&#45;c6</title>
<ellipse fill="#7f7f7f" stroke="#7f7f7f" cx="242" cy="-350" rx="66.8882" ry="18"/>
<text text-anchor="middle" x="242" y="-346.3" font-family="Times,serif" font-size="14.00">tap73dbbdec&#45;c6</text>
</g>
<!-- qbr73dbbdec&#45;c6&#45;&gt;tap73dbbdec&#45;c6 -->
<g id="edge24" class="edge"><title>qbr73dbbdec&#45;c6&#45;&gt;tap73dbbdec&#45;c6</title>
<path fill="none" stroke="black" d="M122.158,-312.689C143.07,-319.254 167.031,-326.777 187.934,-333.34"/>
<polygon fill="black" stroke="black" points="122.992,-309.283 112.403,-309.626 120.895,-315.961 122.992,-309.283"/>
<polygon fill="black" stroke="black" points="187.022,-336.722 197.611,-336.378 189.119,-330.043 187.022,-336.722"/>
</g>
<!-- qbrf06f2fd3&#45;5a -->
<g id="node5" class="node"><title>qbrf06f2fd3&#45;5a</title>
<ellipse fill="olivedrab" stroke="olivedrab" cx="68" cy="-458" rx="64.189" ry="18"/>
<text text-anchor="middle" x="68" y="-454.3" font-family="Times,serif" font-size="14.00">qbrf06f2fd3&#45;5a</text>
</g>
<!-- qvbf06f2fd3&#45;5a -->
<g id="node26" class="node"><title>qvbf06f2fd3&#45;5a</title>
<ellipse fill="lightgrey" stroke="lightgrey" cx="242" cy="-458" rx="65.7887" ry="18"/>
<text text-anchor="middle" x="242" y="-454.3" font-family="Times,serif" font-size="14.00">qvbf06f2fd3&#45;5a</text>
</g>
<!-- qbrf06f2fd3&#45;5a&#45;&gt;qvbf06f2fd3&#45;5a -->
<g id="edge25" class="edge"><title>qbrf06f2fd3&#45;5a&#45;&gt;qvbf06f2fd3&#45;5a</title>
<path fill="none" stroke="black" d="M142.707,-458C150.468,-458 158.366,-458 166.14,-458"/>
<polygon fill="black" stroke="black" points="142.558,-454.5 132.558,-458 142.558,-461.5 142.558,-454.5"/>
<polygon fill="black" stroke="black" points="166.266,-461.5 176.266,-458 166.266,-454.5 166.266,-461.5"/>
</g>
<!-- tapf06f2fd3&#45;5a -->
<g id="node21" class="node"><title>tapf06f2fd3&#45;5a</title>
<ellipse fill="#7f7f7f" stroke="#7f7f7f" cx="242" cy="-404" rx="63.8893" ry="18"/>
<text text-anchor="middle" x="242" y="-400.3" font-family="Times,serif" font-size="14.00">tapf06f2fd3&#45;5a</text>
</g>
<!-- qbrf06f2fd3&#45;5a&#45;&gt;tapf06f2fd3&#45;5a -->
<g id="edge26" class="edge"><title>qbrf06f2fd3&#45;5a&#45;&gt;tapf06f2fd3&#45;5a</title>
<path fill="none" stroke="black" d="M121.14,-441.63C142.664,-434.873 167.555,-427.058 189.057,-420.308"/>
<polygon fill="black" stroke="black" points="120.009,-438.317 111.517,-444.652 122.106,-444.996 120.009,-438.317"/>
<polygon fill="black" stroke="black" points="190.182,-423.623 198.674,-417.288 188.085,-416.944 190.182,-423.623"/>
</g>
<!-- virbr1 -->
<g id="node6" class="node"><title>virbr1</title>
<ellipse fill="olivedrab" stroke="olivedrab" cx="68" cy="-836" rx="32.4942" ry="18"/>
<text text-anchor="middle" x="68" y="-832.3" font-family="Times,serif" font-size="14.00">virbr1</text>
</g>
<!-- virbr2 -->
<g id="node7" class="node"><title>virbr2</title>
<ellipse fill="olivedrab" stroke="olivedrab" cx="68" cy="-890" rx="32.4942" ry="18"/>
<text text-anchor="middle" x="68" y="-886.3" font-family="Times,serif" font-size="14.00">virbr2</text>
</g>
<!-- em1 -->
<g id="node8" class="node"><title>em1</title>
<ellipse fill="#7f7f7f" stroke="#7f7f7f" cx="68" cy="-944" rx="27" ry="18"/>
<text text-anchor="middle" x="68" y="-940.3" font-family="Times,serif" font-size="14.00">em1</text>
</g>
<!-- instance&#45;00000044 -->
<g id="node9" class="node"><title>instance&#45;00000044</title>
<polygon fill="tomato" stroke="tomato" points="127.5,-530 8.5,-530 8.5,-494 127.5,-494 127.5,-530"/>
<text text-anchor="middle" x="68" y="-508.3" font-family="Times,serif" font-size="14.00">instance&#45;00000044</text>
</g>
<!-- instance&#45;00000044&#45;&gt;tap1589da68&#45;a5 -->
<g id="edge1" class="edge"><title>instance&#45;00000044&#45;&gt;tap1589da68&#45;a5</title>
<path fill="none" stroke="black" d="M138.064,-512C146.646,-512 155.462,-512 164.153,-512"/>
<polygon fill="black" stroke="black" points="137.712,-508.5 127.712,-512 137.712,-515.5 137.712,-508.5"/>
<polygon fill="black" stroke="black" points="164.275,-515.5 174.275,-512 164.275,-508.5 164.275,-515.5"/>
</g>
<!-- instance&#45;00000049 -->
<g id="node10" class="node"><title>instance&#45;00000049</title>
<polygon fill="tomato" stroke="tomato" points="127.5,-422 8.5,-422 8.5,-386 127.5,-386 127.5,-422"/>
<text text-anchor="middle" x="68" y="-400.3" font-family="Times,serif" font-size="14.00">instance&#45;00000049</text>
</g>
<!-- instance&#45;00000049&#45;&gt;tapf06f2fd3&#45;5a -->
<g id="edge2" class="edge"><title>instance&#45;00000049&#45;&gt;tapf06f2fd3&#45;5a</title>
<path fill="none" stroke="black" d="M137.772,-404C147.668,-404 157.88,-404 167.857,-404"/>
<polygon fill="black" stroke="black" points="137.712,-400.5 127.712,-404 137.712,-407.5 137.712,-400.5"/>
<polygon fill="black" stroke="black" points="168.144,-407.5 178.144,-404 168.144,-400.5 168.144,-407.5"/>
</g>
<!-- instance&#45;0000004a -->
<g id="node11" class="node"><title>instance&#45;0000004a</title>
<polygon fill="tomato" stroke="tomato" points="127.5,-368 8.5,-368 8.5,-332 127.5,-332 127.5,-368"/>
<text text-anchor="middle" x="68" y="-346.3" font-family="Times,serif" font-size="14.00">instance&#45;0000004a</text>
</g>
<!-- instance&#45;0000004a&#45;&gt;tap73dbbdec&#45;c6 -->
<g id="edge4" class="edge"><title>instance&#45;0000004a&#45;&gt;tap73dbbdec&#45;c6</title>
<path fill="none" stroke="black" d="M137.833,-350C146.706,-350 155.833,-350 164.815,-350"/>
<polygon fill="black" stroke="black" points="137.712,-346.5 127.712,-350 137.712,-353.5 137.712,-346.5"/>
<polygon fill="black" stroke="black" points="164.873,-353.5 174.873,-350 164.873,-346.5 164.873,-353.5"/>
</g>
<!-- instance&#45;0000004b -->
<g id="node12" class="node"><title>instance&#45;0000004b</title>
<polygon fill="tomato" stroke="tomato" points="127.5,-800 8.5,-800 8.5,-764 127.5,-764 127.5,-800"/>
<text text-anchor="middle" x="68" y="-778.3" font-family="Times,serif" font-size="14.00">instance&#45;0000004b</text>
</g>
<!-- instance&#45;0000004b&#45;&gt;tap299b54bf&#45;be -->
<g id="edge3" class="edge"><title>instance&#45;0000004b&#45;&gt;tap299b54bf&#45;be</title>
<path fill="none" stroke="black" d="M137.965,-782C146.954,-782 156.201,-782 165.293,-782"/>
<polygon fill="black" stroke="black" points="137.712,-778.5 127.712,-782 137.712,-785.5 137.712,-778.5"/>
<polygon fill="black" stroke="black" points="165.47,-785.5 175.47,-782 165.47,-778.5 165.47,-785.5"/>
</g>
<!-- instance&#45;0000004c -->
<g id="node13" class="node"><title>instance&#45;0000004c</title>
<polygon fill="tomato" stroke="tomato" points="127.5,-692 8.5,-692 8.5,-656 127.5,-656 127.5,-692"/>
<text text-anchor="middle" x="68" y="-670.3" font-family="Times,serif" font-size="14.00">instance&#45;0000004c</text>
</g>
<!-- instance&#45;0000004c&#45;&gt;tap3c7f572e&#45;78 -->
<g id="edge5" class="edge"><title>instance&#45;0000004c&#45;&gt;tap3c7f572e&#45;78</title>
<path fill="none" stroke="black" d="M137.721,-674C147.008,-674 156.577,-674 165.967,-674"/>
<polygon fill="black" stroke="black" points="137.712,-670.5 127.712,-674 137.712,-677.5 137.712,-670.5"/>
<polygon fill="black" stroke="black" points="166.066,-677.5 176.066,-674 166.066,-670.5 166.066,-677.5"/>
</g>
<!-- wlp3s0 -->
<g id="node14" class="node"><title>wlp3s0</title>
<ellipse fill="#7f7f7f" stroke="#7f7f7f" cx="68" cy="-998" rx="36.2938" ry="18"/>
<text text-anchor="middle" x="68" y="-994.3" font-family="Times,serif" font-size="14.00">wlp3s0</text>
</g>
<!-- br&#45;ex -->
<g id="node15" class="node"><title>br&#45;ex</title>
<ellipse fill="lightblue" stroke="lightblue" cx="685" cy="-103" rx="29.4969" ry="18"/>
<text text-anchor="middle" x="685" y="-99.3" font-family="Times,serif" font-size="14.00">br&#45;ex</text>
</g>
<!-- br&#45;int -->
<g id="node16" class="node"><title>br&#45;int</title>
<ellipse fill="lightblue" stroke="lightblue" cx="685" cy="-437" rx="30.5947" ry="18"/>
<text text-anchor="middle" x="685" y="-433.3" font-family="Times,serif" font-size="14.00">br&#45;int</text>
</g>
<!-- qvo1589da68&#45;a5 -->
<g id="node27" class="node"><title>qvo1589da68&#45;a5</title>
<ellipse fill="lightgrey" stroke="lightgrey" cx="483" cy="-566" rx="69.5877" ry="18"/>
<text text-anchor="middle" x="483" y="-562.3" font-family="Times,serif" font-size="14.00">qvo1589da68&#45;a5</text>
</g>
<!-- qvb1589da68&#45;a5&#45;&gt;qvo1589da68&#45;a5 -->
<g id="edge27" class="edge"><title>qvb1589da68&#45;a5&#45;&gt;qvo1589da68&#45;a5</title>
<path fill="none" stroke="black" d="M322.07,-566C348.105,-566 377.043,-566 403.068,-566"/>
<polygon fill="black" stroke="black" points="321.808,-562.5 311.808,-566 321.808,-569.5 321.808,-562.5"/>
<polygon fill="black" stroke="black" points="403.264,-569.5 413.264,-566 403.264,-562.5 403.264,-569.5"/>
</g>
<!-- qvo299b54bf&#45;be -->
<g id="node28" class="node"><title>qvo299b54bf&#45;be</title>
<ellipse fill="lightgrey" stroke="lightgrey" cx="483" cy="-701" rx="68.7879" ry="18"/>
<text text-anchor="middle" x="483" y="-697.3" font-family="Times,serif" font-size="14.00">qvo299b54bf&#45;be</text>
</g>
<!-- qvb299b54bf&#45;be&#45;&gt;qvo299b54bf&#45;be -->
<g id="edge28" class="edge"><title>qvb299b54bf&#45;be&#45;&gt;qvo299b54bf&#45;be</title>
<path fill="none" stroke="black" d="M315.575,-719.801C345.237,-716.45 379.484,-712.581 409.172,-709.227"/>
<polygon fill="black" stroke="black" points="315.026,-716.341 305.482,-720.941 315.812,-723.297 315.026,-716.341"/>
<polygon fill="black" stroke="black" points="409.924,-712.665 419.468,-708.064 409.138,-705.709 409.924,-712.665"/>
</g>
<!-- qvo3c7f572e&#45;78 -->
<g id="node29" class="node"><title>qvo3c7f572e&#45;78</title>
<ellipse fill="lightgrey" stroke="lightgrey" cx="483" cy="-620" rx="68.4888" ry="18"/>
<text text-anchor="middle" x="483" y="-616.3" font-family="Times,serif" font-size="14.00">qvo3c7f572e&#45;78</text>
</g>
<!-- qvb3c7f572e&#45;78&#45;&gt;qvo3c7f572e&#45;78 -->
<g id="edge29" class="edge"><title>qvb3c7f572e&#45;78&#45;&gt;qvo3c7f572e&#45;78</title>
<path fill="none" stroke="black" d="M320.64,-620C347.523,-620 377.641,-620 404.511,-620"/>
<polygon fill="black" stroke="black" points="320.53,-616.5 310.529,-620 320.529,-623.5 320.53,-616.5"/>
<polygon fill="black" stroke="black" points="404.637,-623.5 414.637,-620 404.637,-616.5 404.637,-623.5"/>
</g>
<!-- qvo73dbbdec&#45;c6 -->
<g id="node30" class="node"><title>qvo73dbbdec&#45;c6</title>
<ellipse fill="lightgrey" stroke="lightgrey" cx="483" cy="-300" rx="69.5877" ry="18"/>
<text text-anchor="middle" x="483" y="-296.3" font-family="Times,serif" font-size="14.00">qvo73dbbdec&#45;c6</text>
</g>
<!-- qvb73dbbdec&#45;c6&#45;&gt;qvo73dbbdec&#45;c6 -->
<g id="edge30" class="edge"><title>qvb73dbbdec&#45;c6&#45;&gt;qvo73dbbdec&#45;c6</title>
<path fill="none" stroke="black" d="M321.8,-297.319C347.967,-297.757 377.091,-298.244 403.254,-298.682"/>
<polygon fill="black" stroke="black" points="321.545,-293.814 311.488,-297.146 321.428,-300.813 321.545,-293.814"/>
<polygon fill="black" stroke="black" points="403.445,-302.186 413.502,-298.854 403.562,-295.187 403.445,-302.186"/>
</g>
<!-- qvof06f2fd3&#45;5a -->
<g id="node31" class="node"><title>qvof06f2fd3&#45;5a</title>
<ellipse fill="lightgrey" stroke="lightgrey" cx="483" cy="-512" rx="65.7887" ry="18"/>
<text text-anchor="middle" x="483" y="-508.3" font-family="Times,serif" font-size="14.00">qvof06f2fd3&#45;5a</text>
</g>
<!-- qvbf06f2fd3&#45;5a&#45;&gt;qvof06f2fd3&#45;5a -->
<g id="edge31" class="edge"><title>qvbf06f2fd3&#45;5a&#45;&gt;qvof06f2fd3&#45;5a</title>
<path fill="none" stroke="black" d="M292.063,-475.732C307.567,-480.872 324.866,-486.134 341,-490 364.086,-495.532 389.644,-500.005 412.589,-503.437"/>
<polygon fill="black" stroke="black" points="292.757,-472.272 282.163,-472.388 290.517,-478.904 292.757,-472.272"/>
<polygon fill="black" stroke="black" points="412.187,-506.915 422.587,-504.892 413.196,-499.988 412.187,-506.915"/>
</g>
<!-- qvo1589da68&#45;a5&#45;&gt;br&#45;int -->
<g id="edge10" class="edge"><title>qvo1589da68&#45;a5&#45;&gt;br&#45;int</title>
<path fill="none" stroke="black" d="M562.404,-562.966C584.204,-559.079 606.853,-551.895 625,-539 650.535,-520.855 666.632,-487.924 675.445,-464.386"/>
<polygon fill="black" stroke="black" points="561.802,-559.518 552.467,-564.53 562.89,-566.433 561.802,-559.518"/>
<polygon fill="black" stroke="black" points="678.75,-465.539 678.783,-454.944 672.15,-463.206 678.75,-465.539"/>
</g>
<!-- qvo299b54bf&#45;be&#45;&gt;br&#45;int -->
<g id="edge11" class="edge"><title>qvo299b54bf&#45;be&#45;&gt;br&#45;int</title>
<path fill="none" stroke="black" d="M551.63,-688.735C577.753,-680.838 605.89,-667.951 625,-647 672.035,-595.433 681.926,-509.271 683.777,-465.054"/>
<polygon fill="black" stroke="black" points="550.414,-685.441 541.739,-691.524 552.314,-692.179 550.414,-685.441"/>
<polygon fill="black" stroke="black" points="687.276,-465.119 684.087,-455.015 680.28,-464.902 687.276,-465.119"/>
</g>
<!-- qvo3c7f572e&#45;78&#45;&gt;br&#45;int -->
<g id="edge12" class="edge"><title>qvo3c7f572e&#45;78&#45;&gt;br&#45;int</title>
<path fill="none" stroke="black" d="M561.286,-619.218C583.916,-615.523 607.303,-607.882 625,-593 663.36,-560.742 676.819,-500.787 681.514,-465.337"/>
<polygon fill="black" stroke="black" points="560.731,-615.761 551.311,-620.61 561.698,-622.694 560.731,-615.761"/>
<polygon fill="black" stroke="black" points="685.016,-465.52 682.707,-455.18 678.064,-464.703 685.016,-465.52"/>
</g>
<!-- qvo73dbbdec&#45;c6&#45;&gt;br&#45;int -->
<g id="edge13" class="edge"><title>qvo73dbbdec&#45;c6&#45;&gt;br&#45;int</title>
<path fill="none" stroke="black" d="M562.677,-300.676C584.483,-304.084 607.067,-310.949 625,-324 653.435,-344.693 669.302,-383.236 677.248,-409.496"/>
<polygon fill="black" stroke="black" points="563.108,-297.203 552.732,-299.344 562.178,-304.141 563.108,-297.203"/>
<polygon fill="black" stroke="black" points="673.913,-410.565 680.004,-419.233 680.648,-408.658 673.913,-410.565"/>
</g>
<!-- qvof06f2fd3&#45;5a&#45;&gt;br&#45;int -->
<g id="edge14" class="edge"><title>qvof06f2fd3&#45;5a&#45;&gt;br&#45;int</title>
<path fill="none" stroke="black" d="M558.48,-508.467C580.676,-505.306 604.525,-499.723 625,-490 639.613,-483.061 653.239,-471.329 663.707,-460.664"/>
<polygon fill="black" stroke="black" points="557.891,-505.013 548.416,-509.754 558.78,-511.957 557.891,-505.013"/>
<polygon fill="black" stroke="black" points="666.448,-462.857 670.74,-453.171 661.344,-458.067 666.448,-462.857"/>
</g>
<!-- tap786bdb61&#45;98 -->
<g id="node32" class="node"><title>tap786bdb61&#45;98</title>
<ellipse fill="#7f7f7f" stroke="#7f7f7f" cx="483" cy="-437" rx="68.4888" ry="18"/>
<text text-anchor="middle" x="483" y="-433.3" font-family="Times,serif" font-size="14.00">tap786bdb61&#45;98</text>
</g>
<!-- tap786bdb61&#45;98&#45;&gt;br&#45;int -->
<g id="edge15" class="edge"><title>tap786bdb61&#45;98&#45;&gt;br&#45;int</title>
<path fill="none" stroke="black" d="M561.817,-437C589.91,-437 620.462,-437 643.988,-437"/>
<polygon fill="black" stroke="black" points="561.432,-433.5 551.432,-437 561.432,-440.5 561.432,-433.5"/>
<polygon fill="black" stroke="black" points="644.269,-440.5 654.269,-437 644.269,-433.5 644.269,-440.5"/>
</g>
<!-- tapc449da22&#45;87 -->
<g id="node33" class="node"><title>tapc449da22&#45;87</title>
<ellipse fill="#7f7f7f" stroke="#7f7f7f" cx="483" cy="-354" rx="67.6881" ry="18"/>
<text text-anchor="middle" x="483" y="-350.3" font-family="Times,serif" font-size="14.00">tapc449da22&#45;87</text>
</g>
<!-- tapc449da22&#45;87&#45;&gt;br&#45;int -->
<g id="edge16" class="edge"><title>tapc449da22&#45;87&#45;&gt;br&#45;int</title>
<path fill="none" stroke="black" d="M534.855,-371.573C561.916,-381.309 595.586,-394.042 625,-407 634.21,-411.057 644.023,-415.85 652.949,-420.399"/>
<polygon fill="black" stroke="black" points="535.799,-368.194 525.205,-368.127 533.445,-374.786 535.799,-368.194"/>
<polygon fill="black" stroke="black" points="651.377,-423.527 661.867,-425.012 654.593,-417.309 651.377,-423.527"/>
</g>
<!-- qg&#45;0edb2474&#45;73 -->
<g id="node34" class="node"><title>qg&#45;0edb2474&#45;73</title>
<ellipse fill="#7f7f7f" stroke="#7f7f7f" cx="483" cy="-171" rx="68.7879" ry="18"/>
<text text-anchor="middle" x="483" y="-167.3" font-family="Times,serif" font-size="14.00">qg&#45;0edb2474&#45;73</text>
</g>
<!-- qg&#45;0edb2474&#45;73&#45;&gt;br&#45;ex -->
<g id="edge6" class="edge"><title>qg&#45;0edb2474&#45;73&#45;&gt;br&#45;ex</title>
<path fill="none" stroke="black" d="M554.799,-161.133C577.73,-156.579 602.929,-150.096 625,-141 636.298,-136.344 647.8,-129.503 657.611,-122.905"/>
<polygon fill="black" stroke="black" points="553.958,-157.729 544.785,-163.03 555.262,-164.607 553.958,-157.729"/>
<polygon fill="black" stroke="black" points="659.897,-125.577 666.092,-116.982 655.889,-119.838 659.897,-125.577"/>
</g>
<!-- qr&#45;9e5ed1d2&#45;57 -->
<g id="node35" class="node"><title>qr&#45;9e5ed1d2&#45;57</title>
<ellipse fill="#7f7f7f" stroke="#7f7f7f" cx="483" cy="-225" rx="66.8882" ry="18"/>
<text text-anchor="middle" x="483" y="-221.3" font-family="Times,serif" font-size="14.00">qr&#45;9e5ed1d2&#45;57</text>
</g>
<!-- qr&#45;9e5ed1d2&#45;57&#45;&gt;br&#45;int -->
<g id="edge8" class="edge"><title>qr&#45;9e5ed1d2&#45;57&#45;&gt;br&#45;int</title>
<path fill="none" stroke="black" d="M553.047,-235.523C578.408,-242.46 605.626,-253.957 625,-273 662.548,-309.907 676.311,-372.408 681.275,-408.66"/>
<polygon fill="black" stroke="black" points="553.622,-232.058 543.068,-232.994 551.902,-238.843 553.622,-232.058"/>
<polygon fill="black" stroke="black" points="677.854,-409.514 682.55,-419.011 684.801,-408.658 677.854,-409.514"/>
</g>
<!-- qg&#45;9cb30bce&#45;b4 -->
<g id="node36" class="node"><title>qg&#45;9cb30bce&#45;b4</title>
<ellipse fill="#7f7f7f" stroke="#7f7f7f" cx="483" cy="-34" rx="67.6881" ry="18"/>
<text text-anchor="middle" x="483" y="-30.3" font-family="Times,serif" font-size="14.00">qg&#45;9cb30bce&#45;b4</text>
</g>
<!-- qg&#45;9cb30bce&#45;b4&#45;&gt;br&#45;ex -->
<g id="edge7" class="edge"><title>qg&#45;9cb30bce&#45;b4&#45;&gt;br&#45;ex</title>
<path fill="none" stroke="black" d="M556.926,-41.8465C579.361,-45.8631 603.734,-51.9106 625,-61 637.284,-66.2505 649.535,-74.3775 659.663,-82.0888"/>
<polygon fill="black" stroke="black" points="557.214,-38.346 546.772,-40.1403 556.054,-45.2492 557.214,-38.346"/>
<polygon fill="black" stroke="black" points="657.615,-84.9309 667.627,-88.3963 661.961,-79.4437 657.615,-84.9309"/>
</g>
<!-- qr&#45;dae860a8&#45;61 -->
<g id="node37" class="node"><title>qr&#45;dae860a8&#45;61</title>
<ellipse fill="#7f7f7f" stroke="#7f7f7f" cx="483" cy="-88" rx="66.0889" ry="18"/>
<text text-anchor="middle" x="483" y="-84.3" font-family="Times,serif" font-size="14.00">qr&#45;dae860a8&#45;61</text>
</g>
<!-- qr&#45;dae860a8&#45;61&#45;&gt;br&#45;int -->
<g id="edge9" class="edge"><title>qr&#45;dae860a8&#45;61&#45;&gt;br&#45;int</title>
<path fill="none" stroke="black" d="M552.105,-98.9426C578.445,-106.527 606.613,-119.347 625,-141 659.297,-181.39 676.227,-342.699 681.825,-408.666"/>
<polygon fill="black" stroke="black" points="552.688,-95.4759 542.124,-96.2847 550.887,-102.24 552.688,-95.4759"/>
<polygon fill="black" stroke="black" points="678.347,-409.081 682.655,-418.76 685.323,-408.507 678.347,-409.081"/>
</g>
</g>
</svg>
