<?xml version="1.0" encoding="UTF-8" standalone="no"?>
<!DOCTYPE svg PUBLIC "-//W3C//DTD SVG 1.1//EN"
 "http://www.w3.org/Graphics/SVG/1.1/DTD/svg11.dtd">
<!-- Generated by graphviz version 2.38.0 (20140413.2041)
 -->
<!-- Title: cib-upgraded-start.dot Pages: 1 -->
<svg width="1625pt" height="1556pt"
 viewBox="0.00 0.00 1625.00 1556.00" xmlns="http://www.w3.org/2000/svg" xmlns:xlink="http://www.w3.org/1999/xlink">
<g id="graph0" class="graph" transform="scale(1 1) rotate(0) translate(4 1552)">
<title>cib-upgraded-start.dot</title>
<polygon fill="white" stroke="none" points="-4,4 -4,-1552 1621,-1552 1621,4 -4,4"/>
<!-- node0 -->
<g id="node1" class="node"><title>node0</title>
<polygon fill="#d8ffb2" stroke="#d8ffb2" points="1143,-657 952,-657 952,-621 1143,-621 1143,-657"/>
<text text-anchor="middle" x="1047.5" y="-635.3" font-family="Times,serif" font-size="14.00">openstack&#45;nova&#45;scheduler&#45;clone</text>
</g>
<!-- node32 -->
<g id="node33" class="node"><title>node32</title>
<polygon fill="#d8ffb2" stroke="#d8ffb2" points="1389.5,-657 1195.5,-657 1195.5,-621 1389.5,-621 1389.5,-657"/>
<text text-anchor="middle" x="1292.5" y="-635.3" font-family="Times,serif" font-size="14.00">openstack&#45;nova&#45;conductor&#45;clone</text>
</g>
<!-- node0&#45;&gt;node32 -->
<g id="edge6" class="edge"><title>node0&#45;&gt;node32</title>
<path fill="none" stroke="black" d="M1143.15,-639C1156.87,-639 1171.08,-639 1185.02,-639"/>
<polygon fill="black" stroke="black" points="1185.11,-642.5 1195.11,-639 1185.11,-635.5 1185.11,-642.5"/>
</g>
<!-- node1 -->
<g id="node2" class="node"><title>node1</title>
<polygon fill="#d8ffb2" stroke="#d8ffb2" points="1147,-819 948,-819 948,-783 1147,-783 1147,-819"/>
<text text-anchor="middle" x="1047.5" y="-797.3" font-family="Times,serif" font-size="14.00">openstack&#45;cinder&#45;scheduler&#45;clone</text>
</g>
<!-- node18 -->
<g id="node19" class="node"><title>node18</title>
<polygon fill="#d8b2ff" stroke="#d8b2ff" points="1370,-819 1215,-819 1215,-783 1370,-783 1370,-819"/>
<text text-anchor="middle" x="1292.5" y="-797.3" font-family="Times,serif" font-size="14.00">openstack&#45;cinder&#45;volume</text>
</g>
<!-- node1&#45;&gt;node18 -->
<g id="edge7" class="edge"><title>node1&#45;&gt;node18</title>
<path fill="none" stroke="black" d="M1147.34,-801C1166.3,-801 1186.02,-801 1204.57,-801"/>
<polygon fill="black" stroke="black" points="1204.74,-804.5 1214.74,-801 1204.74,-797.5 1204.74,-804.5"/>
</g>
<!-- node2 -->
<g id="node3" class="node"><title>node2</title>
<polygon fill="#d8ffb2" stroke="#d8ffb2" points="138,-1440 60,-1440 60,-1404 138,-1404 138,-1440"/>
<text text-anchor="middle" x="99" y="-1418.3" font-family="Times,serif" font-size="14.00">httpd&#45;clone</text>
</g>
<!-- node3 -->
<g id="node4" class="node"><title>node3</title>
<polygon fill="#d8ffb2" stroke="#d8ffb2" points="889,-711 737,-711 737,-675 889,-675 889,-711"/>
<text text-anchor="middle" x="813" y="-689.3" font-family="Times,serif" font-size="14.00">openstack&#45;heat&#45;api&#45;clone</text>
</g>
<!-- node8 -->
<g id="node9" class="node"><title>node8</title>
<polygon fill="#d8ffb2" stroke="#d8ffb2" points="1134.5,-711 960.5,-711 960.5,-675 1134.5,-675 1134.5,-711"/>
<text text-anchor="middle" x="1047.5" y="-689.3" font-family="Times,serif" font-size="14.00">openstack&#45;heat&#45;api&#45;cfn&#45;clone</text>
</g>
<!-- node3&#45;&gt;node8 -->
<g id="edge9" class="edge"><title>node3&#45;&gt;node8</title>
<path fill="none" stroke="black" d="M889.165,-693C908.573,-693 929.734,-693 950.063,-693"/>
<polygon fill="black" stroke="black" points="950.282,-696.5 960.282,-693 950.282,-689.5 950.282,-696.5"/>
</g>
<!-- node4 -->
<g id="node5" class="node"><title>node4</title>
<polygon fill="#d8ffb2" stroke="#d8ffb2" points="1402,-711 1183,-711 1183,-675 1402,-675 1402,-711"/>
<text text-anchor="middle" x="1292.5" y="-689.3" font-family="Times,serif" font-size="14.00">openstack&#45;heat&#45;api&#45;cloudwatch&#45;clone</text>
</g>
<!-- node23 -->
<g id="node24" class="node"><title>node23</title>
<polygon fill="#d8b2ff" stroke="#d8b2ff" points="1596.5,-711 1458.5,-711 1458.5,-675 1596.5,-675 1596.5,-711"/>
<text text-anchor="middle" x="1527.5" y="-689.3" font-family="Times,serif" font-size="14.00">openstack&#45;heat&#45;engine</text>
</g>
<!-- node4&#45;&gt;node23 -->
<g id="edge11" class="edge"><title>node4&#45;&gt;node23</title>
<path fill="none" stroke="black" d="M1402.16,-693C1417.67,-693 1433.38,-693 1448.17,-693"/>
<polygon fill="black" stroke="black" points="1448.24,-696.5 1458.24,-693 1448.24,-689.5 1448.24,-696.5"/>
</g>
<!-- node5 -->
<g id="node6" class="node"><title>node5</title>
<polygon fill="#d8ffb2" stroke="#d8ffb2" points="661,-873 491,-873 491,-837 661,-837 661,-873"/>
<text text-anchor="middle" x="576" y="-851.3" font-family="Times,serif" font-size="14.00">fs&#45;varlibglanceimages&#45;clone</text>
</g>
<!-- node44 -->
<g id="node45" class="node"><title>node44</title>
<polygon fill="#d8ffb2" stroke="#d8ffb2" points="908,-873 718,-873 718,-837 908,-837 908,-873"/>
<text text-anchor="middle" x="813" y="-851.3" font-family="Times,serif" font-size="14.00">openstack&#45;glance&#45;registry&#45;clone</text>
</g>
<!-- node5&#45;&gt;node44 -->
<g id="edge1" class="edge"><title>node5&#45;&gt;node44</title>
<path fill="none" stroke="black" d="M661.177,-855C676.194,-855 692.002,-855 707.505,-855"/>
<polygon fill="black" stroke="black" points="707.637,-858.5 717.637,-855 707.637,-851.5 707.637,-858.5"/>
</g>
<!-- node6 -->
<g id="node7" class="node"><title>node6</title>
<polygon fill="#d8ffb2" stroke="#d8ffb2" points="654.5,-765 497.5,-765 497.5,-729 654.5,-729 654.5,-765"/>
<text text-anchor="middle" x="576" y="-743.3" font-family="Times,serif" font-size="14.00">openstack&#45;keystone&#45;clone</text>
</g>
<!-- node6&#45;&gt;node3 -->
<g id="edge45" class="edge"><title>node6&#45;&gt;node3</title>
<path fill="none" stroke="black" d="M654.599,-729.169C677.761,-723.846 703.271,-717.985 726.887,-712.558"/>
<polygon fill="black" stroke="black" points="727.917,-715.912 736.88,-710.262 726.35,-709.09 727.917,-715.912"/>
</g>
<!-- node12 -->
<g id="node13" class="node"><title>node12</title>
<polygon fill="#d8ffb2" stroke="#d8ffb2" points="891,-657 735,-657 735,-621 891,-621 891,-657"/>
<text text-anchor="middle" x="813" y="-635.3" font-family="Times,serif" font-size="14.00">openstack&#45;nova&#45;api&#45;clone</text>
</g>
<!-- node6&#45;&gt;node12 -->
<g id="edge44" class="edge"><title>node6&#45;&gt;node12</title>
<path fill="none" stroke="black" d="M602.679,-728.996C629.421,-710.937 673.05,-683.381 714,-666 718.702,-664.004 723.594,-662.115 728.572,-660.333"/>
<polygon fill="black" stroke="black" points="729.891,-663.581 738.225,-657.039 727.631,-656.956 729.891,-663.581"/>
</g>
<!-- node28 -->
<g id="node29" class="node"><title>node28</title>
<polygon fill="#d8ffb2" stroke="#d8ffb2" points="895,-819 731,-819 731,-783 895,-783 895,-819"/>
<text text-anchor="middle" x="813" y="-797.3" font-family="Times,serif" font-size="14.00">openstack&#45;cinder&#45;api&#45;clone</text>
</g>
<!-- node6&#45;&gt;node28 -->
<g id="edge43" class="edge"><title>node6&#45;&gt;node28</title>
<path fill="none" stroke="black" d="M654.599,-764.831C676.61,-769.889 700.74,-775.434 723.351,-780.63"/>
<polygon fill="black" stroke="black" points="722.748,-784.082 733.277,-782.911 724.315,-777.26 722.748,-784.082"/>
</g>
<!-- node6&#45;&gt;node44 -->
<g id="edge42" class="edge"><title>node6&#45;&gt;node44</title>
<path fill="none" stroke="black" d="M602.679,-765.004C629.421,-783.063 673.05,-810.619 714,-828 718.702,-829.996 723.594,-831.885 728.572,-833.667"/>
<polygon fill="black" stroke="black" points="727.631,-837.044 738.225,-836.961 729.891,-830.419 727.631,-837.044"/>
</g>
<!-- node50 -->
<g id="node51" class="node"><title>node50</title>
<polygon fill="#d8ffb2" stroke="#d8ffb2" points="877.5,-765 748.5,-765 748.5,-729 877.5,-729 877.5,-765"/>
<text text-anchor="middle" x="813" y="-743.3" font-family="Times,serif" font-size="14.00">neutron&#45;server&#45;clone</text>
</g>
<!-- node6&#45;&gt;node50 -->
<g id="edge46" class="edge"><title>node6&#45;&gt;node50</title>
<path fill="none" stroke="black" d="M654.599,-747C681.509,-747 711.588,-747 738.185,-747"/>
<polygon fill="black" stroke="black" points="738.194,-750.5 748.194,-747 738.194,-743.5 738.194,-750.5"/>
</g>
<!-- node7 -->
<g id="node8" class="node"><title>node7</title>
<polygon fill="#d8ffb2" stroke="#d8ffb2" points="394,-873 278,-873 278,-837 394,-837 394,-873"/>
<text text-anchor="middle" x="336" y="-851.3" font-family="Times,serif" font-size="14.00">memcached&#45;clone</text>
</g>
<!-- node7&#45;&gt;node6 -->
<g id="edge40" class="edge"><title>node7&#45;&gt;node6</title>
<path fill="none" stroke="black" d="M394.004,-842.666C408.61,-838.722 424.11,-833.833 438,-828 474.85,-812.525 513.796,-788.677 540.705,-770.859"/>
<polygon fill="black" stroke="black" points="542.988,-773.542 549.348,-765.069 539.092,-767.727 542.988,-773.542"/>
</g>
<!-- node8&#45;&gt;node4 -->
<g id="edge10" class="edge"><title>node8&#45;&gt;node4</title>
<path fill="none" stroke="black" d="M1134.51,-693C1146.8,-693 1159.61,-693 1172.38,-693"/>
<polygon fill="black" stroke="black" points="1172.61,-696.5 1182.61,-693 1172.61,-689.5 1172.61,-696.5"/>
</g>
<!-- node9 -->
<g id="node10" class="node"><title>node9</title>
<polygon fill="#d8b2ff" stroke="#d8b2ff" points="185.5,-1386 12.5,-1386 12.5,-1350 185.5,-1350 185.5,-1386"/>
<text text-anchor="middle" x="99" y="-1364.3" font-family="Times,serif" font-size="14.00">ip&#45;heat&#45;adm&#45;192.168.100.21</text>
</g>
<!-- node54 -->
<g id="node55" class="node"><title>node54</title>
<polygon fill="#d8ffb2" stroke="#d8ffb2" points="383.5,-711 288.5,-711 288.5,-675 383.5,-675 383.5,-711"/>
<text text-anchor="middle" x="336" y="-689.3" font-family="Times,serif" font-size="14.00">haproxy&#45;clone</text>
</g>
<!-- node9&#45;&gt;node54 -->
<g id="edge22" class="edge"><title>node9&#45;&gt;node54</title>
<path fill="none" stroke="black" d="M185.634,-1352.25C190.255,-1349.11 194.449,-1345.39 198,-1341 284.912,-1233.51 146.679,-827.159 234,-720 244.824,-706.717 261.401,-699.558 278.014,-695.814"/>
<polygon fill="black" stroke="black" points="279.121,-699.169 288.313,-693.9 277.841,-692.287 279.121,-699.169"/>
</g>
<!-- node10 -->
<g id="node11" class="node"><title>node10</title>
<polygon fill="#d8b2ff" stroke="#d8b2ff" points="183.5,-1332 14.5,-1332 14.5,-1296 183.5,-1296 183.5,-1332"/>
<text text-anchor="middle" x="99" y="-1310.3" font-family="Times,serif" font-size="14.00">ip&#45;heat&#45;pub&#45;192.168.100.23</text>
</g>
<!-- node10&#45;&gt;node54 -->
<g id="edge20" class="edge"><title>node10&#45;&gt;node54</title>
<path fill="none" stroke="black" d="M183.851,-1299.37C189.173,-1296.01 193.992,-1291.93 198,-1287 277.65,-1189.04 153.977,-817.654 234,-720 244.861,-706.746 261.447,-699.596 278.058,-695.85"/>
<polygon fill="black" stroke="black" points="279.163,-699.205 288.353,-693.933 277.882,-692.323 279.163,-699.205"/>
</g>
<!-- node11 -->
<g id="node12" class="node"><title>node11</title>
<polygon fill="#d8b2ff" stroke="#d8b2ff" points="193,-1278 5,-1278 5,-1242 193,-1242 193,-1278"/>
<text text-anchor="middle" x="99" y="-1256.3" font-family="Times,serif" font-size="14.00">ip&#45;neutron&#45;pub&#45;192.168.100.36</text>
</g>
<!-- node11&#45;&gt;node54 -->
<g id="edge32" class="edge"><title>node11&#45;&gt;node54</title>
<path fill="none" stroke="black" d="M188.967,-1241.74C192.276,-1239.18 195.317,-1236.28 198,-1233 270.391,-1144.57 161.272,-808.151 234,-720 244.905,-706.783 261.502,-699.642 278.111,-695.893"/>
<polygon fill="black" stroke="black" points="279.214,-699.248 288.402,-693.974 277.93,-692.367 279.214,-699.248"/>
</g>
<!-- node12&#45;&gt;node0 -->
<g id="edge5" class="edge"><title>node12&#45;&gt;node0</title>
<path fill="none" stroke="black" d="M891.096,-639C907.188,-639 924.412,-639 941.322,-639"/>
<polygon fill="black" stroke="black" points="941.797,-642.5 951.796,-639 941.796,-635.5 941.797,-642.5"/>
</g>
<!-- node13 -->
<g id="node14" class="node"><title>node13</title>
<polygon fill="#d8b2ff" stroke="#d8b2ff" points="191.5,-1224 6.5,-1224 6.5,-1188 191.5,-1188 191.5,-1224"/>
<text text-anchor="middle" x="99" y="-1202.3" font-family="Times,serif" font-size="14.00">ip&#45;glance&#45;adm&#45;192.168.100.18</text>
</g>
<!-- node13&#45;&gt;node54 -->
<g id="edge19" class="edge"><title>node13&#45;&gt;node54</title>
<path fill="none" stroke="black" d="M188.934,-1187.72C192.251,-1185.16 195.304,-1182.27 198,-1179 263.135,-1100.1 168.565,-798.652 234,-720 244.959,-706.827 261.571,-699.698 278.175,-695.947"/>
<polygon fill="black" stroke="black" points="279.276,-699.302 288.463,-694.024 277.99,-692.421 279.276,-699.302"/>
</g>
<!-- node14 -->
<g id="node15" class="node"><title>node14</title>
<polygon fill="#d8ffb2" stroke="#d8ffb2" points="404.5,-819 267.5,-819 267.5,-783 404.5,-783 404.5,-819"/>
<text text-anchor="middle" x="336" y="-797.3" font-family="Times,serif" font-size="14.00">rabbitmq&#45;server&#45;clone</text>
</g>
<!-- node14&#45;&gt;node6 -->
<g id="edge39" class="edge"><title>node14&#45;&gt;node6</title>
<path fill="none" stroke="black" d="M404.565,-785.67C430.268,-779.838 459.936,-773.107 487.242,-766.912"/>
<polygon fill="black" stroke="black" points="488.205,-770.282 497.183,-764.656 486.657,-763.455 488.205,-770.282"/>
</g>
<!-- node15 -->
<g id="node16" class="node"><title>node15</title>
<polygon fill="#d8ffb2" stroke="#d8ffb2" points="438,-657 234,-657 234,-621 438,-621 438,-657"/>
<text text-anchor="middle" x="336" y="-635.3" font-family="Times,serif" font-size="14.00">openstack&#45;nova&#45;consoleauth&#45;clone</text>
</g>
<!-- node39 -->
<g id="node40" class="node"><title>node39</title>
<polygon fill="#d8ffb2" stroke="#d8ffb2" points="678,-657 474,-657 474,-621 678,-621 678,-657"/>
<text text-anchor="middle" x="576" y="-635.3" font-family="Times,serif" font-size="14.00">openstack&#45;nova&#45;novncproxy&#45;clone</text>
</g>
<!-- node15&#45;&gt;node39 -->
<g id="edge3" class="edge"><title>node15&#45;&gt;node39</title>
<path fill="none" stroke="black" d="M438.279,-639C446.644,-639 455.128,-639 463.562,-639"/>
<polygon fill="black" stroke="black" points="463.813,-642.5 473.812,-639 463.812,-635.5 463.813,-642.5"/>
</g>
<!-- node16 -->
<g id="node17" class="node"><title>node16</title>
<polygon fill="#d8ffb2" stroke="#d8ffb2" points="160.5,-1494 37.5,-1494 37.5,-1458 160.5,-1458 160.5,-1494"/>
<text text-anchor="middle" x="99" y="-1472.3" font-family="Times,serif" font-size="14.00">neutron&#45;scale&#45;clone</text>
</g>
<!-- node38 -->
<g id="node39" class="node"><title>node38</title>
<polygon fill="#d8ffb2" stroke="#d8ffb2" points="416.5,-1494 255.5,-1494 255.5,-1458 416.5,-1458 416.5,-1494"/>
<text text-anchor="middle" x="336" y="-1472.3" font-family="Times,serif" font-size="14.00">neutron&#45;ovs&#45;cleanup&#45;clone</text>
</g>
<!-- node16&#45;&gt;node38 -->
<g id="edge47" class="edge"><title>node16&#45;&gt;node38</title>
<path fill="none" stroke="black" d="M160.518,-1476C186.196,-1476 216.663,-1476 244.896,-1476"/>
<polygon fill="black" stroke="black" points="245.184,-1479.5 255.184,-1476 245.184,-1472.5 245.184,-1479.5"/>
</g>
<!-- node17 -->
<g id="node18" class="node"><title>node17</title>
<polygon fill="#d8b2ff" stroke="#d8b2ff" points="196,-1170 2,-1170 2,-1134 196,-1134 196,-1170"/>
<text text-anchor="middle" x="99" y="-1148.3" font-family="Times,serif" font-size="14.00">ip&#45;keystone&#45;pub&#45;192.168.100.32</text>
</g>
<!-- node17&#45;&gt;node54 -->
<g id="edge29" class="edge"><title>node17&#45;&gt;node54</title>
<path fill="none" stroke="black" d="M188.475,-1134C191.965,-1131.37 195.174,-1128.39 198,-1125 255.883,-1055.62 175.853,-789.159 234,-720 244.979,-706.942 261.511,-699.833 278.039,-696.065"/>
<polygon fill="black" stroke="black" points="279.104,-699.425 288.279,-694.127 277.803,-692.547 279.104,-699.425"/>
</g>
<!-- node19 -->
<g id="node20" class="node"><title>node19</title>
<polygon fill="#d8b2ff" stroke="#d8b2ff" points="188.5,-1116 9.5,-1116 9.5,-1080 188.5,-1080 188.5,-1116"/>
<text text-anchor="middle" x="99" y="-1094.3" font-family="Times,serif" font-size="14.00">ip&#45;galera&#45;pub&#45;192.168.100.17</text>
</g>
<!-- node19&#45;&gt;node54 -->
<g id="edge16" class="edge"><title>node19&#45;&gt;node54</title>
<path fill="none" stroke="black" d="M188.419,-1079.95C191.923,-1077.34 195.151,-1074.37 198,-1071 299.275,-951.269 132.27,-839.344 234,-720 245.067,-707.017 261.623,-699.928 278.145,-696.155"/>
<polygon fill="black" stroke="black" points="279.207,-699.515 288.378,-694.211 277.901,-692.638 279.207,-699.515"/>
</g>
<!-- node20 -->
<g id="node21" class="node"><title>node20</title>
<polygon fill="#d8ffb2" stroke="#d8ffb2" points="1617,-1494 1438,-1494 1438,-1458 1617,-1458 1617,-1494"/>
<text text-anchor="middle" x="1527.5" y="-1472.3" font-family="Times,serif" font-size="14.00">neutron&#45;metadata&#45;agent&#45;clone</text>
</g>
<!-- node21 -->
<g id="node22" class="node"><title>node21</title>
<polygon fill="#d8ffb2" stroke="#d8ffb2" points="1130,-873 965,-873 965,-837 1130,-837 1130,-873"/>
<text text-anchor="middle" x="1047.5" y="-851.3" font-family="Times,serif" font-size="14.00">openstack&#45;glance&#45;api&#45;clone</text>
</g>
<!-- node22 -->
<g id="node23" class="node"><title>node22</title>
<polygon fill="#d8b2ff" stroke="#d8b2ff" points="188.5,-1062 9.5,-1062 9.5,-1026 188.5,-1026 188.5,-1062"/>
<text text-anchor="middle" x="99" y="-1040.3" font-family="Times,serif" font-size="14.00">ip&#45;glance&#45;prv&#45;192.168.100.19</text>
</g>
<!-- node22&#45;&gt;node54 -->
<g id="edge18" class="edge"><title>node22&#45;&gt;node54</title>
<path fill="none" stroke="black" d="M188.343,-1025.89C191.868,-1023.29 195.12,-1020.34 198,-1017 284.802,-916.275 146.815,-820.393 234,-720 245.137,-707.176 261.627,-700.12 278.069,-696.328"/>
<polygon fill="black" stroke="black" points="279.095,-699.695 288.252,-694.366 277.771,-692.821 279.095,-699.695"/>
</g>
<!-- node24 -->
<g id="node25" class="node"><title>node24</title>
<polygon fill="#d8b2ff" stroke="#d8b2ff" points="191.5,-1008 6.5,-1008 6.5,-972 191.5,-972 191.5,-1008"/>
<text text-anchor="middle" x="99" y="-986.3" font-family="Times,serif" font-size="14.00">ip&#45;neutron&#45;prv&#45;192.168.100.35</text>
</g>
<!-- node24&#45;&gt;node54 -->
<g id="edge33" class="edge"><title>node24&#45;&gt;node54</title>
<path fill="none" stroke="black" d="M188.236,-971.792C191.788,-969.22 195.076,-966.304 198,-963 270.361,-881.245 161.328,-801.479 234,-720 245.306,-707.324 261.841,-700.308 278.273,-696.507"/>
<polygon fill="black" stroke="black" points="279.293,-699.875 288.443,-694.534 277.959,-693.003 279.293,-699.875"/>
</g>
<!-- node25 -->
<g id="node26" class="node"><title>node25</title>
<polygon fill="#d8b2ff" stroke="#d8b2ff" points="197.5,-954 0.5,-954 0.5,-918 197.5,-918 197.5,-954"/>
<text text-anchor="middle" x="99" y="-932.3" font-family="Times,serif" font-size="14.00">ip&#45;heat_cfn&#45;adm&#45;192.168.100.24</text>
</g>
<!-- node25&#45;&gt;node54 -->
<g id="edge25" class="edge"><title>node25&#45;&gt;node54</title>
<path fill="none" stroke="black" d="M187.639,-917.946C191.399,-915.339 194.889,-912.373 198,-909 255.979,-846.148 175.782,-782.631 234,-720 245.513,-707.615 262.022,-700.668 278.367,-696.842"/>
<polygon fill="black" stroke="black" points="279.346,-700.216 288.477,-694.842 277.988,-693.349 279.346,-700.216"/>
</g>
<!-- node26 -->
<g id="node27" class="node"><title>node26</title>
<polygon fill="#d8b2ff" stroke="#d8b2ff" points="187,-900 11,-900 11,-864 187,-864 187,-900"/>
<text text-anchor="middle" x="99" y="-878.3" font-family="Times,serif" font-size="14.00">ip&#45;nova&#45;adm&#45;192.168.100.37</text>
</g>
<!-- node26&#45;&gt;node54 -->
<g id="edge37" class="edge"><title>node26&#45;&gt;node54</title>
<path fill="none" stroke="black" d="M186.905,-863.959C190.907,-861.353 194.645,-858.383 198,-855 241.728,-810.911 190.105,-763.923 234,-720 245.847,-708.146 262.288,-701.33 278.467,-697.461"/>
<polygon fill="black" stroke="black" points="279.369,-700.849 288.463,-695.414 277.964,-693.991 279.369,-700.849"/>
</g>
<!-- node27 -->
<g id="node28" class="node"><title>node27</title>
<polygon fill="#d8b2ff" stroke="#d8b2ff" points="182.5,-846 15.5,-846 15.5,-810 182.5,-810 182.5,-846"/>
<text text-anchor="middle" x="99" y="-824.3" font-family="Times,serif" font-size="14.00">ip&#45;heat&#45;prv&#45;192.168.100.22</text>
</g>
<!-- node27&#45;&gt;node54 -->
<g id="edge21" class="edge"><title>node27&#45;&gt;node54</title>
<path fill="none" stroke="black" d="M182.539,-811.385C188.086,-808.462 193.319,-805.03 198,-801 227.858,-775.3 204.044,-745.586 234,-720 246.515,-709.31 262.836,-702.806 278.697,-698.863"/>
<polygon fill="black" stroke="black" points="279.454,-702.28 288.475,-696.725 277.958,-695.442 279.454,-702.28"/>
</g>
<!-- node28&#45;&gt;node1 -->
<g id="edge8" class="edge"><title>node28&#45;&gt;node1</title>
<path fill="none" stroke="black" d="M895.317,-801C908.91,-801 923.206,-801 937.361,-801"/>
<polygon fill="black" stroke="black" points="937.63,-804.5 947.63,-801 937.63,-797.5 937.63,-804.5"/>
</g>
<!-- node29 -->
<g id="node30" class="node"><title>node29</title>
<polygon fill="#d8b2ff" stroke="#d8b2ff" points="194.5,-792 3.5,-792 3.5,-756 194.5,-756 194.5,-792"/>
<text text-anchor="middle" x="99" y="-770.3" font-family="Times,serif" font-size="14.00">ip&#45;heat_cfn&#45;prv&#45;192.168.100.25</text>
</g>
<!-- node29&#45;&gt;node54 -->
<g id="edge24" class="edge"><title>node29&#45;&gt;node54</title>
<path fill="none" stroke="black" d="M176.485,-755.972C183.898,-753.324 191.187,-750.343 198,-747 215.955,-738.19 216.012,-728.742 234,-720 247.794,-713.296 263.487,-708.076 278.321,-704.091"/>
<polygon fill="black" stroke="black" points="279.589,-707.38 288.419,-701.526 277.865,-700.596 279.589,-707.38"/>
</g>
<!-- node30 -->
<g id="node31" class="node"><title>node30</title>
<polygon fill="#d8b2ff" stroke="#d8b2ff" points="188,-738 10,-738 10,-702 188,-702 188,-738"/>
<text text-anchor="middle" x="99" y="-716.3" font-family="Times,serif" font-size="14.00">ip&#45;cinder&#45;prv&#45;192.168.100.15</text>
</g>
<!-- node30&#45;&gt;node54 -->
<g id="edge14" class="edge"><title>node30&#45;&gt;node54</title>
<path fill="none" stroke="black" d="M188.174,-709.869C218.316,-706.406 251.208,-702.627 278.205,-699.525"/>
<polygon fill="black" stroke="black" points="278.71,-702.99 288.246,-698.372 277.911,-696.036 278.71,-702.99"/>
</g>
<!-- node31 -->
<g id="node32" class="node"><title>node31</title>
<polygon fill="#d8b2ff" stroke="#d8b2ff" points="190,-684 8,-684 8,-648 190,-648 190,-684"/>
<text text-anchor="middle" x="99" y="-662.3" font-family="Times,serif" font-size="14.00">ip&#45;glance&#45;pub&#45;192.168.100.20</text>
</g>
<!-- node31&#45;&gt;node54 -->
<g id="edge17" class="edge"><title>node31&#45;&gt;node54</title>
<path fill="none" stroke="black" d="M190.185,-676.362C219.78,-679.762 251.823,-683.444 278.225,-686.477"/>
<polygon fill="black" stroke="black" points="278.088,-689.984 288.422,-687.649 278.887,-683.03 278.088,-689.984"/>
</g>
<!-- node33 -->
<g id="node34" class="node"><title>node33</title>
<polygon fill="#b2ffff" stroke="#b2ffff" points="126,-1548 72,-1548 72,-1512 126,-1512 126,-1548"/>
<text text-anchor="middle" x="99" y="-1526.3" font-family="Times,serif" font-size="14.00">heat</text>
</g>
<!-- node34 -->
<g id="node35" class="node"><title>node34</title>
<polygon fill="#d8ffb2" stroke="#d8ffb2" points="1125.5,-1494 969.5,-1494 969.5,-1458 1125.5,-1458 1125.5,-1494"/>
<text text-anchor="middle" x="1047.5" y="-1472.3" font-family="Times,serif" font-size="14.00">neutron&#45;dhcp&#45;agent&#45;clone</text>
</g>
<!-- node55 -->
<g id="node56" class="node"><title>node55</title>
<polygon fill="#d8ffb2" stroke="#d8ffb2" points="1362.5,-1494 1222.5,-1494 1222.5,-1458 1362.5,-1458 1362.5,-1494"/>
<text text-anchor="middle" x="1292.5" y="-1472.3" font-family="Times,serif" font-size="14.00">neutron&#45;l3&#45;agent&#45;clone</text>
</g>
<!-- node34&#45;&gt;node55 -->
<g id="edge51" class="edge"><title>node34&#45;&gt;node55</title>
<path fill="none" stroke="black" d="M1125.72,-1476C1153.32,-1476 1184.45,-1476 1212.23,-1476"/>
<polygon fill="black" stroke="black" points="1212.29,-1479.5 1222.29,-1476 1212.29,-1472.5 1212.29,-1479.5"/>
</g>
<!-- node35 -->
<g id="node36" class="node"><title>node35</title>
<polygon fill="#ffb2b2" stroke="#ffb2b2" points="381.5,-765 290.5,-765 290.5,-729 381.5,-729 381.5,-765"/>
<text text-anchor="middle" x="336" y="-743.3" font-family="Times,serif" font-size="14.00">galera&#45;master</text>
</g>
<!-- node35&#45;&gt;node6 -->
<g id="edge38" class="edge"><title>node35&#45;&gt;node6</title>
<path fill="none" stroke="black" d="M381.766,-747C411.302,-747 450.997,-747 486.725,-747"/>
<polygon fill="black" stroke="black" points="487.175,-750.5 497.175,-747 487.175,-743.5 487.175,-750.5"/>
</g>
<!-- node36 -->
<g id="node37" class="node"><title>node36</title>
<polygon fill="#d8b2ff" stroke="#d8b2ff" points="195,-630 3,-630 3,-594 195,-594 195,-630"/>
<text text-anchor="middle" x="99" y="-608.3" font-family="Times,serif" font-size="14.00">ip&#45;keystone&#45;prv&#45;192.168.100.31</text>
</g>
<!-- node36&#45;&gt;node54 -->
<g id="edge30" class="edge"><title>node36&#45;&gt;node54</title>
<path fill="none" stroke="black" d="M176.485,-630.028C183.898,-632.676 191.187,-635.657 198,-639 215.955,-647.81 216.012,-657.258 234,-666 247.794,-672.704 263.487,-677.924 278.321,-681.909"/>
<polygon fill="black" stroke="black" points="277.865,-685.404 288.419,-684.474 279.589,-678.62 277.865,-685.404"/>
</g>
<!-- node37 -->
<g id="node38" class="node"><title>node37</title>
<polygon fill="#d8b2ff" stroke="#d8b2ff" points="185.5,-576 12.5,-576 12.5,-540 185.5,-540 185.5,-576"/>
<text text-anchor="middle" x="99" y="-554.3" font-family="Times,serif" font-size="14.00">ip&#45;nova&#45;pub&#45;192.168.100.39</text>
</g>
<!-- node37&#45;&gt;node54 -->
<g id="edge35" class="edge"><title>node37&#45;&gt;node54</title>
<path fill="none" stroke="black" d="M185.363,-576.164C189.864,-578.732 194.121,-581.661 198,-585 227.858,-610.7 204.044,-640.414 234,-666 246.515,-676.69 262.836,-683.194 278.697,-687.137"/>
<polygon fill="black" stroke="black" points="277.958,-690.558 288.475,-689.275 279.454,-683.72 277.958,-690.558"/>
</g>
<!-- node48 -->
<g id="node49" class="node"><title>node48</title>
<polygon fill="#d8ffb2" stroke="#d8ffb2" points="661.5,-1494 490.5,-1494 490.5,-1458 661.5,-1458 661.5,-1494"/>
<text text-anchor="middle" x="576" y="-1472.3" font-family="Times,serif" font-size="14.00">neutron&#45;netns&#45;cleanup&#45;clone</text>
</g>
<!-- node38&#45;&gt;node48 -->
<g id="edge48" class="edge"><title>node38&#45;&gt;node48</title>
<path fill="none" stroke="black" d="M416.581,-1476C436.904,-1476 458.956,-1476 479.968,-1476"/>
<polygon fill="black" stroke="black" points="480.187,-1479.5 490.187,-1476 480.187,-1472.5 480.187,-1479.5"/>
</g>
<!-- node39&#45;&gt;node12 -->
<g id="edge4" class="edge"><title>node39&#45;&gt;node12</title>
<path fill="none" stroke="black" d="M678.025,-639C693.49,-639 709.342,-639 724.484,-639"/>
<polygon fill="black" stroke="black" points="724.839,-642.5 734.839,-639 724.839,-635.5 724.839,-642.5"/>
</g>
<!-- node40 -->
<g id="node41" class="node"><title>node40</title>
<polygon fill="#d8b2ff" stroke="#d8b2ff" points="191.5,-522 6.5,-522 6.5,-486 191.5,-486 191.5,-522"/>
<text text-anchor="middle" x="99" y="-500.3" font-family="Times,serif" font-size="14.00">ip&#45;horizon&#45;prv&#45;192.168.100.28</text>
</g>
<!-- node40&#45;&gt;node54 -->
<g id="edge27" class="edge"><title>node40&#45;&gt;node54</title>
<path fill="none" stroke="black" d="M186.905,-522.041C190.907,-524.647 194.645,-527.617 198,-531 241.728,-575.089 190.105,-622.077 234,-666 245.847,-677.854 262.288,-684.67 278.467,-688.539"/>
<polygon fill="black" stroke="black" points="277.964,-692.009 288.463,-690.586 279.369,-685.151 277.964,-692.009"/>
</g>
<!-- node41 -->
<g id="node42" class="node"><title>node41</title>
<polygon fill="#d8b2ff" stroke="#d8b2ff" points="194.5,-468 3.5,-468 3.5,-432 194.5,-432 194.5,-468"/>
<text text-anchor="middle" x="99" y="-446.3" font-family="Times,serif" font-size="14.00">ip&#45;neutron&#45;adm&#45;192.168.100.34</text>
</g>
<!-- node41&#45;&gt;node54 -->
<g id="edge34" class="edge"><title>node41&#45;&gt;node54</title>
<path fill="none" stroke="black" d="M187.639,-468.054C191.399,-470.661 194.889,-473.627 198,-477 255.979,-539.852 175.782,-603.369 234,-666 245.513,-678.385 262.022,-685.332 278.367,-689.158"/>
<polygon fill="black" stroke="black" points="277.988,-692.651 288.477,-691.158 279.346,-685.784 277.988,-692.651"/>
</g>
<!-- node42 -->
<g id="node43" class="node"><title>node42</title>
<polygon fill="#d8b2ff" stroke="#d8b2ff" points="198,-414 0,-414 0,-378 198,-378 198,-414"/>
<text text-anchor="middle" x="99" y="-392.3" font-family="Times,serif" font-size="14.00">ip&#45;keystone&#45;adm&#45;192.168.100.30</text>
</g>
<!-- node42&#45;&gt;node54 -->
<g id="edge31" class="edge"><title>node42&#45;&gt;node54</title>
<path fill="none" stroke="black" d="M188.236,-414.208C191.788,-416.78 195.076,-419.696 198,-423 270.361,-504.755 161.328,-584.521 234,-666 245.306,-678.676 261.841,-685.692 278.273,-689.493"/>
<polygon fill="black" stroke="black" points="277.959,-692.997 288.443,-691.466 279.293,-686.125 277.959,-692.997"/>
</g>
<!-- node43 -->
<g id="node44" class="node"><title>node43</title>
<polygon fill="#d8b2ff" stroke="#d8b2ff" points="195.5,-360 2.5,-360 2.5,-324 195.5,-324 195.5,-360"/>
<text text-anchor="middle" x="99" y="-338.3" font-family="Times,serif" font-size="14.00">ip&#45;heat_cfn&#45;pub&#45;192.168.100.26</text>
</g>
<!-- node43&#45;&gt;node54 -->
<g id="edge23" class="edge"><title>node43&#45;&gt;node54</title>
<path fill="none" stroke="black" d="M188.343,-360.114C191.868,-362.711 195.12,-365.658 198,-369 284.802,-469.725 146.815,-565.607 234,-666 245.137,-678.824 261.627,-685.88 278.069,-689.672"/>
<polygon fill="black" stroke="black" points="277.771,-693.179 288.252,-691.634 279.095,-686.305 277.771,-693.179"/>
</g>
<!-- node44&#45;&gt;node21 -->
<g id="edge2" class="edge"><title>node44&#45;&gt;node21</title>
<path fill="none" stroke="black" d="M908.231,-855C923.47,-855 939.233,-855 954.42,-855"/>
<polygon fill="black" stroke="black" points="954.829,-858.5 964.829,-855 954.829,-851.5 954.829,-858.5"/>
</g>
<!-- node45 -->
<g id="node46" class="node"><title>node45</title>
<polygon fill="#d8b2ff" stroke="#d8b2ff" points="184,-306 14,-306 14,-270 184,-270 184,-306"/>
<text text-anchor="middle" x="99" y="-284.3" font-family="Times,serif" font-size="14.00">ip&#45;nova&#45;prv&#45;192.168.100.38</text>
</g>
<!-- node45&#45;&gt;node54 -->
<g id="edge36" class="edge"><title>node45&#45;&gt;node54</title>
<path fill="none" stroke="black" d="M184.087,-303.08C189.281,-306.353 194.011,-310.284 198,-315 299.275,-434.731 132.27,-546.656 234,-666 245.067,-678.983 261.623,-686.072 278.145,-689.845"/>
<polygon fill="black" stroke="black" points="277.901,-693.362 288.378,-691.789 279.207,-686.485 277.901,-693.362"/>
</g>
<!-- node46 -->
<g id="node47" class="node"><title>node46</title>
<polygon fill="#d8b2ff" stroke="#d8b2ff" points="191,-252 7,-252 7,-216 191,-216 191,-252"/>
<text text-anchor="middle" x="99" y="-230.3" font-family="Times,serif" font-size="14.00">ip&#45;cinder&#45;adm&#45;192.168.100.14</text>
</g>
<!-- node46&#45;&gt;node54 -->
<g id="edge15" class="edge"><title>node46&#45;&gt;node54</title>
<path fill="none" stroke="black" d="M188.475,-252.003C191.965,-254.629 195.174,-257.612 198,-261 255.883,-330.38 175.853,-596.841 234,-666 244.979,-679.058 261.511,-686.167 278.039,-689.935"/>
<polygon fill="black" stroke="black" points="277.803,-693.453 288.279,-691.873 279.104,-686.575 277.803,-693.453"/>
</g>
<!-- node47 -->
<g id="node48" class="node"><title>node47</title>
<polygon fill="#d8ffb2" stroke="#d8ffb2" points="912,-1494 714,-1494 714,-1458 912,-1458 912,-1494"/>
<text text-anchor="middle" x="813" y="-1472.3" font-family="Times,serif" font-size="14.00">neutron&#45;openvswitch&#45;agent&#45;clone</text>
</g>
<!-- node47&#45;&gt;node34 -->
<g id="edge50" class="edge"><title>node47&#45;&gt;node34</title>
<path fill="none" stroke="black" d="M912.264,-1476C927.771,-1476 943.716,-1476 958.959,-1476"/>
<polygon fill="black" stroke="black" points="959.385,-1479.5 969.385,-1476 959.385,-1472.5 959.385,-1479.5"/>
</g>
<!-- node48&#45;&gt;node47 -->
<g id="edge49" class="edge"><title>node48&#45;&gt;node47</title>
<path fill="none" stroke="black" d="M661.508,-1476C675.168,-1476 689.474,-1476 703.604,-1476"/>
<polygon fill="black" stroke="black" points="703.85,-1479.5 713.85,-1476 703.85,-1472.5 703.85,-1479.5"/>
</g>
<!-- node49 -->
<g id="node50" class="node"><title>node49</title>
<polygon fill="#d8b2ff" stroke="#d8b2ff" points="193,-198 5,-198 5,-162 193,-162 193,-198"/>
<text text-anchor="middle" x="99" y="-176.3" font-family="Times,serif" font-size="14.00">ip&#45;horizon&#45;pub&#45;192.168.100.29</text>
</g>
<!-- node49&#45;&gt;node54 -->
<g id="edge26" class="edge"><title>node49&#45;&gt;node54</title>
<path fill="none" stroke="black" d="M188.934,-198.285C192.251,-200.843 195.304,-203.734 198,-207 263.135,-285.901 168.565,-587.348 234,-666 244.959,-679.173 261.571,-686.302 278.175,-690.053"/>
<polygon fill="black" stroke="black" points="277.99,-693.579 288.463,-691.976 279.276,-686.698 277.99,-693.579"/>
</g>
<!-- node51 -->
<g id="node52" class="node"><title>node51</title>
<polygon fill="#d8b2ff" stroke="#d8b2ff" points="194.5,-144 3.5,-144 3.5,-108 194.5,-108 194.5,-144"/>
<text text-anchor="middle" x="99" y="-122.3" font-family="Times,serif" font-size="14.00">ip&#45;horizon&#45;adm&#45;192.168.100.27</text>
</g>
<!-- node51&#45;&gt;node54 -->
<g id="edge28" class="edge"><title>node51&#45;&gt;node54</title>
<path fill="none" stroke="black" d="M188.967,-144.258C192.276,-146.823 195.317,-149.723 198,-153 270.391,-241.428 161.272,-577.849 234,-666 244.905,-679.217 261.502,-686.358 278.111,-690.107"/>
<polygon fill="black" stroke="black" points="277.93,-693.633 288.402,-692.026 279.214,-686.752 277.93,-693.633"/>
</g>
<!-- node52 -->
<g id="node53" class="node"><title>node52</title>
<polygon fill="#d8b2ff" stroke="#d8b2ff" points="187.5,-90 10.5,-90 10.5,-54 187.5,-54 187.5,-90"/>
<text text-anchor="middle" x="99" y="-68.3" font-family="Times,serif" font-size="14.00">ip&#45;amqp&#45;pub&#45;192.168.100.40</text>
</g>
<!-- node52&#45;&gt;node54 -->
<g id="edge12" class="edge"><title>node52&#45;&gt;node54</title>
<path fill="none" stroke="black" d="M187.743,-89.2874C191.532,-92.0855 194.994,-95.303 198,-99 277.65,-196.958 153.977,-568.346 234,-666 244.861,-679.254 261.447,-686.404 278.058,-690.15"/>
<polygon fill="black" stroke="black" points="277.882,-693.677 288.353,-692.067 279.163,-686.795 277.882,-693.677"/>
</g>
<!-- node53 -->
<g id="node54" class="node"><title>node53</title>
<polygon fill="#d8b2ff" stroke="#d8b2ff" points="189,-36 9,-36 9,-0 189,-0 189,-36"/>
<text text-anchor="middle" x="99" y="-14.3" font-family="Times,serif" font-size="14.00">ip&#45;cinder&#45;pub&#45;192.168.100.16</text>
</g>
<!-- node53&#45;&gt;node54 -->
<g id="edge13" class="edge"><title>node53&#45;&gt;node54</title>
<path fill="none" stroke="black" d="M189.016,-36.2177C192.312,-38.7931 195.337,-41.7064 198,-45 284.912,-152.491 146.679,-558.841 234,-666 244.824,-679.283 261.401,-686.442 278.014,-690.186"/>
<polygon fill="black" stroke="black" points="277.841,-693.713 288.313,-692.1 279.121,-686.831 277.841,-693.713"/>
</g>
<!-- node54&#45;&gt;node6 -->
<g id="edge41" class="edge"><title>node54&#45;&gt;node6</title>
<path fill="none" stroke="black" d="M383.737,-703.604C413.311,-710.314 452.469,-719.199 487.647,-727.18"/>
<polygon fill="black" stroke="black" points="486.926,-730.606 497.453,-729.405 488.475,-723.779 486.926,-730.606"/>
</g>
<!-- node55&#45;&gt;node20 -->
<g id="edge52" class="edge"><title>node55&#45;&gt;node20</title>
<path fill="none" stroke="black" d="M1362.78,-1476C1383.04,-1476 1405.6,-1476 1427.34,-1476"/>
<polygon fill="black" stroke="black" points="1427.59,-1479.5 1437.59,-1476 1427.59,-1472.5 1427.59,-1479.5"/>
</g>
</g>
</svg>
